<mxfile host="app.diagrams.net" modified="2024-06-30T11:01:38.690Z" agent="Mozilla/5.0 (Macintosh; Intel Mac OS X 10_15_7) AppleWebKit/605.1.15 (KHTML, like Gecko) Version/17.5 Safari/605.1.15" etag="Ebq1ojgoaj9SFEJU_-SW" version="24.6.4" type="github">
  <diagram name="Page-1" id="uhQDvh23D89XjW1Vly2g">
    <mxGraphModel dx="2262" dy="1866" grid="0" gridSize="10" guides="1" tooltips="1" connect="1" arrows="1" fold="1" page="0" pageScale="1" pageWidth="850" pageHeight="1100" math="0" shadow="0">
      <root>
        <mxCell id="0" />
        <mxCell id="1" parent="0" />
        <mxCell id="10dK1Vd9zMt5HVXEKxZ6-2" value="" style="shape=image;verticalLabelPosition=bottom;labelBackgroundColor=default;verticalAlign=top;aspect=fixed;imageAspect=0;image=data:image/png,iVBORw0KGgoAAAANSUhEUgAABUAAAAJ4CAYAAACkiEl1AAAMP2lDQ1BJQ0MgUHJvZmlsZQAASImVVwdYU8kWnluSkEBooUsJvQnSCSAlhBZAehFshCRAKDEGgoodWVRwLahYwIauiih2QOyIYmFR7H2xoKCsiwW78iYFdN1XvjffN3f++8+Z/5w5M7cMAGonOSJRLqoOQJ6wQBwXGkgfm5JKJ/UAAtAFOsAVGHG4+SJmTEwkgGWo/Xt5dwMg0vaqg1Trn/3/tWjw+PlcAJAYiNN5+dw8iA8CgFdzReICAIhS3nxqgUiKYQVaYhggxAulOFOOq6U4XY73ymwS4lgQtwKgpMLhiDMBUL0MeXohNxNqqPZD7CTkCYQAqNEh9svLm8yDOA1iG2gjgliqz0j/QSfzb5rpw5ocTuYwls9FVpSCBPmiXM70/zMd/7vk5UqGfFjBqpIlDouTzhnm7VbO5AgpVoG4T5geFQ2xJsQfBDyZPcQoJUsSlii3Rw25+SyYM7jOAHXicYIiIDaEOESYGxWp4NMzBCFsiOEOQacJCtgJEOtBvJCfHxyvsNkknhyn8IU2ZIhZTAV/jiOW+ZX6eiDJSWQq9F9n8dkKfUy1KCshGWIKxBaFgqQoiFUhdszPiY9Q2IwuymJFDdmIJXHS+C0gjuMLQwPl+lhhhjgkTmFflpc/NF9sU5aAHaXA+wuyEsLk+cFauRxZ/HAu2GW+kJk4pMPPHxs5NBcePyhYPneshy9MjFfofBAVBMbJx+IUUW6Mwh434+eGSnkziN3yC+MVY/GkArgh5fp4hqggJkEeJ16UzQmPkceDLwORgAWCAB1IYE0Hk0E2EHT0NfbBO3lPCOAAMcgEfOCgYIZGJMt6hPAaD4rAnxDxQf7wuEBZLx8UQv7rMCu/OoAMWW+hbEQOeApxHogAufBeIhslHPaWBJ5ARvAP7xxYuTDeXFil/f+eH2K/M0zIRCoYyZBHutqQJTGYGEQMI4YQbXED3A/3wSPhNQBWF5yBew3N47s94Smhk/CIcJ3QRbg9SVAs/inKMaAL6ococpH+Yy5wK6jpjgfivlAdKuM6uAFwwN2gHybuDz27Q5aliFuaFfpP2n+bwQ+robAjO5FRsi45gGzz80hVO1X3YRVprn/MjzzW9OF8s4Z7fvbP+iH7PNhG/GyJLcQOYG3YKew8dhRrBHTsBNaEtWPHpHh4dz2R7a4hb3GyeHKgjuAf/oZWVprJfKc6p16nL/K+Av406TsasCaLposFmVkFdCb8IvDpbCHXcSTdxcnFDQDp90X++noTK/tuIDrt37n5fwDge2JwcPDIdy78BAD7POHjf/g7Z8OAnw5lAM4d5krEhXIOl14I8C2hBp80fWAMzIENnI8L8AA+IAAEg3AQDRJACpgIo8+C+1wMpoKZYB4oBeVgGVgF1oGNYAvYAXaD/aARHAWnwFlwEVwG18FduHu6wQvQD96BzwiCkBAqQkP0ERPEErFHXBAG4ocEI5FIHJKCpCGZiBCRIDOR+Ug5UoGsQzYjtcg+5DByCjmPdCK3kYdIL/Ia+YRiqAqqhRqhVugolIEy0Qg0AZ2AZqJT0CK0BF2CrkFr0F1oA3oKvYheR7vQF+gABjBlTAczxRwwBsbCorFULAMTY7OxMqwSq8HqsWa4zlexLqwP+4gTcRpOxx3gDg7DE3EuPgWfjS/G1+E78Aa8Fb+KP8T78W8EKsGQYE/wJrAJYwmZhKmEUkIlYRvhEOEMfJa6Ce+IRKIO0ZroCZ/FFGI2cQZxMXE9cQ/xJLGT+Jg4QCKR9En2JF9SNIlDKiCVktaSdpFOkK6QukkflJSVTJRclEKUUpWESsVKlUo7lY4rXVF6pvSZrE62JHuTo8k88nTyUvJWcjP5Ermb/JmiQbGm+FISKNmUeZQ1lHrKGco9yhtlZWUzZS/lWGWB8lzlNcp7lc8pP1T+qKKpYqfCUhmvIlFZorJd5aTKbZU3VCrVihpATaUWUJdQa6mnqQ+oH1Rpqo6qbFWe6hzVKtUG1SuqL9XIapZqTLWJakVqlWoH1C6p9amT1a3UWeoc9dnqVeqH1W+qD2jQNJw1ojXyNBZr7NQ4r9GjSdK00gzW5GmWaG7RPK35mIbRzGksGpc2n7aVdobWrUXUstZia2VrlWvt1urQ6tfW1HbTTtKepl2lfUy7SwfTsdJh6+TqLNXZr3ND55OukS5Tl6+7SLde94rue70RegF6fL0yvT161/U+6dP1g/Vz9JfrN+rfN8AN7AxiDaYabDA4Y9A3QmuEzwjuiLIR+0fcMUQN7QzjDGcYbjFsNxwwMjYKNRIZrTU6bdRnrGMcYJxtvNL4uHGvCc3Ez0RgstLkhMlzujadSc+lr6G30vtNDU3DTCWmm007TD+bWZslmhWb7TG7b04xZ5hnmK80bzHvtzCxGGMx06LO4o4l2ZJhmWW52rLN8r2VtVWy1QKrRqseaz1rtnWRdZ31PRuqjb/NFJsam2u2RFuGbY7tetvLdqidu12WXZXdJXvU3sNeYL/evnMkYaTXSOHImpE3HVQcmA6FDnUODx11HCMdix0bHV+OshiVOmr5qLZR35zcnXKdtjrdddZ0Dncudm52fu1i58J1qXK55kp1DXGd49rk+srN3o3vtsHtljvNfYz7AvcW968enh5ij3qPXk8LzzTPas+bDC1GDGMx45wXwSvQa47XUa+P3h7eBd77vf/ycfDJ8dnp0zPaejR/9NbRj33NfDm+m327/Oh+aX6b/Lr8Tf05/jX+jwLMA3gB2wKeMW2Z2cxdzJeBToHiwEOB71nerFmsk0FYUGhQWVBHsGZwYvC64AchZiGZIXUh/aHuoTNCT4YRwiLClofdZBuxuexadn+4Z/is8NYIlYj4iHURjyLtIsWRzWPQMeFjVoy5F2UZJYxqjAbR7OgV0fdjrGOmxByJJcbGxFbFPo1zjpsZ1xZPi58UvzP+XUJgwtKEu4k2iZLEliS1pPFJtUnvk4OSK5K7xo4aO2vsxRSDFEFKUyopNSl1W+rAuOBxq8Z1j3cfXzr+xgTrCdMmnJ9oMDF34rFJapM4kw6kEdKS03amfeFEc2o4A+ns9Or0fi6Lu5r7ghfAW8nr5fvyK/jPMnwzKjJ6Mn0zV2T2ZvlnVWb1CViCdYJX2WHZG7Pf50TnbM8ZzE3O3ZOnlJeWd1ioKcwRtk42njxtcqfIXlQq6priPWXVlH5xhHhbPpI/Ib+pQAv+yLdLbCS/SB4W+hVWFX6YmjT1wDSNacJp7dPtpi+a/qwopOi3GfgM7oyWmaYz5818OIs5a/NsZHb67JY55nNK5nTPDZ27Yx5lXs6834udiiuK385Pnt9cYlQyt+TxL6G/1JWqlopLby7wWbBxIb5QsLBjkeuitYu+lfHKLpQ7lVeWf1nMXXzhV+df1/w6uCRjScdSj6UblhGXCZfdWO6/fEeFRkVRxeMVY1Y0rKSvLFv5dtWkVecr3So3rqaslqzuWhO5pmmtxdpla7+sy1p3vSqwak+1YfWi6vfreeuvbAjYUL/RaGP5xk+bBJtubQ7d3FBjVVO5hbilcMvTrUlb235j/Fa7zWBb+bav24Xbu3bE7Wit9ayt3Wm4c2kdWiep6901ftfl3UG7m+od6jfv0dlTvhfslex9vi9t3439EftbDjAO1B+0PFh9iHaorAFpmN7Q35jV2NWU0tR5OPxwS7NP86Ejjke2HzU9WnVM+9jS45TjJccHTxSdGDgpOtl3KvPU45ZJLXdPjz19rTW2teNMxJlzZ0POnm5jtp0453vu6Hnv84cvMC40XvS42NDu3n7od/ffD3V4dDRc8rzUdNnrcnPn6M7jV/yvnLoadPXsNfa1i9ejrnfeSLxx6+b4m123eLd6bufefnWn8M7nu3PvEe6V3Ve/X/nA8EHNH7Z/7Ony6Dr2MOhh+6P4R3cfcx+/eJL/5Et3yVPq08pnJs9qe1x6jvaG9F5+Pu559wvRi899pX9q/Fn90ublwb8C/mrvH9vf/Ur8avD14jf6b7a/dXvbMhAz8OBd3rvP78s+6H/Y8ZHxse1T8qdnn6d+IX1Z89X2a/O3iG/3BvMGB0UcMUf2K4DBimZkAPB6OwDUFABo8HxGGSc//8kKIj+zyhD4T1h+RpQVDwDq4f97bB/8u7kJwN6t8PgF9dXGAxBDBSDBC6CursN16KwmO1dKCxGeAzYlfE3PSwf/psjPnD/E/XMLpKpu4Of2X32KfJJ5ckmHAAAAimVYSWZNTQAqAAAACAAEARoABQAAAAEAAAA+ARsABQAAAAEAAABGASgAAwAAAAEAAgAAh2kABAAAAAEAAABOAAAAAAAAAJAAAAABAAAAkAAAAAEAA5KGAAcAAAASAAAAeKACAAQAAAABAAAFQKADAAQAAAABAAACeAAAAABBU0NJSQAAAFNjcmVlbnNob3RLCV8QAAAACXBIWXMAABYlAAAWJQFJUiTwAAAB12lUWHRYTUw6Y29tLmFkb2JlLnhtcAAAAAAAPHg6eG1wbWV0YSB4bWxuczp4PSJhZG9iZTpuczptZXRhLyIgeDp4bXB0az0iWE1QIENvcmUgNi4wLjAiPgogICA8cmRmOlJERiB4bWxuczpyZGY9Imh0dHA6Ly93d3cudzMub3JnLzE5OTkvMDIvMjItcmRmLXN5bnRheC1ucyMiPgogICAgICA8cmRmOkRlc2NyaXB0aW9uIHJkZjphYm91dD0iIgogICAgICAgICAgICB4bWxuczpleGlmPSJodHRwOi8vbnMuYWRvYmUuY29tL2V4aWYvMS4wLyI+CiAgICAgICAgIDxleGlmOlBpeGVsWURpbWVuc2lvbj42MzI8L2V4aWY6UGl4ZWxZRGltZW5zaW9uPgogICAgICAgICA8ZXhpZjpQaXhlbFhEaW1lbnNpb24+MTM0NDwvZXhpZjpQaXhlbFhEaW1lbnNpb24+CiAgICAgICAgIDxleGlmOlVzZXJDb21tZW50PlNjcmVlbnNob3Q8L2V4aWY6VXNlckNvbW1lbnQ+CiAgICAgIDwvcmRmOkRlc2NyaXB0aW9uPgogICA8L3JkZjpSREY+CjwveDp4bXBtZXRhPgoDBwPrAAAAHGlET1QAAAACAAAAAAAAATwAAAAoAAABPAAAATwAAHrjHCw+RgAAQABJREFUeAHs3Qv8HPO9//GvRFGK1KVU69KgnGij1CVHUHcnnEhThDoUrfs1eBBJCXGJexAkQgnqtB6NWyKkLnGN4xKJuiXE/U4Ikghx6/7nPf7fMTs7uzs7O7M7M/v6Ph6/x+5vd+Y733l+Z3ZnP/O9LFJykiEhgAACCCCAAAIIIIAAAggggAACCCCAAAIFFFiEAGgBa5VdQgABBBBAAAEEEEAAAQQQQAABBBBAAAFXgAAoBwICCCCAAAIIIIAAAggggAACCCCAAAIIFFaAAGhhq5YdQwABBBBAAAEEEEAAAQQQQAABBBBAAAECoBwDCCCAAAIIIIAAAggggAACCCCAAAIIIFBYAQKgha1adgwBBBBAAAEEEEAAAQQQQAABBBBAAAEECIByDCCAAAIIIIAAAggggAACCCCAAAIIIIBAYQUIgBa2atkxBBBAAAEEEEAAAQQQQAABBBBAAAEEECAAyjGAAAIIIIAAAggggAACCCCAAAIIIIAAAoUVIABa2KplxxBAAAEEEEAAAQQQQAABBBBAAAEEEECAACjHAAIIIIAAAggggAACCCCAAAIIIIAAAggUVoAAaGGrlh1DAAEEEEAAAQQQQAABBBBAAAEEEEAAAQKgHAMIIIAAAggggAACCCCAAAIIIIAAAgggUFgBAqCFrVp2DAEEEEAAAQQQQAABBBBAAAEEEEAAAQQIgHIMIIAAAggggAACCCCAAAIIIIAAAggggEBhBQiAFrZq2TEEEEAAAQQQQAABBBBAAAEEEEAAAQQQIADKMYAAAggggAACCCCAAAIIIIAAAggggAAChRUgAFrYqmXHEEAAAQQQQAABBBBAAAEEEEAAAQQQQIAAKMcAAggggAACCCCAAAIIIIAAAggggAACCBRWgABoYauWHUMAAQQQQAABBBBAAAEEEEAAAQQQQAABAqAcAwgggAACCCCAAAIIIIAAAggggAACCCBQWAECoIWtWnYMAQQQQAABBBBAAAEEEEAAAQQQQAABBAiAcgwggAACCCCAAAIIIIAAAggggAACCCCAQGEFCIAWtmrZMQQQQAABBBBAAAEEEEAAAQQQQAABBBAgAMoxgAACCCCAAAIIIIAAAggggAACCCCAAAKFFSAAWtiqZccQQAABBBBAAAEEEEAAAQQQQAABBBBAgAAoxwACCCCAAAIIIIAAAggggAACCCCAAAIIFFaAAGhhq5YdQwABBBBAAAEEEEAAAQQQQAABBBBAAAECoBwDCCCAAAIIIIAAAggggAACCCCAAAIIIFBYAQKgha1adgwBBBBAAAEEEEAAAQQQQAABBBBAAAEECIByDCCAAAIIIIAAAggggAACCCCAAAIIIIBAYQUIgBa2atkxBBBAAAEEEEAAAQQQQAABBBBAAAEEECAAyjGAAAIIIIAAAggggAACCCCAAAIIIIAAAoUVIABa2KplxxBAAAEEEEAAAQQQQAABBBBAAAEEEECAACjHAAIIIIAAAggggAACCCCAAAIIIIAAAggUVoAAaGGrlh1DAAEEEEAAAQQQQAABBBBAAAEEEEAAAQKgHAMIIIAAAggggAACCCCAAAIIIIAAAgggUFgBAqCFrVp2DAEEEEAAAQQQQAABBBBAAAEEEEAAAQQIgHIMIIAAAggggAACCCCAAAIIIIAAAggggEBhBQiAFrZq2TEEEEAAAQQQQAABBBBAAAEEEEAAAQQQIADKMYAAAggggAACCCCAAAIIIIAAAggggAAChRUgAFrYqmXHEEAAAQQQQAABBBBAAAEEEEAAAQQQQIAAKMcAAggggAACCCCAAAIIIIAAAggggAACCBRWgABoYauWHUMAAQQQQAABBBBAAAEEEEAAAQQQQAABAqAcAwgggAACCCCAAAIIIIAAAggggAACCCBQWAECoIWtWnYMAQQQQAABBBBAAAEEEEAAAQQQQAABBAiAcgwggAACCCCAAAIIIIAAAggggAACCCCAQGEFCIAWtmrZMQQQQAABBBBAAAEEEEAAAQQQQAABBBAgAMoxgAACCCCAAAIIIIAAAggggAACCCCAAAKFFSAAWtiqZccQQAABBBBAAAEEEEAAAQQQQAABBBBAgAAoxwACCCCAAAIIIIAAAggggAACCCCAAAIIFFaAAGhhq5YdQwABBBBAAAEEEEAAAQQQQAABBBBAAAECoBwDCCCAAAIIIIAAAggggAACCCCAAAIIIFBYAQKgha1adgwBBBBAAAEEEEAAAQQQQAABBBBAAAEECIByDCCAAAIIIIAAAggggAACCCCAAAIIIIBAYQUIgBa2atkxBBBAAAEEEEAAAQQQQAABBBBAAAEEECAAyjGAAAIIIIAAAggggAACCCCAAAIIIIAAAoUVIABa2KplxxBAAAEEEEAAAQQQQAABBBBAAAEEEECAACjHAAIIIIAAAggggAACCCCAAAIIIIAAAggUVoAAaGGrlh1DAAEEEEAAAQQQQAABBBBAAAEEEEAAAQKgHAMIIIAAAggggAACCCCAAAIIIIAAAgggUFgBAqCFrVp2DAEEEEAAAQQQQAABBBBAAAEEEEAAAQQIgHIMIIAAAggggAACCCCAAAIIIIAAAggggEBhBQiAFrZq2TEEEEAAAQQQQAABBBBAAAEEEEAAAQQQIADKMYAAAggggAACCCCAAAIIIIAAAggggAAChRUgAFrYqmXHEEAAAQQQQAABBBBAAAEEEEAAAQQQQIAAKMcAAggggAACCCCAAAIIIIAAAggggAACCBRWgABoYauWHUMAAQQQQAABBBBAAAEEEEAAAQQQQAABAqAcAwgggAACCCCAAAIIIIAAAggggAACCCBQWAECoIWtWnYMAQQQQAABBBBAAAEEEEAAAQQQQAABBAiAcgwggAACCCCAAAIIIIAAAggggAACCCCAQGEFCIAWtmrZMQQQQAABBBBAAAEEEEAAAQQQQAABBBAgAMoxgAACCCCAAAIIIIAAAggggAACCCCAAAKFFSAAWtiqZccQQAABBBBAAAEEEEAAAQQQQAABBBBAgAAoxwACCCCAAAIIIIAAAggggAACCCCAAAIIFFaAAGhhq5YdQwABBBBAAAEEEEAAAQQQQAABBBBAAAECoBwDCCCAAAIIIIAAAggggAACCCCAAAIIIFBYAQKgha1adgwBBBBAAAEEEEAAAQQQQAABBBBAAAEECIByDCCAAAIIIIAAAggggAACCCCAAAIIIIBAYQUIgBa2atkxBBBAAAEEEEAAAQQQQAABBBBAAAEEECAAyjGAAAIIIIAAAggggAACCCCAAAIIIIAAAoUVIABa2KplxxBAAAEEEEAAAQQQQAABBBBAAAEEEECAACjHAAIIIIAAAggggAACCCCAAAIIIIAAAggUVoAAaGGrlh1DAAEEEEAAAQQQQAABBBBAAAEEEEAAAQKgHAMIIIAAAggggAACCCCAAAIIIIAAAgggUFgBAqCFrVp2DAEEEEAAAQQQQAABBBBAAAEEEEAAAQQIgHIMIIAAAggggAACCCCAAAIIIIAAAggggEBhBQiAFrZq2TEEEEAAAQQQQAABBBBAAAEEEEAAAQQQIADKMYAAAggggAACCCCAAAIIIIAAAggggAAChRUgAFrYqmXHEEAAAQQQQAABBBBAAAEEEEAAAQQQQIAAKMcAAggggAACCCCAAAIIIIAAAggggAACCBRWgABoYauWHUMAAQQQQAABBBBAAAEEEEAAAQQQQAABAqAcAwgggAACCCCAAAIIIIAAAggggAACCCBQWAECoIWtWnYMAQQQQAABBBBAAAEEEEAAAQQQQAABBAiAcgwggAACCCCAAAIIIIAAAggggAACCCCAQGEFCIAWtmrZMQQQQAABBBBAAAEEEEAAAQQQQAABBBAgAMoxgAACCCCAAAIIIIAAAggggAACCCCAAAKFFSAAWtiqZccQQAABBBBAAAEEEEAAAQQQQAABBBBAgAAoxwACCCCAAAIIIIAAAggggAACCCCAAAIIFFaAAGhhq5YdQwABBBBAAAEEEEAAAQQQQAABBBBAAAECoBwDCCCAAAIIIIAAAggggAACCCCAAAIIIFBYAQKgha1adgwBBBBAAAEEEEAAAQQQQAABBBBAAAEECIByDCCAAAIIIIAAAggggAACCCCAAAIIIIBAYQUIgBa2atkxBBBAAAEEEEAAAQQQQAABBBBAAAEEECAAyjGAAAIIIIAAAggggAACCCCAAAIIIIAAAoUVIABa2KplxxBAAAEEEEAAAQQQQAABBBBAAAEEEECAACjHAAIIIIAAAggggAACCCCAAAIIIIAAAggUVoAAaGGrlh1DAAEEEEAAAQQQQAABBBBAAAEEEEAAAQKgHAMIIIAAAggggAACCCCAAAIIIIAAAgggUFgBAqCFrVp2DAEEEEAAAQQQQAABBBBAAAEEEEAAAQQIgHIMIIAAAggggAACCCCAAAIIIIAAAggggEBhBQiAFrZq2TEEEEAAAQQQQAABBBBAAAEEEEAAAQQQIADKMYAAAggggAACCCCAAAIIIIAAAggggAAChRUgAFrYqmXHEEAAAQQQQAABBBBAAAEEEEAAAQQQQIAAKMcAAggggAACCCCAAAIIIIAAAggggAACCBRWgABoYauWHUMAAQQQQAABBBBAAAEEEEAAAQQQQAABAqAcAwgggAACCCCAAAIIIIAAAggggAACCCBQWAECoIWtWnYMAQQQQAABBBBAAAEEEEAAAQQQQAABBAiAcgwggAACCCCAAAIIIIBAxwm89dZb5oEHHjBfffVVavu+1lprmc033zy1/MkYgTwJfPbZZ+b22283CxYsSK3YSy+9tOnfv7/p0qVLatsgYwQQyKcAAdB81hulRgABBBBAAAEEEEAAgSYEfvvb35rx48c3kUO0Vd9++22zyiqrRFuYpRAosMAll1xijjrqqNT38Oabb3aDoKlviA0ggECuBAiA5qq6KCwCCCCAAAIIIIAAAggkIaDWn1dddVXkFqA33HCDu9levXqZNdZYI1IR1llnHXPKKaeYRRZZJNLyLIRAkQV0M2Do0KFGLUGjpMcff9y88sorpnv37maTTTaJsorp1q2bOfPMM81yyy0XaXkWQgCBzhEgANo5dc2eIoAAAggggAACCCCAQEwBBTNnzZplHnnkEaMgKAkBBNIVOProo83IkSPNueeea44//vh0N0buCCBQeAECoDmq4ieffNLcddddTZV4jz32iHzHuqkNsTICCCCAAAIIIIAAAgUSIABaoMpkV3IhQAA0F9WUeCGnT59u7r777qby/fWvf2222267pvJg5eIJEADNUZ2qi84BBxzQVIk15srFF1/cVB6sjAACCCCAAAIIIJAtgblz55qLLrrI7Sbap0+fbBUuwdKoJZjG0/yf//mflncrJwCaYEUWIKuvv/7ajB071p3QZ+DAgQXYo/BdmDBhgnn22WeNgpFLLbVU+EIpvUoANCXYjGc7ZswYc8ghhzRVymOOOcaMGDGiqTxYuXgCBEBzVKdJBECPPPJItxtBjnaboiKAAAIIIIAAAgjUEHj99dfNNtts446VN3jwYDN8+PAaS+f7rTXXXNPdz3333ddceeWV5nvf+17LdogAaMuoM7+hzz//3Pz+9793J9HaeOONjcaqLGo69NBDzeWXX2569uxp7rzzTrPyyiu3bFcJgLaMOlMbIgCaqeooVGEIgOaoOgmA5qiyKCoCCCCAAAIIINACgZkzZ5qtttrKzJ492x2X8r777jNLLLFEC7bcnk288MILRgGn+fPnm5133tnceOONLdtfAqDtqfOsbXXevHmmX79+5v777zdLL720efrppws9xNinn37q3mCZOnWqOxnR5MmTW7a/BECzdvS3pjwEQFvj3IlbIQCao1oPBkD1hXvqqac2tAfrr7++2XbbbRtaJ0sLP/XUU+att94yXbt2NYsttphZfPHF3T8912vffPON+fLLL92/L774wuhPr62++urmF7/4RdmuqLWEunN06dLFbT2gHws2T+VVKpXcWUEXLlzo5fnVV1+ZZZZZxmyxxRZlefEPAggggAACCORfQMG1l156ybs2UOtCXWvoUX/2WkPXBrrGUCswXRssv/zybZkU54MPPjAbbrihe22k60Jd16y22mr5r4g6ezBp0iSz0047uUvtt99+bjfkOqsk8jYB0EQYyzLJ2zmn3xX9+/c3t912m7sfEydOdAPxZTtVwH/efPNNs95667k3Hnr06OFOBKbfRGknAqBpC2czf819opt5jSQF6G+44QZvFbrAexQ88Qs4QR5STgT+8pe/lJy68/6GDBmSk5InU0znB0bJubj39t9vUe+502WjohA77rhjrLy0LafVQUV+vIAAAggggAAC+Rb46U9/GvvaYMGCBS3deeeGb8lp+emV1wnEtHT77d7Y0KFDvX0///zzW1Kcn//85+42nVngW7K9TthIns451cdJJ53kHXeDBg3qhCry9tGZlMbb9759+5acMVC999J64sxf4W7TGfs3rU2Qb0EE/vrXv3rHp36vOwHQguwZu5GkAC1AnbMjLynYAtQJgJozzzwzL8Vvupy643rwwQebWbNmuYONv/jii+5dyGoZOxepZtlllzUrrLCC2XXXXc2f/vSnskWdi2Vz++23u3mpNai6jlVL3bt3N926dXP/NthgA6N1SQhkXeCzzz4zN998s3nuuefMyy+/7P7pvFlxxRWNWrFoHDUd27vssov7POv7Q/maF3jnnXfMLbfc4rZw0zGhljfvvvuuWXXVVd1jYq211jL67Nxtt93cz7vmt0gOCORLYP/99zevvfaa23tErTx1fqjnSbWk80WfqZtuuqm54IILqi2Wyusa1/3SSy918z7xxBPNWWedlcp2spqpJqBRK1A7U7DGJtxhhx1SLS4tQJPnzdM5p+EWdt99dxehd+/ebgu1Vo5Bm7x+4zmefvrpxrn54K6ox2HDhjWeSQNr0AK0AawOX/T66683++yzj6dAC1CPgid+gSSjqeSVrkCntwAN03U+5Mru9DjHdsnpllL66KOPwhav+dro0aMr8tKd/ldffbXmeryJQNYEdPyfffbZDbWY1rnkjGGVtV2hPAkJOF16S4cddljFZ5w+M6v9qZXLe++9l1AJyAaB/Aro/AmeJ+qRotfblR544AGvTE4gpqTWoJ2Y3n///dKPfvQj10ItCdNuhavrQh0LtABN92jL4jk3Z84c77pK57/TJTxdhIzmrlaf/l50aV870gI0owdCBotFC9AMVkoGi6RxDkk5ESAAWllR/q5f9seJM/5V5YIRXvF3pbJ5jR07NsKaLIJAdgScVn2lat3JnHHSSuomqOEznJaf3o9ne7zrkWM+O3WZVEnuuOOO0LrWD7hjjz3WPSaOOOII74ed/3jQMtOnT0+qKOSDQC4F9LnqPy/03JkVuW37ogCEhvaxZer0G7WXXHKJZ+G0Rku1XgiApsrrZZ61c04FU3dae8797W9/88raiU90XWAt9Fvs3//+d2oMBEBToy1cxgRAC1elqewQAdBUWNPJlABouavu8tsvX/uoVgBxk1pQ2Hzso9M1Pm52rIdAywWef/55ryWMPYb1qIvTDz/8sKw8zpASJafrZMUxr+WvuOKKsmX5J78Ct956a2gdH3/88SVnApeyHXNmeS0pSO4/dvRcQdDHH3+8bFn+QaCTBII/qnRejBs3rm0EzpBI3nk6YMCAtpUjKxt2ZuQuu4Gj4FlaiQBoWrLl+WbtnJsxY4Z3zum3RvD7s7z0nfHf9ttv75k4E8+kttMEQFOjLVzGwc8NxgAtXBUnskMEQBNhbE0mBEDLnf3dv+wPdv14j5P0w9/mYR/Vio6EQF4E1P3R/jCzx7Aee/XqVdLxXS1VC4LSva+aWH5ed8Z7rfhc0zExcODAmjvhjJlcsZ6CoJ988knN9XgTgaIKOGOIV5wTzni6bdldnYc6H+3n/EMPPdSWcmRto/6JafQZllay37N8R6Yl/G2+WTrnVKI+ffp455wz/0K6O5+T3J0xdz0TBYXTGn6CAGhODogMFJMAaAYqIQdFIACag0qyRSQAaiW+fXQG4fa+eO0PgWuvvbZ8oYj/3XvvvRV5HXTQQRHXZjEE2i9QLZB500031SyculL26NGj4vjfeOONS2olSsqvQFggU5+VzqQuNXfKmfCl4njQes4kKzXX400EiioQHFZEQbB2pYsuusg7P9UNnvStwNtvv+256PMqrWEBCIC25ojL0jk3bdq0smOLsbG/PQbU7d1//ajgUxqJAGgaqsXMkwBoMes16b0iAJq0aIr5EQAtxw0b/zPuhAQaM8oGUe1jp4/vU67Nf1kWmD9/flmLIHsM6zHKHXkFtvzr2OfObKdZ3m3KVkNArZNsPfof1WUtSlIA3L+efd6pkz5EMWOZYgq88sorFeeCxsxtV/IHHBizubwW/K0G0xoLlABouXka/2XtnLMBOH0Pxu1ploZTFvL0B5y22GKLVIpk/c8999xU8ifT4gj4j0edr3SBL07dJrknBECT1Ew5LwKg3wF/9tlnFT9Imhn/MyyYyvif33nzLNsCauVpA1T+x759+0Yq+Pjx40PX79evX6T1WSh7AvYHg/940PMRI0ZEKqwmRwquq/9HjhwZaX0WQqAoAsEfVDoP2nVz6LHHHvPOS3WDj3KDqyj1EGU//L15dE341VdfRVmtoWUIgDbEFWvhLJ1z+r3hH3Ji6tSpsfapqCsF52PQWPRJJ3s9QwA0adni5Rf87CAAWrw6TmKPCIAmodiiPAiAfgf94IMPej8C7I/0P/7xj98t0MCzsGAq4382AMiibRfYZ599Ks4HnRdRh3HQBb09j4KPal1KypeAhi7Qj/9gXer/qC3bFSgNWz+tFh75Eqa0nSSga4vguVBvGIm0fNTy1JYl7jVPWmXLQr76vrI+erzjjjsSLxYB0MRJKzLM0jn3j3/8wzummmloUbGTBXrBP4lsGkPlEAAt0MGS8q4QAE0ZuCDZEwDNUUUSAP2uss444wzvgsRe7F533XXfLdDAs7BgatTAUQObYVEEUhHQGEz+1gn2fNDjkCFDIm1TY6X51/M/T+MHZKRCsVBsgaeeeqpqfWrSgigpeBHpPyaYDCmKIMsURSArYxEGP+vHjBlTFOJE98M/fEcaQxUQAE20ukIzy8o5p8Ltueee3vepnpMqBXStaa8RdH4knQiAJi1a3PyC1660AC1uXTezZwRAm9Fr8boEQL8D32abbbwvW/ul+/LLL3+3QAPPNJujzcM+Rm0l1cBmWBSBVASCEz/YY1iPF154YaRtKqDlX8///IILLoiUBwtlR8DfYsVfl3r+xBNPRCqoAt/Bde3/jz/+eKQ8WAiBvAvousIe9/bxyCOPbMtuzZw5s6wsUc/leoXVRHi6aaJu/RpTVDdJPv7449DVvvzyy9L06dNLuuGs5fVcgdkspUGDBnlOaQRjCICmW9tZOud0bPt7U0S9pooipDkLJk6cWLr66qtLt9xyS6na+Noqw4svvljS97p+m6jRxsKFC6NsomXLBK8Xkp4kigBoy6oy9xsiAJr7KmzJDhAAbQlzMhshAPqtY9Jd1jUpiP1hYx8Z/zOZY5Zc0hfwj3lmj1/7GLVV9Oeff15xDtg8NKkEKV8CYZO62fqMeqNo8uTJVY8JXWCSEOgEAX2G2nPHPrZr/E8FSmwZ9JhEEGTcuHElG9Dz563np5xySknBUZtuu+22smCQXV7rR21ZbvNK81HltGXT4+zZsxPdnPXSRHOk5AWydM7NmjWr7Fh66KGHmt5h3TQIa8ShY3XAgAGlOXPmeNuYMWNGyd+i2R7X6vUTdTxvL7MUn6jMtmx6VEA3yUQANEnNYudFALTY9ZvU3hEATUqyBfkQAP0WOazLetwgjX5A+L+09ZzxP1twMLOJxATCfizYY/rvf/97pO1ozEi7TvBRF+qkfAmEjZ9m67VaK5PgHk6ZMqXqMaEhSEgIdIJA2LnUrvE/Nfu0PY979erVNL8mFLH5acK7a6+9tnT99deX/LPM77XXXu52Ro8e7S173HHHlSZMmFBS7wC7vh6fe+65psuURAYKePrLpbImmQiAJqlZmVeWzjm1iPYfS/PmzasscAOv+G9Y9+zZszRq1Cg3WKjzz25H599HH31U8o/Nvuuuu7otQHXDwi6nR90UyUryf27oMyLJRAA0Sc1i50UAtNj1m9TeEQBNSrIF+RAA/RY5bPzPuC2SdAfffzGh54z/2YKDmU0kJqBZuYPHsP1fXaaiJrtO8FEX6aR8Cfh/TAXrU0MmREnq5h5c1/6f9I+bKOVhGQTaIeDv/qrjX8GvdiV/gKHZcc0GDx7snt/aP91U9id9RvjHlT722GO9zwI7JrSGTbGBQPu5cP755/uzaetz/xiSp59+eqJlsfXw2GOPJZovmX0rkKVzTueZPb5V782k8ePHe3ldeeWVZa2rv/rqq5Juatht7bvvvl5ra/9Y7nvvvbe3jJbdeeedmylSouseeOCBXtm22mqrRPO29ZClz5hEd5DMEhMgAJoYZaEzIgCao+olAPptZVXrOqKLpkb//Bf59sKD8T9zdFJQ1FKt7s6NdNW0x3/wkRbR+TvINFN7sB7t/1Fbr/lbn9h17WPcFvf5k6TEnSyQtbEI7fmnR10Pxk12jGBd/2jsz7AUdhPFP/6hehf4y6PnJ598clhWbXnN32046c8r3QDS92LSXevbApWxjWbpnBNN3759veNcwce4yT/RpFpah6WLLrrI25Y9t3QeqoeOkobmsq/bxyRagoeVJc5r/omQkr5u1LWsPq8eeOCBOEVjnQ4SIADaQZXdxK4SAG0Cr9WrEgAtlcLG/7QXAkk9Mv5nq49stteMgH50Vjv2b7755shZV8tDNxVI+RLwtyQJ1uv7778faWc0wUpwXfv/PvvsEykPFkIgzwJhw4vcdNNNbdklTSpizz89NnJzy1/g+fPney3L7r77bv9bZc8POeSQsu3pe+CLL77wlgmbPDLprubexmI8Ucs465V0a7QYxWGViAJZOudUZH8r52YmP+vfv797PNa6SRB2U+GZZ57x5DT+qD2m7WOWemOodaYtlx79nxfeTvAEgZQFCICmDFyQ7AmA5qgiCYCWSmEXAHvuuWfp6aefbvgvrItn0nctc3R4UdScCtiujP4LT/v81ltvjbxXdp3gY/fu3SPnwYLZEPC3fgrW5wcffBCpkNOmTSv7MePP59BDD42UBwshkGcB/5ib9viP2oI66f0OtsiuFbystW3bY6BeUDDYAlQBT39Sy1Frokd1Uc3SbPC6SWPLx008f81l+3mWzjkdz/YY0mOt4GUtVf+4nx9//HHVRYMtQIPjr3/66adlAdkdd9zRHSu0aoYtfiM4SVvUCRdbXEw2V3ABAqAFr+CEdo8AaEKQrciGAGipFNbqIG6X9bBgahLjf2pc0fvvv78VhwTbQKCUdgCUH4/5O8jSDoBqkgoSAkUX0GefPwASd/zPuXPnltQav5ng6T333FNWlrjjT9p9qjdru13O7n9YV3l1AVeXVE3YEie99NJLJc3Y/vnnn8dZveY6dsxAW/6aC/NmZgSCx13cc07dxidOnNjUxFzBHmdxx5+0wXj/WJ5h4HY5e8xedtllFYstWLCgpN8Yr7zySsV7tV7QuL66aaKb4urdkcbwDcrbll2PuolKQqDVAgRAWy2ez+0RAM1RvREALZXCxv987bXXYtViksFUFUAXJv6Lbg1qTkIgbYFaXeBvueWWyJv3X7j6n+sHCSlfArW6wEf94UMX+HzVOaVNVkDBOf/noJ5rJuJG05QpU9zxIrX+WWed1ejq3vIKFPrLM3PmTO+9qE/U/V15aGK7Wq0133rrrbJtaew9Ow5h1G3VWk55XXXVVd42Hn744VqLx3pPEx/5vZIsf6wCsVJdgaTOOQ1jtf3227v1r8e4SYF9/zGkiYviJPt9/M4779RcXb1t/Nt79tlnay5f7021GD3ppJPKJjTz56/PAY1HqkBvEkk3Q/z567OPhECrBQiAtlo8n9sjAJqjeuv0AKhaCfi/XPW8mS7rYcHUqON/amwb/QDRndjrr7++pBZRwbIldVGRo0OUorZB4LTTTqs49uyxOG7cuMglsusEH5s5xyJvnAUTFVD31mA92v/r/QizBXn00Uer5qHZXkkIFFlAgQF7ztjHeuN/qpWVhuPRTOnnnntuacMNNyzL45RTTolNdsMNN5TlpW3FSdOnTy/VW1fji9p91uOAAQPibMpb58UXX3Rbg8lv0KBB3hikdhtq3Zp0Uus5m78edYOalG2BOOecupQ/99xzpfvuu680ZsyYUp8+fcrqvXfv3rF3OngjQJOHxUlqraky1kpqHe4/Xpu96aDvb127KU8FYC+99FK3Ffo555xTNrGT3tfnVNxW3P59Cg6LEXeYDn+ePEegUQECoI2KdebyBEBzVO+dHgAN67Ied3bPYNcWXQQ0EuiZMWNG2cWK1vcPlq7/CYDm6OTKcVF1YavjLexPg+pHScGxrvx56eKYlC8BO+GCvx7t8zfffDPSzqhVll0n+HjCCSdEyoOFEMirQNhYhJqIqFbaa6+9ys6ZYIuuZgKgwR91c+bMqVWUpt5TS1f/OT969Oim8lMwx59fcIiONAKgY8eOLdvmwoULm9oHVk5fIM45d8UVV5TVs441//HWTADUP3O7jt80J/nSzQH/OdLMTQeN822HEtCkUmFJQ3L4nXRONhsE1Y0O/z7EHaYjrLy8hkBUgeB3pXpmkhAIChAADYpk+P9OD4CGdVnXB12c9OCDD5Z9UetLu5HxPz/88MPSBRdcULr88stLGktLXU2CX/4EQOPUDOs0KhD8svdfgFa7+A1uQy2a/ev5nzfThSy4Hf5vjYBuDPnr0P886sQEalHjX8//vJmuvK0RYCsINCdgAwj2uI8yFqECJJrIRJ/Jzz//vFuAfffd1zuPmgmAqjW/LYse33jjjeZ2sMbaPXr0KNuWfybqGqtVfUutMXWjTi1LbRDZ75tGADR4YzCNcUar7jBvxBLwHxM6xqOcc//6179KI0aMKGkCHvXI0tBT/uB3MwFQ9Zbwn3NRbyjH2fmBAweWbauZmw72RowcaiW1aPXv3+67715r8brvBVuATp48ue46LIBA0gLB30QEQJMWLkZ+BEBzVI+dHgAN67Le6EDgtrrPOOOMsi9+XQTEnUzJ5kkA1Erw2EoBjbPkv4j1Px81alSkonzyySdV82DG70iEmVpo+PDhVetTXXSjJHXj9R9L/ufqjktCoKgCSY1FKJ+kAqCa0MV/DtbrUhu3bhSg9G9HrcTSGD/TH+xKIwAavMaL68F6rRFI8pxLKgCq7vX+c0Fd7NNKwR5kUb+ng+VRANiWWb+Zao0jqp4/wdbY6vYfNwUbliggTUKg1QIEQFstns/tEQDNUb11cgA0S+N/VjtkCIBWk+H1NAXU3cle8AYfNQ5dlBRs6eDPRy1pSPkSCM7G6q/PqD9Kgi3O/HmEzQidLyFKi0B1gbCxCNVlNE5KKgB67733ln3ORz2PGy1z0q3Cqm0/7QCohunwf2ZVKwevZ0MgyXMuqQCohk3wH0NRr6caFdWYvP7tNHPTQYFTf16aWb5WGjp0aNnykyZNqrV4zfeCN2nUOpeEQKsFCIC2Wjyf2yMAmqN66+QAaFgrN008FCc1O/5ntW0SAK0mw+tpC/h/TPovfgcPHhxp02ol4F/P/1wze5LyJRD8LPLXZ9QfOBrew7+e/znDe+TreOj00t5yyy2lnXfe2W3tdNxxx5U0G3qtFGcswmr5JRUADX5Ga+idNNIhhxxSdt6r+3qtpMmF3n///VqLhL7n/85KowWoJmqzn1kai5XUWoF2nnNJBUAl5h8nUzOqp5HUtd4eq3qs1xX966+/Lmksb7XgDKbg50S9vK666qqybcsubtKEsP79qDfZWtztsB4CtQQIgNbS4T0rQADUSuTgsZMDoGFdOqOObxis2rDJlBoZ/zOYn/0/GHQgSGBleExb4Mgjjyy78LQXofXu/ttyVRvvURf/X375pV2MxxwJBLvU2WNCP3iipGHDhoUeU/369YuyOssgkAmBK6+8suI4rjWJl3qb+IMeOm80JmbclFQAdO7cuWX7oRbaaSQ7c7T9vKjX2lszTGvZRicZSjsAqsCP3QfNDE5qnUC7z7kkA6D+LuJHHHFEKoj+YL2O2Xo3HU4++WT32FbDkGBSUHTHHXd039fnmCYzrJVOP/107zzRtjX0TdykIZfsOadHBWpJCLRagABoq8XzuT0CoDmqt04OgGoiFv8Xq55rzKA4KSyY2uz4nyoHAdA4tcE6SQgEu0fac0UX71FS2DmhPDSZDimfAtUCmCeeeGKkHQr7zNUxoYtLEgJ5ENDYlcFgpo7hrbbaqmrxg13AtbwmNoqbkgqAavv+fTnvvPNiFUk3ZjV2usYKDKbgOIzaXq3xP+3NZC3XaEo7ALrFFlt414xpBa4a3edOWD4L51ySAdA999zTO47iBtIVCHz11VdLai0dTApYNnLTQTdC7OfAzJkzg9l5/2ssT01uWS/17dvX2z991sWdV0Hb8V9zRJnAql7ZeB+BOAIEQOOodd46BEBzVOedGgANG/9TF89xU9gP+9dffz1udt56BEA9Cp60WEA/Zqu1+Ityo6Bnz55lF8G6ENbfo48+2uI9YXNJCWi2d1uP/kf92KoV1ND21aXVv459rh9e+gFW9KTWbGeeeaYbKFNLMs3unUTKW75J7HM78wh+J9vjuNaNneBkizrm63WZr7WPSQZAbWtL7ceAAQNqbTb0PR3T1kDXUPqM8CcFVe37eqwX8FFrcC03aNAgfzaRnqcZAPVPBKPyaZZwUmsEsnDOJRkAVbd3e07ECfSrRaUNWCqf4HeJrrFs/vYx7OaErT3djNFyG264oX0p9mOwrtRytJmkYUbsPiiwSmqtgMbyP+yww0r6ntBjUmOw5i1fAqCtPe7yujUCoDmquU4NgNpWBvaLVY8aoytOCgumKiCQRApeTNAFPglV8ogqoDHh/OeIfX7qqafWzEJdHO2y/kf9cCflW2DIkCGhdTt58uSaO6YueP5jwT7XD8tOSPrxYPfZPmpiqWZT3vJtdn/bvX7YtYPqs1q37rCW9Ooi2kxKMgB6zDHHeMdlo9ctGmfTHsv28cILL/R2TS3R1NXfvqdHjQdaLU2fPt1dVsGdOXPmVFus6utpBkCD4yDqOCC1RiAL51ySAdDghIKNNJb48MMPy84nnVPBIWSCwxfVGq9WN2LseZPE2Oz+zyaVberUqbEPEn1++AO9utlCap2AhqoKfn6rPl577bWmCpG3fLWzBECbqvKOWZkAaI6qulMDoMcff3zFRUTcH+K6++q/wNfzJMb/1GFEADRHJ1NBi+of98x/nFcb10kt/XTB7V9Wz3XhxAD2+T9I5s2bV9G9TvWrH1HVurppdung8aD/e/fu3RFjeql1bNj+77XXXk0dEHnLt6mdzcjKH330kVeXOubVLTps3DwVV593/h/wOgbUMv7jjz9uam/8QYZTTjmlqbw0E73/2Gwk8Bh2M8Q/jro/aGS3UW2ogDfeeMMLxOi6NE6ygRxtK+lJkLRfdh/0GNb1OE6ZWae+QBbOOf+xrO+tZtJ7771XdiwFW3DWyjvsprR/8tYZM2aU5W2P2bDjVd3Z7diee++9d63NRnov+FkyevToSOtVWyjY4+T++++vtiivpyAwbdq00GNJ4/E2k/KWr/aVAGgzNd456xIAzVFdd0IAVHeb9ENEwcQnnniidPbZZ4d+qKsljVpx6EtXFyhhE7Vo3B29p9kSdaGhmRb9F932YkMX+brzqW1q22EXH1EOEwKgUZRYJk0BtXDu379/6Dmj8ZnsD2adG+PHj6+4Y6xzQueIWtCQiiGgYEXY8AiqZ/1QtOOEffrpp6VLL720IgikY0I/Ij/55JNigNTZi2D3Wfs90eyPzrzlW4cpN2/bSUwOPfTQqmX+4IMP3GPc1rUetZ6COc2mJAOg6oroL6NarEZN6gngX1fBXu23kq6lbPA3+P0RDADrmst+nmiSvbgTnfivxZIOgGrMT7uvCnqTWivQ7nNO32u2/psNgErOHu/KU9dRUZN6Wthy2Ed7zqp1qHXSUBP2fT0qcOpPGnZGQ17oPd2UmT17tv/thp8/88wzZduLexPDv2FNyubfh7i/o/x58jy6QNhQCqqPZus2b/lKjABo9OOmk5ckAJqj2i96AFQ/xO1FuP+LNMpztXwLpuBFRZR8tIwuzONc1BMADdYA/7dDQIGWsK62UY5/XVxHGTO0HfvFNuML6EaQf1KQKMeCXUY/vDrtx8yuu+5a9mNOFgoON5vylm+z+5uF9dX63R7L6m4aHM9z4sSJFTdGFTQJBv7i7kuSAVCVwd9i/4ILLohcrGDL7jFjxpQee+yx0rnnnuv5HHfccW5+/rH8ZKEApVp0HXvssd6yCjLWG0u4VuHSDIBqfERb540ErGqVl/eiC7T7nEs6AOq/ntK5ETXppqL/N42G7tLNBrVQthMfabxG3bg+//zzvWNW58aNN97ozuCuYSpsHjoXm70p8/zzz5d93jXSorXWfmscYHvOcdOhllQ67+kY8n+m2rrQUCXNpLzlq30lANpMjXfOugRAc1TXRQ+Aqrum/aLXh7ee6wNdFwq66NddWD3qf73uXzZsEP7gD34tHyWvuHeMCYDm6GTqgKKqpc7AgQO9i1J7QRT2qIk/1OpA4ziRiivw8MMPu2OQhR0DwdfUVU8tRToxqaW0JsrRd4b+Bg8eHDprdqM2ecu30f3L6vLB7p4ah0+B/eAPRl1jaBb4ODdAq+170gFQ/0zLmtCxkXTttdeWXTf5z/lRo0Z5WalHjT8w6l9O54OCNc0mv32SLUB1Hekvr3r/kFov0M5zLukA6H333Vd2TCmwGTWpd5m/Ban/2DzwwAPLbi6qV47/vPAvq++jRrYbVj7NGm/z12OSk1z6J2i74oorwjbPaykLKNipyad03Oi3sno9JpHyli8B0CRqvfh5LKJddE4WUg4ErrrqKnPAAQd4JXXGdDLOQNPe/zxpr4DTcs6svfbaXiGcSZDM97//fe9/niDQDgEdh84wEMYZvN843aGN043SLLPMMmb11Vd3/1ZbbTWzwgortKNobLNNAk7rtrJjwumOZ1ZaaSXveNCx8YMf/KBNpWOzCCQvoO9nZ5w747T4NLNmzfI24PxwN7/61a+MMxSOcVromkUXXdR7L4knTqsv4wQe3aycMUCN0xW9qWydSS3Mz372My8P58arWWuttbz/6z3R94ETcDTOGMDGaQ1rnNaSZrPNNjM//OEPK1bV98X//d//GedmmlliiSWME8hxnZwgaMWyjb6gzxunK6+7msqz7bbbNppF6PJO8MUcfPDB7nuqW6fla+hyvJi+QLvOuWuuucbsv//+7g46DRqMM+5vUzvr3Bh2r+11zig5AVaj8zpq0vrO5FDGCUAaZ9x19zzafPPNzaqrrlqRhRPAN043eaPz2unNY9Zcc033/AxbtmLlGi84NwLM1ltv7Z5zOi9uuukms8oqq9RYI/pbzz33nPnFL37hreC0Ug39PPEW4AkCKQpcf/31xhmexduCM3mgGTFihPc/TxBwBYof4y3OHha9BWjea4oWoHmvQcqPAAIIIFB0AbXwVFfSZrpwRzVKugWotusf3ufEE0+MWpRMLWdbojk/RBKbBEk9GPyt7ZxGA5na504uTCvPuaRbgKre/C2iNXZnnpJ6cqjlts41tSRduHBhRfE1KaKGEtO4pY0m/5i7GheYhEA7BWgB2k79/GybFqA5CoTTAjTblUUL0GzXD6VDAAEEEECglQJJtwBV2Z3uxW5rVT1Xa0y1pFQLzTylNFqAquWcvyWpM3GbWXbZZfPEQlkTEEi6BaiKpJ4zP/nJT7zSOd2CzQYbbOD9n9UnTz/9tFFrU7X2doK45vjjjw8tqjOJkXGGBXFbh/vPodCFfS/qHPO3Htc5qJamJATaJUAL0HbJ52y7+YnVUlJagGb7GKAFaLbrh9IhgAACCCDQSoE0WoBqjM4ePXp44xLecMMNrdylRLaVRgtQ/wz2Z511ViLlJJP8CaTRAlQKhx56qHfO6XnW07/+9S+v5acmVaqV7ERPb731Vq3FKt7T5IBO2MP9a3RM4orMeAGBBARoAZoAYgdkQQvQHAWsaQGa7crSmD0aI8smxgC1EjwigAACCCDQeQJ/+MMfjPODzN3xJMYAtYLOrOxeSyuNX+pM1GLfysVj0i1A/WOjOpNduuO8MgZ7Lg6FxAupMTqdSfzcfJMYA9QW0JnEzh1/V60plebOneuOp27fz9Ljk08+aX7zm9+4LT81BqKeB5PGJv3iiy/ccUmdCTPdt/XaIossElw09H8tq3kP7Niozz77rFlvvfVCl+VFBFolQAvQVknnfDsdEOQtzC7SAjTbValZtJ2PA+/PGRg82wWmdAgggAACCCCQioDGGPXPjrznnnsmuh3lZ685kpxJPdFChmTmBJK8cqv8Y8aMCVmqsZeOPPJIL896rd0ay5ml8ybgTBDrHQtOMLz0+eefJ7YLOlbtOedMaJZYvklm9MQTT3gtP21Zozw6weKGiqHzzOar84+EQBYEaAGahVrIfhloAep8eucl0QI0WzV11FFHuXdXFyxYYN577z13lsdgCbfZZht3hu0ll1zSdO/e3Zx88snBRfgfAQQQQAABBHIuoFaY//u//+u2qlIrMc1Abmc6t7um64D111/f/OAHPzCLLbaY0XVEz5497dsNPTrdVb2ZpJWvM9mJ0bVG1tLll19upk6datQrRq3mNCu3bUVny+pMLGPWWGMNs9RSS5muXbuaSy65xERtwamZ6tXST0mtYTUOYdRWbHb7POZT4O233zZqWe1MsmQ0g/rLL79sNO6lP2mc3C233NIdD1bH1I477micCX/8i0R+ru1suummRmOAKmWt1eO7775r1llnnYrzK8oOHnLIIWb06NFRFjUff/yxWXfddd3PN/m++uqrZvnll4+0LgshkKYALUDT1C1O3gRAc1SXBECzVVm6yJg1a5Y7CYEuqvRjRn82OeN0Gf05d5/di5G+ffuaCRMm2Ld5RAABBBBAAIGCCNx0001mt912c68JtEvB64LgNYGWeeyxx8wmm2yip7GSuterm73S4MGDzfDhw2Plk+ZKCvIqoKlASdBE2w26aLn3338/UgDUmdHaDSjbazGn540XFE5zn8g7GwJvvvmmWW211dzChB1f/mNLCynwfsEFF5hjjz029g4o6PnLX/7SXV+B9/ud4SgWXXTR2PklueK0adPMRhttFCvLkSNHGqclZ6R1DzjgAKPfpEp33HGH6dOnT6T1WAiBtAUIgKYtXIz8CYDmqB4JgOaosigqAggggAACCCCQssCgQYPcGZ61GadbqjdDfMqbbXv2Tic7o0DM1Vdf7ZbloYcecme8bnvBKEDhBSZOnGjUqEFJAf6LL7648Ptsd/C6664zzuRu7r/nnHOOOeGEE+xbPCLQdgECoG2vglwUgABoLqrp20ISAM1RZVFUBBBAAAEEEEAgZQF1y/3tb39rbr/9dndLzbYqTbm4iWWv1q5//vOf3fycsRnNQQcdlFjeZIRAPYGzzz7bbXWt5ZzZ0M3hhx9eb5Xcv6/WrltvvbW7H3vttZdRsInhJnJfrYXaAQKgharO1HaGAGhqtMlnTAA0eVNyRAABBBBAAAEE8iygscg1ruGkSZPcruYao3CttdbK8y7VLLv/R6661x9xxBE1l+dNBNIQcCZCMsOGDXOzHj9+vNlll13S2Ewm8lTX/80228wdRkDBz7Fjx5YN+5WJQlKIjhfwfzcI45hjjjEjRozoeBcAygUIgJZ7ZPo/AqCZrh4KhwACCCCAAAIItEVA4x0efPDB5pprrjEKzGhymKKmZZZZxg3E/O1vfzO///3vi7qb7FcOBEaNGuW2/tR4oJrgq6hpwIABZty4cW5A6bzzznMnKyvqvrJf+RUgAJrfumtlyQmAtlK7yW0RAG0SkNURQAABBBBAAIECC2hWdM2ovsoqqxR2Lx988EGz+uqru3+F3Ul2LDcCL774ojvhac+ePXNT5kYLOnPmTKOW5nEnWWp0eyyPQBwBAqBx1DpvHQKgOapzAqA5qiyKigACCCCAAAIIIIAAAggggAACqQsQAE2duBAbIACao2okAJqjyqKoCCCAAAIIIIAAAggggAACCCCQugAB0NSJC7EBAqA5qkYCoDmqLIqKAAIIIIAAAggggAACCCCAAAKpCxAATZ24EBsgAJqjaiQAmqPKoqgIIIAAAggggAACCCCAAAIIIJC6AAHQ1IkLsQECoDmqRgKgOaosiooAAggggAACCCCAAAIIIOAJfPbZZ+b22293J1XyXkz4ydJLL2369+9vunTpknDOZJdlAQKgWa6d7JSNAGh26qJuSQiA1iViAQQQQAABBBBAAAEEEEAAgQwKXHLJJeaoo45KvWQ333yzGwRNfUNsIDMCBEAzUxWZLggB0ExXT3nhCICWe/AfAggggAACCCCAAAIIIIBAPgTefvttM3ToUKOWoFHS448/bl555RXTvXt3s8kmm0RZxXTr1s2ceeaZZrnllou0PAsVQ4AAaDHqMe29IACatnCC+RMATRCTrBBAAAEEEEAAAQQQQAABBDIrcPTRR5uRI0eac8891xx//PGZLScFa78AAdD210EeSkAANA+19P/LSAA0R5VFURFAAAEEEEAAAQQQQAABBGILEACNTddxKxIA7bgqj7XDBEBjsbVnJQKg7XFnqwgggAACCCCAAAIIIICAX+Drr782Y8eOdSf0GThwoP+tQj2fMGGCefbZZ42CkUsttVRL940AaEu5c70xAqC5rr6WFZ4AaMuom98QAdDmDckBAQQQQAABBBBAAAEEEGhG4PPPPze///3vzfjx483GG29sNFZlUdOhhx5qLr/8ctOzZ09z5513mpVXXrllu0oAtGXUud8QAdDcV2FLdoAAaEuYk9kIAdBkHMkFAQQQQAABBBBAAAEEEIgjMG/ePNOvXz9z//33m6WXXto8/fTTZo011oiTVS7W+fTTT80222xjpk6d6k5GNHny5JbtLwHQXBwimSgkAdBMVEPmC0EANPNV9F0BCYB+Z8EzBIouUCqVzH333WfUwuB73/ueWWyxxdy/xRdf3H3s0qWLUderL774wnz55Zfe47///W+z4YYbmh//+MdlRE8++aR55513TNeuXb18bF567ZtvvnHzUV4LFy50n+u1n/3sZ6ZHjx5lefEPAggggAACCCCQhMALL7xgXnrpJaPrGl3v6E/XJ/a5vUbRtYmueXRd9NVXX5nll1/e9OrVK4kiNJSHro369+9vbrvtNne9iRMnmp133rmhPPK48JtvvmnWW289M3/+fPe68JFHHjHLLLNM6rtCADR14sJsgABoYaoy1R0hAJoqb7KZEwBN1pPcEMiywLRp08xGG20Uq4iaJVOzZdqkHw3f//737b8NPerHhS5ySQgggAACCCCAQNICq666qnnrrbdiZbtgwQKz5JJLxlo37konn3yyOeOMM9zVBw0aZM4+++y4WeVuvXvuucdsv/32brn79u1rbrnlFvfGepo7QgA0Td1i5U0AtFj1mdbeEABNSzaFfAmANo+q1nEau0ZdOF555RX3jvOLL77oZqxWbmuuuabbteM3v/mN6d27d/MbJAcEYgqoteZBBx1kPvnkE/Pxxx+bGTNm1MxJx6/uxK+44ormxBNPNJtttpm3vFqKHnjggebll192B+rXMa87+NXSz3/+c7PsssuaFVZYwT+n2r8AADqjSURBVOy5557mD3/4Q7VFeT1nAjqu9INFrW10PKjlzbvvvmv0A3SdddYxa621llH977bbbqZbt2452zuKiwACzQqot8Bdd91lXnvtNTNr1iz3b+7cuWbdddc1a6+9tnud9Ktf/crssssuZtFFF212c6yPgNl///3d400tK3XDVt9JtQKi+o7Stc6mm25qLrjggpYK3njjjWb33Xd3t6nfCeqpo5aqnZROP/10M3ToUHeX9Ths2LBUd58AaKq8hcqcAGihqjO9nXG6WZJyIvCXv/yl5BwJ3t+QIUNyUvL2F9PpKlP629/+VnKCRJ6f3zLsuXNhU7rjjjtKTtC0/TtACTpeQMfwj370o4rjd/jw4SXnB0PDPgMGDKjIywl2lpyAa8N5sUL2BZyAZ+mwww6rqPOwzz772kknnVR67733sr9zlBABBJoWeOihh0pON97InxE//elPS2PGjCl99tlnTW+bDBAICug7y34X2UdnrM2SXm9XmjNnTkllUHn06HQJb1dR2rpd56Z6accdd/Tqxxn/NNXyHHXUUe62nJ5NqW6HzPMv8Ne//tU7LnWeHnPMMfnfKfYgcQFagDpnR14SLUDj1ZRzcW5+97vfuS0/gzk4X+Bm6623dscSUosH5wdAcBG35dzo0aNT7+JRsWFeQMAnoON4qaWW8r1i3IH31TpU42M1mjbffHPz8MMPl62mlqFqAUgqlsCkSZPMTjvtVLFTmrhBLYNXWWUVt/XNtddeW9EyWMs88MADZoMNNqhYnxcQQKAYAqeeempoKy71LNhjjz3MEkssYTQsyz/+8Y+KHdaY03fffbdZbrnlKt7jBQTiCqiXlnpl+ZNmIh81apT/pZY+P/bYY82FF17obtNpVOHOAN/SAmRoY2oprnNfaauttjL33nuvWWSRRVIpIS1AU2EtZKa0AC1ktSa/U4mHVMkwNQFagDZO63TzLTmzFpbdDXLOIrcl3VNPPVWRodOVxbu7q+Xs37777ltSCzwSAu0ScIJQ3vFoj8v99tsvVnF0Xtg87KNa85CKJ3DrrbdW1LXq3BkntuRMJlG2w84sryUdU/aYsI9q6fL444+XLcs/CCCQfwH1cHHGMKw453Xu33DDDRU76HSLLzlBj4rle/bsWZo9e3bF8ryAQFyBYEsuHZPjxo2Lm13T6znDEHnHvXrjBL8/m95ADjNwxgL1TMI+L5LaJVqAJiVZ/HyCnxu0AC1+ncfZQxNnJdZpjwAB0MbdndZN3pez/8e809KtamZOK4eKdbTuOeecU3Ud3kAgbQFnzKWK49JpsRdrs5MnT67IyxlvNFZerJRdAX3O2c89/+PAgQNrFnrXXXetWE9BUIZHqMnGmwjkTsBpLVNxruuz4uabb666L/PmzSvphpn/M0XP1SWWhEBSAn/6058qjjFnDOuksm84nz59+njlOfPMMxtev4grOHMqeCYKCjsTUqWymwRAU2EtZKYEQAtZrYnvFAHQxEnTy5AAaGO206dP976Y/Rfq+iKtl4444ojQdZ2B2eutyvsIpCLgdDGqOCbjjoXlDFhfkZfGyCUVSyAskKnPwnqfY87kExXHh9ZzJtcqFhB7g0AHC6jFd9i40horvV5yusKHfkZo3HQSAkkIBIPszsRHSWQbK49gwwjGxv6WUS3I/XMrKPiURiIAmoZqMfMkAFrMek16rwiAJi2aYn4EQBvD9Q/Q7Q+AOuMe1s1IF/H+dezzI488su66LIBA0gKaZMIeg/ZRP1zjpi222KIiv9dffz1udqyXQYFHHnmkoo517KjLWpS08cYbh67fqZM+RDFjGQTyJKBeLfb7xP941lln1d0NZ+zp0HUVpGLiyLp8LFBHwBn/s+L4UsOEdiUbgNN5EnfooXaVPe3t+gNOurZMI1l/JkFKQ7dYefqPR52vdIEvVv0mtTcEQJOSbEE+BECjI6uFk/+C3v/8m2++qZvRhx9+GLq+uoF++eWXdddnAQSSFEhy/E91UfKfD3rO+J9J1lY28rI/GIJ1PWLEiEgFdCZ7qDhOlNfIkSMjrc9CCCCQbQEFK4OfD/p/6tSpkQqucT/D1lfvGxICzQgEgxg6zm688cZmsoy9rm5A69rfHutRz4/YG8zZisFryueffz7xPbDXMwRAE6ctXIbBzw4CoIWr4kR2iABoIoytyYQAaHTnq666yrtYsRctemwk0ONfz//cmekwekFYEoEEBM4444yK4/m6666LlXNYMJXxP2NRZnYl3eQJ69qqz7GoQx0oUOr/3LPP02rhkVlMCoZAAQUUpLDndPAxam+Avn37huahIVZICDQj8Mc//rHi2Ko3dEsz26u1rn+4h2Z63tTaRt7f6927t1dfaQyVQwA070dI68pPALR11nneEgHQHNUeAdDolbX77rt7X8b+i3t164yaguMP2XzS+HKPWiaW60yBbbbZpuJ4fvnll2NhhAVTowbFYm2QlVou8NRTT1UcL/bzS5MWREnBi0i7vh6ZDCmKIMsgkF2Byy67rOpnxPz58yMVPGySGn0+NHKdFWlDLNRxAsHr73aO/7nnnnt654qekyoFhgwZ4hmlUVcEQCvNeSVcIHjtSgvQcKdOf3URATgXLKQcCDitGs0BBxzgldT5wjHOTITe/zz5TmDNNdc0zhhC373w/585LRbMhAkTKl4Pe+HXv/61cbpyVby18847m4kTJ1a8zgsIpCHw+eefmyWXXLIsa6cVgnn//ffLXov6z7bbbmucVsxlizstfsxqq61W9hr/5Fdg3LhxZsCAAaE78MQTTxh9ttVLkyZNMjvttFPoYo8//rhxghyh7/EiAghkX+Dwww83o0aNCi1o1J8Fzs1g44wjGprH119/bbp27Rr6Hi8iUEtA1+66hvcnZ/x94wy/4n+pJc91Lqy88spm9uzZ7vYuvPBCM3DgwES27dzENk5LbDfvH/7wh2ajjTYyTuC3Im+VQcs++eSTRueVltlkk03M4osvXrFsu14IXi84k0SZlVZaKbHiHH300W79O13gzfHHH59YvmRUPIHrr7/e7LPPPt6OOQFQ4/Ro8v7nCQKugPPBSsqJAC1Ao1VU2IQxzsHu3p1Ut5qoyd+lw66vR92ZJiHQKoEHH3zQu7Nuj8NGjmN/OZ1gakVeHM9+oWI8VxdUe6wEH6O2HJ48eXLVPHSHnYQAAvkVCJsIT58VjXTxPfXUU6t+RmgSGxICcQQ0vE/we6td43/OmjWrrCwPPfRQnF0qW0dj5Ib16tE+OzcuS3PmzPGWnzFjhtuiOuihMUmjjuftZZbiE5XZX8Zbbrkl0a3RAjRRzkJnRgvQQldvYjtHF/jEKNPPiABoNGP9wPd/EfufH3LIIdEycZbSbMn+df3Pv/rqq8j5sCACzQiEdVmPG4B6+OGHK45pxv9spnayuW7Y+Gn28yvqLO5TpkypOFZsHjomSQggkF+BamMEd+/ePfJODR8+vOpnhG7ckRCIIxD2/dWu8T/Hjh1bdozPmzcvzi5562gOAfs9qknEnFbYJQUL+/Xr573eo0eP0kcffeRORmaX3XXXXUsai9Tp3eEtp/euvvpqL+92P1G5bXmPO+64RItDADRRzkJnRgC00NWb2M4RAE2MMv2MCIBGM9bdVfslHHw87LDDomXiLOV0da+aj/8ObeQMWRCBGAJhLQXitq5xuitWHNOM/xmjUjK+iv/HVPAz8O23345Ueqebe8WxYvNK+sdNpAKxEAIIJCZgz+XgYyMB0AsuuKDqZ4Qz1FBiZSWjzhIIBufTGFMyqqjGD7TniAJ8zaTx48d7eV155ZUlpzu7l50aVfTq1ct7f9999/UmMtT4mjbtvffe3jIql36nZCUdeOCBXtm22mqrRItl6+H8889PNF8yK54AAdDi1Wkae0QANA3VlPIkABoN9r777vO+hO2Fi310xhGKlomzVLUZTpVX3ABU5I2zIAKOQLXhHPQDIc6fPQ/8j1Fn/KVC8iNQrXur6j1qS5qpU6dW/RzV5CckBBDIp8AXX3xR9dxuJNikLrj+7xL/87i9FPIpSqmTEgjrwdXIdXtS5bD5+H8HKPgYN7366qveuXLttdeGZnPRRRd5y9hzSTczv/nmG3d5XavZ1+2jgqZZSf6JkJIeWklDIKjb/wMPPJCV3aUcGRUgAJrRislYsQiAZqxCahWHAGgtne/eu/vuuysuEuzFgjN4+XcL1nnmv/Cx69tHjQtEQiBtgbDxP+0xmMRj0hepaXuQfzQBf0uS4HHiTJ4VKRNnsqSqn6POAPOR8mAhBBDInsCCBQuqntuNtHJzJoSpmk+WuuZmrwYoUTWBsPE/b7rppmqLp/66bgjY79BmArH9+/d38zn55JOrlvnvf/+7ty27zWeeecZbXuOP2tftY5Z6Y6h1pi2XHnWjhYRAqwUIgLZaPJ/bYxZ451M6L4lZ4KPV1D//+U/Tp0+f0IUbmQ3ut7/9rXG6rITmw6zZoSy8mLCAM8aa+fOf/1yWq3ORaXbYYYey16L841w8G83860/O+J9mzJgx/pciPdfM9M5NAHdm0m7durkzyK+66qqZmpU00o4UdCHNEOu04Azduw8++MCssMIKoe/5X3SGEqk6W/yhhx5adQZpfx48RwCB7AnMnz/fLLPMMqEFcwKg5rnnngt9L/jixRdfXHVG7BtuuMHssccewVX4H4GaAvvvv7+55pprypZxei24M7GXvVjln48//tjMnDnTaJ0f//jH7rWJHrt27VpljeovOz/rTZcuXbwFnOClOe2007z/oz5xeqUZZygjd3GVT9dMYSl4PmkdZzJCb1HnxoXZcMMN3WsvvbjjjjsaJ2hqNIN8vfTOO+8YZ0IlozycG9+uy4orrlhvtYbed8ZLNc74rd46mrneGVLD+58nCLRCgFngW6FcgG3kM27bmaWmBWi0ep80aVLZXUjnNPX+1zgyUVOtcfSizqQcdVssh0CYQNj4n3G7rJ955pneeWDPiUbH/9QkSrVaF2qMXX+LhbB94rX0BTbeeOOKurZ17gRAIxVg2rRpVfPQJBUkBBDIp4AmcrGfB8HHRlqAhnXZtfmpJR8JgUYF4oz/qS7iOt7Uo8Uef/5H5anrn/fee6+h4gSHIIo7/qR6TKg8/rE8wwpil7Nlv+yyyyoWU+vtRx55JNIwXJ9++mnppJNOcruO2zz9j5qESd3xtZ9JpFtvvbXMX9cQJARaLUAL0FaL53N7dIHPUb0RAI1WWbW6wDcSAKULfDRvlkpHwGllWXYxqQvXZrqsNxNM1Q8Mp9WfWx6Nw3TEEUeUnBY+7sWzhpUI/mipNsZVOlLkGhSoFaSePXt2cPHQ/+kCH8rCiwjkXiCpLvC1xgClC3zuD5OW78BLL71Ucc2j2b9rJX2f2TGvdX00bNiwkrrMa3b1/fbbryw/XbtoktSoSTOx+wOGmrgoTrLfx04rzJqrawIy//aeffbZmsvXevPRRx/1AsLa/qWXXlq6+eabS5oIM/jbxmlV6s46Xyu/KO9pfE5/+adMmRJlNZZBIFEBAqCJchY2MwKgOapaAqDRKuv+++8v+xL2fyErcBM1Od3oq+bz2muvRc2G5RCIJRA23pNm2YyTgi0ZdE40Ekw9++yz3XNBQdSwVhRz5swpBVtM6yKE1B4BzcDq/9zzP6/3I8yWWD+g/Ov5n8c9Dm3ePCKAQPsEvvzyy6rndiOTIJ133nlV83G6IbZvB9lyLgV049T/PaPntcb/1I1Ze51+7LHHho45qR4p/nE8FQR96qmnIvm89dZbZeX5xz/+EWm94EKaNNUZViL4ctn/mpzQv+8qp538qGzBCP+ol4e9KV2tJbaCodqG3aZ6jSjg20ySq81Pj2qMQkKg1QIEQFstns/tEQDNUb0RAI1WWf/617/KvoT9X8iHHHJItEycpbbffvuq+TR7oRC5ECzYsQJhXdbjBhXDJlNyxv+MZKsfEDqH9CNCLYeqpa+++qqk7pP+8y3qD41qefJ6PAE74YK/LuzzN998M1KmGu7ArhN8POGEEyLlwUIIIJBNgeA5bf9XK7So6ayzzqr6GTFx4sSo2bAcAq5AsMWmjsmwG66W64orrnCPP61XK/lnYFeeCg4uXLiw1irue8H1JkyYUHeduAso0GvPQT0OGDAgblalvfbay83LGZOzZh4K6Pq3ufvuu9dcvt6bL774Yll+jz32WL1VeB+BxAUIgCZOWsgMCYDmqFoJgEarrOBFi/8LvpGx62y3Gv/69nncO7PR9oClECiVwrqs69iOk84444yyC1Mdx1HH//TP9Dt06NCam7/jjjvKttNIi+uaGfNmQwJ/+tOfyurBfm7pMer4xc7EDVXzUOCDhAAC+RWoNV5i1L1Sd2P/Z4v/uW6gkBBoRMC2WrTHUb3WyLYrt9a78cYba25q0KBBZcdqlNac6i1hy6JHzdKeVtJQQv5tjR49OtamdCPa5qNryFrd6P/973+XguOFq9Vr3BRsAepM4BQ3K9ZDILYAAdDYdB21IgHQHFU3AdBolVWre1cjdzg1Lo69kPA/NtJCIlqJWQqBcoEsjf+pc8Z//D///PPlhfX9FxxbThfXpNYLDB8+vKzO/PX39NNPRypQMJjtz0Pjv5IQQCC/AtV6uKhbbNQUDCr5PyOaCaRE3T7LFUeg0fE/Fbzzd+FWEFSvVUvBuQEGDx5cbVHvdWfG9rLv0TFjxnjvJf3E301f51HU7+lgObSe/zzUxEq1km5q+5fXJLJxU7CnkSZrIiHQagECoK0Wz+f2CIDmqN70he3/ompkQp8c7WYiRQ12xbVuGi8oagpekNg8dt1116hZsBwCsQTCxv9Uq744qdnxP9UVyx77eqx3Ye5vxaHnpNYLBGdj9ddf1B8l48aNK6t3fx4MbdD6OmWLCCQpoOtH/zntfx51O2rh71/PPldgqlYwKmr+LNc5AmHjf2qcymopGADVMafWj9WSbtza41OP9brNKx91k/evc+6551bLvqnX33777bLtaF/i9jJTi09/mes1+rjqqqvKlq/Xbb7WjmrYC/+2NRwZCYFWC5x22mllx6EmcCUhEBQgABoUyfD/tACNXjn77rtv2Qeg/VJupEWa/+6yXV+Pp59+evSCsCQCMQTCWvBVG8y+XvZhwdSo438qb3Vjssd/vXGpgj8YGjnf6u0H70cXCI7FZetPj1FbeFx++eVevfvX13MF1UkIIJBfAQU6gue1/X/evHmRdix4c8yur0nYSJ0tcMstt5R23nlnt4v1cccdV5o/f35NkEbH/1Rm/jFoNct5rRScofzEE0+stbj3nv93wEknneS9nuQTda23544e6wUtv/7665LG8g67yaDXdtxxRzc/lb3eUBT6PePftnp+xE2a+MyflwK7JARaLUAL0FaL53N7BEBzVG8EQKNXlsYD8n8R2+dRW6R98cUXoesrn2nTpkUvCEsiEEMgrHti1LEbg5sLm0wp6vifNi91bdcspfXSE088UXbexG21Wm87vF9foFoLdrX4iJKqje/Xr1+/KKuzDAIIZFgg2OrMXiPpsdYwJ/5dqjZO+kUXXeRfjOcdJnDllVeWXQfomKo1cZ6G/PEHGrW8enFFSR9++GHpk08+qbuofyxz5a8gSZTkHyMzrTHNDzzwwDKvyy67rGbRTj75ZHf5KVOmVF1OQ1Dod0y9ZMdRlYn+NGN93DRq1Kiy/VCgloRAqwUIgLZaPJ/bIwCao3ojABq9stSCwX6hBx+jXCzpwiK4nv7XxAFhd12jl4wlEagtEDb+Z9TAfVjOYcHU119/PWzRpl/TJGP+86Ze64OmN0gGVQWqBTCjtnwJO25Ut1F/OFYtGG8ggEAmBKoFMKO0AguO9+z/3H815mR9mUChEE0JqOt2MJipY6NWq+DgbORaPskgurrGa+x+e4yqfPVapFqEPffc01uvkSG07Pp6VCBQ54TOmWDS74nghGS1hpiZO3eu5ztz5sxgdg39H+wpopajzST/NUe9Caya2Q7rIlBLgABoLR3eswIEQK1EDh4JgDZWSYcccoh34WIvfPQYpStxtfGxzjvvvMYKwdIINCgQFnyPMl5V2GbCgqm62E4j6WLcf571798/jc2QZ0QBtRj214d9rvqvN77Y+++/H7qufjjqB1jRk4ZyUMtp/WhXd8QJEyYksst5yzeRnSaTzAoEu97azwjdyKqXqo0zHDdIVG97vJ8PgWBQzR5TtXqDaLZyu5weGwlQRlEJDvdQr7u8P091e7dlU7kaTbqZoPVsHsHvkkcffdR7zy5TayxTBYa1nCZpbTYFhwqbOnVqU1lqyAO7D2pZSmqtwDvvvFM67LDDSr169XIfkxqDNW/5EgBt7XGX160RAM1RzREAbayy3nvvvbILD/vFrFYPtVpxanw7/0Qudj3dQVZAiYRAmgJhXdZ1AR8nhQVTGxn/M+o21dVKF+T2XNHd/48++ijq6iyXksCQIUO8OrF1o0eN61orqQuef3n7PO5xWGtbWXxPPyLsPttHBXyaTXnLt9n9Zf1sC+hGiH4s22Pc/6gZsGsl3RjwL2+fN9sqrdY2eS/7AmFjjuvYqNaq8d577604jpIcZ19duu2xqUe16Kx1/R8UDgb6G+k9o+75/m3reXAImSOPPLJsGf3OqJbUatX+NtGYps0kTTDlL9vo0aObyc419Qd6dR1Lap3Al19+6Q4b4a9T1cdrr73WVCHylq92lgBoU1XeMSsTAM1RVRMAbbyygmPS2C8HBQbCku68apZ3u5z/MerkIWH58hoCUQR0Ye4PJNrjT60q4iRNPmDzsI+Njv8ZZbtq3WHz15hZakFIar+AhgIJdq9TPelHVLWxvjRLvK1L/2Pv3r3drnzt36t0S6CgkH+/7fO99tqrqQ3nLd+mdpaVcyOgMc3tMe5/VKu8ajd8bSs0//J6ntYkMbnBpKDujU97XOh7Rg0Oqo1VqXFo/UEzrdezZ89SveB7VGZ9/yk/Wx5dp9RqXRmWrxpS2PX1GGzBGbaOfe3OO+8sW1fr+1tXz5gxo+J9LRPWVV43me3kRnvvvbfdRKzHZ555pmy7+m3ZbAr2OLn//vubzZL1GxCo9jmu8XibSXnLV/tKALSZGu+cdQmA5qiuCYDGq6xzzjmn7MveXszss88+ZYP964M+OCC4XVZjFJEQSFpAF7qazXPWrFkl3dH3BxLtsafHa6+9tvTcc8+5d3Nnz54d2oJB3WvVVeWNN94oTZ8+vXT++eeHHvcDBw4sPf300yVdsOrivtEfBEEDTW5gy6oL9KhjawXz4f90BHQ8hE2IpB+natFpJ0r49NNPS+oaGPxBqrpV8DPK2Mnp7EFrc9X5YI9n/2OzPzrzlm9r1dlaOwXCWuHp2FfrUL1nW8xpYpXjjz8+9PzQsEH1htZo5z6y7dYJ2ImDDj300Kob/eCDD9zvFf9nrNZLqueIrkM0hInNXxMH2eO4aqGqvOH//tQ4l1GTelrY7dtHnU9Kah1qnTRshH1fjwqc+pOGnRkwYIC7jAK6ugaMmzTBmW1Fqm01EtCttc1x48aV7UNYELfW+rzXnEDYUAqq32aD23nLV4oEQJs7ljplbQKgOappAqDxKytsVkr/BUfYj369r9ejTAgQv2Ss2akCGp/Hfww28jw4S6iGbah2DNfLN27LNv2YOPbYY7190Ji7NpjWqXWa1f1WoLvahCf1jg/98Oq0HzNhvQAaGTeu2nGQt3yr7QevF09ALb/DWovX+3zQ+3R3Ld7x0Mwe6ZrZHjfq4h28KTpx4sSyIJyW1U22JFt++r/vmg0C+Ycu0TiXUZNuKvqvyzSWu4YC0DwE9lzTTQa1tPbfsFaA8sYbbyxpEknNXm/zkFEzAWINT2GDn3pUcCupNGjQIK/OZU9qrYCOIVu39tzToxpDNJPylq/2lQBoMzXeOesSAM1RXRMAba6ydHGli4ywLwn/F4aeaxweeSuwREIgDYEHH3zQu2DUMaeLXB2bujBWiwP96TjU//YC2B6nwbv2uii27wXzUh7+vLQNf35Dhw5tePcU/FRLUrvNK664ouE8WKH1AvpBpTHIbL3VelRXPXWV68Q0Z84ctzW2zhP9DR48uOmW0nLMW76dWPedvM9qpazeLmHDsAQ/K3RenHrqqW4vgk42Y9/DBYJjTOp7RzfTgtffujbRMaeZ0pNIai2pQKGOV21Lgf1m03333Vf2nanAZtSkiYW0j8HzR/8feOCBZTcXx48fX+Fj11PvoEa2GyyfehBZewVdNfxAksk/ljDXg0nKRs9LwU7bi1HX/ZrkLomUt3wJgCZR68XPYxHtovMBS8qBwFVXXWUOOOAAr6TOOJbGufPu/c+TaALOhZZxunIZp2uo++cMam66du1q1lhjDbPaaqu5f6ussorp0qVLtAxZCoEOEtBXxtFHH20uueQS4/wINv/85z/NZpttViFw7rnnGqebvRkzZkzFe7zQXgHnZpBxhl4w+uzT56DTHc+stNJKZvXVV3c///T4gx/8oL2FZOsIINAWAX3GO63Gy66RnJZAZtVVV/WukXSttNhii7WlfGw0HwIvvfSScSbXMU6LT+MM8+MV2gmWmV/96lfG6aJunFbxZtFFF/Xea+aJE/w0//Vf/2Wclo3G6V5unAmMjK7lg+kPf/iD2XTTTc3hhx8efCv0f+eGr1l77bWNM262+74zdIxxWnOGLhv2otZ3JocyTgtM44yPbpyAqNl8883d8ym4vDNuqXG6yRtn3Hfj3JAwa665pnt9pXMvbnr22WfdPJyWuMYJpBqnB5FZfPHFy7J79dVXjdOK0zg9eYwz/m/Ze/X+cYKr5he/+IW3mHND3vzwhz/0/ucJAq0UuP76640zxJ23SWd4FjNixAjvf54gIAECoDk6DgiA5qiyKCoCBRTQhbzTpc04k4uZHj16mNtvv929cRC2q7pw//GPf2ycCRDC3uY1BBBAAAEEEOgAAWd8WKPg3rLLLptK4wJnjGqzww47GKfFpXFamhoFKZdccskKWWecdPOTn/zEnHLKKcZpwVzxfrUXzjvvPOOMd+6+reDq448/Xm3RTL3ujPfuBlsV/NRNaWcM39DyOWN4um733HOP2XbbbUOXqfairgmdIWLctxV4crr4V1uU1xFIXYAAaOrEhdgAAdAcVSMB0BxVFkVFoGACCn6qxcTll19utt9+e+N0WzPdunUL3Uv7I8OZBMENloYuxIsIIIAAAggggEATAurR4EzA6AY/1Ypx+PDhVYOsNtB3ww03mD322CPyVu01jV3B6RZsNthgA/tvJh+d8UaNMx6nUfDTGVPUbW1braC6ttONbfWOU4A4alLg2d/aU61Xt95666irsxwCiQsQAE2ctJAZEgDNUbUSAM1RZVFUBAokoNYbBx98sNFnkJJ+PCyxxBJle6hukxpewhmnyu165oxn5bYKiNrNrCwz/kEAAQQQQAABBGoIqLu1bsgqIOmM/RnawlE3b3VtokDpxRdfbGbMmGGcSSjN+uuvXyPnyrecyZDcLv16J+s3d5988knzm9/8xg1+qguwngeTXJyJK91u+c6Y7u7bem2RRRYJLlr1f3WnP+KII9z3VQ933XVX1WV5A4FWCBAAbYVy/rdBADRHdUgANEeVRVERKIiAgp8HHXSQufrqqxveo7vvvttst912Da/HCggggAACCCCAQDUBZ1I5t9u7gp+NpgULFoR2ka+Vj7b3s5/9zA0qajmNObrMMsvUWqUt702bNs1thamWn40kBZAbGbJIwVL/2Kgaa3S99dZrZJMsi0DiAgRAEyctZIYEQHNUrQRAc1RZFBWBgghosrWzzjor1t5ogp1mBu+PtVFWQgABBBBAAIFCC2yyySZut/dGd9KZIdudoLHR9bS8M8O52xtGzzWGqMYSzVJ69913zTrrrOMFaRspmyZA0qRVUdNNN91kdtttN3dxjQM6cuTIqKuyHAKpCRAATY22UBkTAM1RdRIAzVFlUVQECiKwyy67mNtuuy3W3jTanSrWRlgJAQQQQAABBDpGQEPudOnSJdb+9uvXzx2mJ87K6kqvGeRtq9OstXpU68+NNtoozq65AUwFMqMkDSew7rrrmtmzZ5ull17aaBb55ZdfPsqqLINAqgIEQFPlLUzmBEBzVJUEQHNUWRQVAQQQQAABBBBAAAEECiOgoOcvf/lLd3/Ubfz+++83iy66aGH2L8qOHHDAAd6Y8HfccYfp06dPlNVYBoHUBQiApk5ciA0QAM1RNRIAzVFlUVQEEEAAAQQQQAABBBAolMDEiRNN37593X066qij3MmVCrWDNXbmuuuuM/vuu6+7xDnnnGNOOOGEGkvzFgKtFSAA2lrvvG6NAGiOao4AaI4qi6IigAACCCCAAAIIIIBA4QTOPvtsM3jwYHe/Lr30UnP44YcXbh+DO6TWrltvvbX78l577WUUbGpk1vhgfvyPQNICBECTFi1mfgRAc1SvBEBzVFkUFQEEEEAAAQQQQAABBAopoImQhg0b5u7b+PHjjcZML2pS1//NNtvMnWBJwc+xY8eaxRZbrKi7y37lVIAAaE4rrsXFJgDaYvBmNkcAtBk91kUAAQQQQAABBBBAAAEEkhEYNWqU2/pT44FOmTIlmUwzmMuAAQPMuHHjzDHHHGPOO+8807Vr1wyWkiJ1ugAB0E4/AqLtPwHQaE6ZWIoAaCaqgUIggAACCCCAAAIIIIAAAubFF180n3/+uenZs2dhNWbOnGkWLFgQe5b5wsKwY5kSIACaqerIbGEIgGa2aioLRgC00oRXEEAAAQQQQAABBBBAAAEEEECgcwUIgHZu3Tey5wRAG9Fq87IEQNtcAWweAQQQQAABBBBAAAEEEEAAAQQyJUAANFPVkdnCEADNbNVUFowAaKUJryCAAAIIIIAAAggggAACCCCAQOcKEADt3LpvZM8JgDai1eZlCYC2uQLYPAIIIIAAAggggAACCCCAAAIIZEqAAGimqiOzhSEAmtmqqSwYAdBKE15BAAEEEEAAAQQQQAABBBBAAIHOFSAA2rl138ieEwBtRKvNyxIAbXMFsHkEEEAAAQQQQAABBBBAAAEEEMiUAAHQTFVHZgtDADSzVVNZsBNPPNGcc8453hu77rqrufHGG73/eYIAAggggAACCCCAAAIIIIAAAgh0ksCpp55qhg0b5u3yzjvvbCZOnOj9zxMEJEAANEfHwdChQ83pp5/ulXiXXXYx48eP9/7nCQIIIIAAAggggAACCCCAAAIIINBJAmeddZYZMmSIt8s77LCDufPOO73/eYKABAiA5ug4oAt8jiqLoiKAAAIIIIAAAggggAACCCCAQOoCdIFPnbgQGyAAmqNqJACao8qiqAgggAACCCCAAAIIIIAAAgggkLoAAdDUiQuxAQKgOapGAqA5qiyKigACCCCAAAIIIIAAAggggAACqQsQAE2duBAbIACao2okAJqjyqKoCCCAAAIIIIAAAggggAACCCCQugAB0NSJC7EBAqA5qkYCoDmqLIqKAAIIIIAAAggggAACCCCAAAKpCxAATZ24EBsgAJqjaiQAmqPKoqgIIIAAAggggAACCCCAAAIIIJC6AAHQ1IkLsQECoDmqRgKgOaosiooAAggggAACCCCAAAIIIIAAAqkLEABNnbgQGyAAmqNqJACao8qiqAgggAACCCCAAAIIIIAAAgggkLoAAdDUiQuxAQKgOapGAqA5qiyKigACCCCAAAIIIIAAAggggAACqQsQAE2duBAbIACao2okAJqjyqKoCCCAAAIIIIAAAggggAACCCCQugAB0NSJC7EBAqA5qkYCoDmqLIqKAAIIIIAAAggggAACCCCAAAKpCxAATZ24EBsgAJqjaiQAmqPKoqgIIIAAAggggAACCCCAAAIIIJC6AAHQ1IkLsQECoDmqRgKgOaosiooAAggggAACCCCAAAIIIIAAAqkLEABNnbgQGyAAmqNqJACao8qiqAgggAACCCCAAAIIIIAAAgggkLoAAdDUiQuxAQKgOapGAqA5qiyKigACCCCAAAIIIIAAAggggAACqQsQAE2duBAbIACao2okAJqjyqKoCCCAAAIIIIAAAggggAACCCCQugAB0NSJC7EBAqA5qkYCoDmqLIqKAAIIIIAAAggggAACCCCAAAKpCxAATZ24EBsgAJqjaiQAmqPKoqgIIIAAAggggAACCCCAAAIIIJC6AAHQ1IkLsQECoDmqRgKgOaosiooAAggggAACCCCAAAIIIIAAAqkLEABNnbgQGyAAmqNqJACao8qiqAgggAACCCCAAAIIIIAAAgggkLoAAdDUiQuxAQKgOapGAqA5qiyKigACCCCAAAIIIIAAAggggAACqQsQAE2duBAbIACao2okAJqjyqKoCCCAAAIIIIAAAggggAACCCCQugAB0NSJC7EBAqA5qkYCoDmqLIqKAAIIIIAAAggggAACCCCAAAKpCxAATZ24EBsgAJqjaiQAmqPKoqgIIIAAAggggAACCCCAAAIIIJC6AAHQ1IkLsQECoDmqRgKgOaosiooAAggggAACCCCAAAIIIIAAAqkLEABNnbgQGyAAmqNqJACafGU988wz5t577zXLLrus6du3r1l++eWT3wg5IpARgXvuucdMnz7d9OjRw2y33XZmiSWWyEjJKEY7BBYuXGhuvfVW88Ybb5gtt9zSbLLJJqZLly7tKArbRACBDAq8++67ZuLEiUafFX369DFrrbVWBktJkRAojgDfy8WpS/ak9QIEQFtvnsctEgDNUa0RAE22ssaNG2cGDBhQlukjjzxievXqVfYa/yBQBIGjjz7ajBw50tuV7t27m8cee8yssMIK3ms86RwB/cjq3bu3GxC3e92/f3+jz8WuXbval3hEAIEOFXjhhRfMxhtvbObPn+8JXHjhhWbgwIHe/zxBAIHkBPheTs6SnDpTgABoZ9Z7o3tNALRRsTYuTwA0WfyVVlrJzJ49uyxTBQSmTJlS9hr/IJB3gZdeesmsvfbaFbsxbNgwM3To0IrXeaH4Atdcc43Zf//9K3Z08uTJZptttql4nRcQQKCzBPT5oM+JYFqwYIFZcsklgy/zPwIINCnA93KTgKze8QIEQDv+EIgEQAA0ElM2Frr66qvN8OHDvcL893//t7nooou8/3kSXWDu3LmmW7duoSuUSqXQ13kRgbwKTJo0yey0004Vxe/Xr5/bBbriDV4ovMCJJ55ozjnnnIr91HeKWguTEECgswV+/etfl7UQtxrTpk0zG264of2XRwQQSEiA7+WEIMmmYwUUAD311FO9/d9hhx3MqFGjvP95goAECIDm6DigBWhylaUg58orr1zRAlRjIz733HPJbYicEMiAgLoyrrvuuhUlOeaYY8yIESMqXueF4gsEv0/sHmtMUAXGSQgg0NkC++yzj9GPyWBSz5kVV1wx+DL/I4BAkwJ8LzcJyOodL0AL0I4/BCIBEACNxJSNhYJfjEOGDDFnnnlmNgqXw1KMHTvW/PGPfywr+R133OEO9F/2Iv8gUACB/fbbz1x77bXenvzoRz8yTzzxhFl11VW913jSOQLz5s0z//mf/2lmzJjh7fRWW21l7r77brPooot6r/EkXIDJYcJdeLU4Ak8//bRZf/31y3bo5JNPNqeddlrZa/yDAALJCPC9nIwjuXwr0IkTnxIA5eiPIkAANIpSRpYhAJp8RWhsxAkTJrgzH2uG03XWWSf5jZAjAhkQUKtnTXqkCyK1fv7d735nlltuuQyUjCK0S+CLL74wd911l3nyySfNf/zHfxhNgkTws35tMDlMfSOWKIbARx99ZMaPH2/ee+89d9K0Lbfcshg7xl4gkFEBvpczWjE5K1anTnxKADRnB2qbiksAtE3wcTZLADSOGusggAACCCCQnACTwyRnSU4IIIAAAgggkJxAJ098SgA0ueOoyDkRAM1R7RIAzVFlUVQEEEAAgUIKMDlMIauVnUIAAQQQQCD3Ap088SkB0Nwfvi3ZAQKgLWFOZiMEQJNxJBcEEEAAAQTiCjA5TFw51kMAAQQQQACBNAU6eeJTAqBpHlnFyZsAaI7qkgBojiqLoiKAAAIIFFKAyWEKWa3sFAIIIIAAAoUQ6NSJTwmAFuLwTX0nCICmTpzcBgiAJmdJTggggAACCMQVYHKYuHKshwACCCCAAAJpCnTqxKcEQNM8qoqTNwHQHNUlAdAcVRZFRQABBBBAAAEEEEAAAQQQQACB1AUIgKZOXIgNEADNUTUSAM1RZVFUBBBAAAEEEEAAAQQQQAABBBBIXYAAaOrEhdgAAdAcVSMB0BxVFkVFAAEEEEAAAQQQQAABBBBAAIHUBQiApk5ciA0QAM1RNRIAzVFlUVQEEEAAAQQQQAABBBBAAAEEEEhdgABo6sSF2AAB0BxVIwHQHFUWRUUAAQQQQAABBBBAAAEEEEAAgdQFCICmTlyIDRAAzVE1EgDNUWVRVAQQQAABBBBAAAEEEEAAAQQQSF2AAGjqxIXYAAHQHFUjAdAcVRZFRQABBBBAAAEEEEAAAQQQQACB1AUIgKZOXIgNEADNUTUSAM1RZVFUBBBAAAEEEEAAAQQQQAABBBBIXYAAaOrEhdgAAdAcVSMB0OQr65lnnjH33nuvWXbZZU3fvn3N8ssvn/xGyBGBjAjcc889Zvr06aZHjx5mu+22M0sssURGSkYx2iGwcOFCc+utt5o33njDbLnllmaTTTYxXbp0aUdROnab7777rpk4caJRXfTp08estdZaHWvBjmdPgOMze3VCiYotwPdyses3j3uXp98OBEDzeIS1vswEQFtvHnuLBEBj04WuOG7cODNgwICy9x555BHTq1evstf4B4EiCBx99NFm5MiR3q50797dPPbYY2aFFVbwXuNJ5wjoR1bv3r3dgLjd6/79+xt9Lnbt2tW+xGOKAi+88ILZeOONzfz5872tXHjhhWbgwIHe/zxBoF0CHJ/tkme7nSrA93Kn1nx29ztvvx0IgGb3WMpSyQiAZqk26pSFAGgdoAbfXmmllczs2bPL1lJAYMqUKWWv8Q8CeRd46aWXzNprr12xG8OGDTNDhw6teJ0Xii9wzTXXmP33379iRydPnmy22Wabitd5IXkB+asegmnBggVmySWXDL7M/wi0VIDjs6XcbAwB9/uA72UOhKwI5PG3AwHQrBw92S4HAdBs109Z6QiAlnE09c/cuXNNt27dQvMolUqhr/MiAnkVmDRp0v9j735eogjjOI5/KQ/RJbG0vXgRQ+0iKEYiLBISKIXooZtg/gPqTQSlBAMvJh46Zp69pIiCVqcgBE0wFIJOXRQPgoqQp+JZ2ImZ0WV359fzzPPeizPPzszzPK/v4OSn3Rnp6enxDb+3tzf3FWjfGzSkXmBsbExmZmZ885ybmxP1P/68ohdobW11fQI33+POzo60tLTkV/mJQCICnJ+JsNOpxQJcly0uvoZTN/FvBwJQDU8kDYdEAKphUa4bEgHodTKlt6uQM5PJ+D4Bqu6NuL+/X/oB2QMBjQXUVxkbGxt9IxwdHZXZ2VlfOw3pF/BeT/IzVvcEVcE4r+gFBgYGRP1j3ftS30yorq72NrOOQKwCnJ+xctMZAsJ1mZNAJwET/3YgANXpDNJ3LASg+tbGNzLvhXF8fFymp6d929FQnMDCwoIMDQ25Nl5bW8s9iMLVyAoCKRAYHByUxcVFZyY1NTWyvb0ttbW1ThsL9gicnZ1Je3u7HBwcOJPu7OyUzc1NqaiocNpYiE5gb29PmpubXR1MTEzI1NSUq40VBJIQ4PxMQp0+bRbgumxz9fWcu2l/OxCA6nke6TYqAlDdKlJgPASgBXDKfEvd32RlZSX35GP1BN6GhoYyj8RuCOgtoD71rB56pJ7mqD793N/fL1VVVXoPmtFFKnB5eSkbGxuyu7srTU1Noh6CRPgZKbnv4CcnJ7K8vCxHR0e5h1Jls1nfNjQgkJQA52dS8vRrqwDXZVsrr+e8TfvbgQBUz/NIt1ERgOpWkQLjIQAtgMNbCCCAAAIIIIAAAggggAACCCBgnQABqHUlL2vCBKBlsSWzEwFoMu70igACCCCAAAIIIIAAAggggAACegoQgOpZF91GRQCqW0UKjIcAtAAObyGAAAIIIIAAAggggAACCCCAgHUCBKDWlbysCROAlsWWzE4EoMm40ysCCCCAAAIIIIAAAggggAACCOgpQACqZ110GxUBqG4VKTAeAtACOLyFAAIIIIAAAggggAACCCCAAALWCRCAWlfysiZMAFoWWzI7EYAm406vCCCAAAIIIIAAAggggAACCCCgpwABqJ510W1UBKC6VaTAeN6/fy9v3rxxtnj27JnMzc056ywggAACCCCAAAIIIIAAAggggAACNgmoAPTVq1fOlJ8+fSrv3r1z1llAQAkQgBp0HvAJUIOKxVARQAABBBBAAAEEEEAAAQQQQCByAT4BGjlxKjogADWojASgBhWLoSKAAAIIIBCTwI8fP+TLly9y584def78udy9ezemnukGAQQQQAABBBC4XuDPnz/y8eNH+f37t2SzWXn06JHcuHHj+h3KfIcAtEw4y3YjADWo4ASgBhWLoSKAAAIIIBCDwNLSkrx48cLV07dv3+Tx48euNlYQQAABBBBAAIE4BVT42dHRId+/f3e67evrE/Vvl5s3bzptYSwQgIahmP5jEIAaVGMCUIOKxVARQAABBBCIQeD+/ftyfHzs6kn9sfH161dXGysIIIAAAggggECcAh8+fJCXL1/6uvz8+bM8efLE1x6kgQA0iJ49+xKAGlRrAlCDisVQEUAAAQQQiFjg9PRUKisrr+zl79+/V7bTiAACCCCAAAIIxCEwNjYmMzMzvq7Ug5yHh4d97UEaCECD6NmzLwGoQbUmADWoWAwVAQQQQACBiAVUyJnJZHyfAH348KHs7+9H3DuHRwABBBBAAAEErhfw5hf5LdU9QXt7e/OrofwkAA2FMfUHIQA1qMTeXyDj4+MyPT1t0Az0GyoPjtCvJowoOoFPnz7l7sGjwpGuri65detWdJ1xZO0F4ropvfYQhg9wYWFBhoaGXLNYW1uT7u5uVxsrCJQqcHh4KKurq6J+V6jzqb6+vtRDsD0CCJQgwHW5BCw2NULg7OxM2tvb5eDgwBlvZ2enbG5uSkVFhdMWxgIBaBiK6T8GAahBNSYADbdYPDgiXE+OpreA+prJ/Py8M8i6ujrZ2tqSe/fuOW0s2CMQ503p7VFNbqa/fv2SlZWV3FNVVVDV0NCQ3GDoORUCP3/+lLa2Njk/P3fm8/btWxkZGXHWWUAAgfAEuC6HZ8mR9BK4vLyUjY0N2d3dlaamJlEPQQo7/FQzJgDVq+66joYAVNfKXDEuAtArUAI08eCIAHjsapSACkcePHjgG/Pr169lcnLS105D+gXivCl9+jWZIQLpE1APrVC/J7yvi4sLuX37treZdQQQCCjAdTkgILtbL0AAav0pUBQAAWhRTHpsRAAaXh14cER4lhxJf4H19XXp6enxDVTde0fdg4eXfQJx3pTePl1mjID5Aq2trblbpnhnsrOzIy0tLd5m1hFAIKAA1+WAgOxuvQABqPWnQFEABKBFMemxEQFoeHXgwRHhWXIk/QXUVxkbGxt9Ax0dHZXZ2VlfOw3pF/BeT/IzjuKm9Plj8xMBBMwRGBgYyH2d0Dvi4+Njqa6u9jazjgACAQW4LgcEZHfrBQhArT8FigIgAC2KSY+NvBdGHoIUrC48OCKYH3ubJTA4OCiLi4vOoGtqamR7e1tqa2udNhbsEYjzpvT2qDJTBNIjsLe3J83Nza4JTUxMyNTUlKuNFQQQCEeA63I4jhzFXgECUHtrX8rMCUBL0Up4WwLQ8AvAgyPCN+WIegqoTz2rhx6pJ8FnMhnp7++XqqoqPQfLqGIRiOum9LFMhk4QQCB0gZOTE1leXpajoyPp6OiQbDYbeh8cEAEE/gtwXf5vwRICpQoQgJYqZuf2BKAG1Z0A1KBiMVQEEEAAAQQQQAABBBBAAAEEEIhcgAA0cuJUdEAAalAZCUANKhZDRQABBBBAAAEEEEAAAQQQQACByAUIQCMnTkUH/wAAAP//Y0j3fgAAQABJREFU7J0J2BTFtb8LIWpIVFzBBZPgjoqKgigRCS5cVCSIonIloMJNUFHQvwpENhUQF0CCuAUBwzU+AWQRIYBsikFAILK5gCtGECMKyKbo/Pt0bvfXPdvXs/RMVfdbzwO9THXVqffU193zm6pTVRJWUiQjCIwaNUp16tTJtbVXr15qwIAB7jE7EIAABCAAAQhAAAIQgAAEIAABCEAgTgTGjRun2rdv7za5e/fuasiQIe4xOxAQAlUQQM3pCAig5vgKSyEAAQhAAAIQgAAEIAABCEAAAhAInwACaPiMo1ADAqhBXkQANchZmAoBCEAAAhCAAAQgAAEIQAACEIBA6AQQQENHHIkKEEANciMCqEHOwlQIQAACEIAABCAAAQhAAAIQgAAEQieAABo64khUgABqkBsRQA1yFqZCAAIQgAAEIAABCEAAAhCAAAQgEDoBBNDQEUeiAgRQg9yIAGqQszAVAhCAAAQgAAEIQAACEIAABCAAgdAJIICGjjgSFSCAGuRGBFCDnIWpEIAABCAAAQhAAAIQgAAEIAABCIROAAE0dMSRqAAB1CA3IoAa5CxMhQAEIAABCEAAAhCAAAQgAAEIQCB0AgigoSOORAUIoAa5EQHUIGdhKgQgAAEIQAACEIAABCAAAQhAAAKhE0AADR1xJCpAADXIjQigBjkLUyEAAQhAAAIQgAAEIAABCEAAAhAInQACaOiII1EBAqhBbkQANchZmAoBCEAAAhCAAAQgAAEIQAACEIBA6AQQQENHHIkKEEANciMCqEHOwlQIQAACEIAABCAAAQhAAAIQgAAEQieAABo64khUgABqkBsRQA1yFqZCAAIQgAAEIAABCEAAAhCAAAQgEDoBBNDQEUeiAgRQg9zYo0cPNXjwYNfiNm3aqAkTJrjH7EAAAhCAAAQgAAEIQAACEIAABCAAgTgR6Nevn+rfv7/b5Msvv1xNmzbNPWYHAkIAAdSgftCnTx/1wAMPuBZfeeWVasqUKe4xOxCAAAQgAAEIQAACEIAABCAAAQhAIE4EBg0apHr16uU2+dJLL1UzZ850j9mBgBBAADWoHzAF3iBnYSoEIAABCEAAAhCAAAQgAAEIQAACoRNgCnzoiCNRAQKoQW5EADXIWZgKAQhAAAIQgAAEIAABCEAAAhCAQOgEEEBDRxyJChBADXIjAqhBzsJUCEAAAhCAAAQgAAEIQAACEIAABEIngAAaOuJIVIAAapAbEUALd9bevXvV6NGj1Y4dO1S3bt0KL1DTEqZOnapWr16t7rjjDvWzn/1MUysxCwIQgAAEIAABCEAAAhCAAAQgUBgBBNDC+MXlagRQgzyNAFqYs3bt2qWuv/56e+GoBg0aqCVLlhRWoMZXd+nSRT311FOqXr16dvDnWrVqaWwtpkEAAhCAAAQgAAEIQAACEIAABPIjgACaH7e4XYUAapDHEUDzd9a2bdtUq1at1Pz589UBBxygVq5cqX75y1/mX6DmV3777beqWbNmaunSpapOnTpqzpw5kW6v5u7APAhAAAIQgAAEIAABCEAAAhAIiQACaEhgI1YsAqhBDtVFAN28ebNatmyZTa5q1apq33339f3bZ599VCKRUHv27LH/ycjL77//3s7fvHlzJZ+XMv3www+qdevW6uWXX7arnTZtmrr88stLaUJZ6tqwYYM69dRT1fbt21XdunXVokWL1IEHHlgWW6gUAhCAAAQgAAEIQAACEIAABCAQBgEE0DCoRq9MBFCDfKqLANqpUycltuSTXn31VXXRRRflc2ne1/Tu3Vs9+OCD9vX33nuveuihh/Iuy7QLhfcll1xim92yZUs1adIkJaI1CQIQgAAEIAABCEAAAhCAAAQgEAUCCKBR8GL4bUAADZ9x0WrQRQD905/+pCZPnmyP6pSRnVu2bFHvv/9+xnYec8wx6sgjj1SylQWIDjrooIx5i/3BhAkT1DXXXGMX27hxYzVv3jz1k5/8pNjVaF3eAw88oPr06WPbKNv+/ftrbS/GFY/Azp071UsvvaTWrFmjPvjgA/vfunXr1OGHH65OOukkddxxx9khEq688kp7v3g1U5KuBD7//HP7h5D169fb/eG9995TGzduVLVr17b7xPHHH69OPPFEdfXVV6saNWro2gzsggAEQiKwYsUKNWvWLPXxxx/b73byfrd161Z18sknqxNOOMF+Vpx55plKnhvVqlULyQqKhUB8CPBcjo+vaWm4BBBAw+UbldIRQA3ypC4CaDpksqq6LLjz4Ycf+j6WEYe//e1vfedKdSDCrMT5lCngEvdz7dq1tghbqvp1qUdCAMiU/5kzZ9omSfzT008/XRfzsCMEAl9//bV65pln1IABA+z+H6SK9u3bq7vvvpu+EQSWgXlEAB8yZIgaOXJkYOvvu+8+ddttt6maNWsGvoaMEICAmQQWLlxoz5B55ZVXAjVAftSWGTby7PjpT38a6BoyQQACFQR4LlewYA8CxSCAAFoMitEvAwHUIB/rLIAKRhlB9Nlnn7lEZfEdebiXK915551q6NChdvUvvPCCvQJ8uWwpd70yoqN+/fq2GU2bNlVz585VVapUKbdZ1B8CAfkR4sILL/T9LTrVdOzYUZ122mn2qO0XX3wx5QcLySejtCUfKToEZsyYoS677LKUBskPQ507d1ZHHXWUPdpr7NixKYK55FmwYIE666yzUq7nBAQgEA0C/fr1Szs7ROKHX3vttWr//fe3Y7//7W9/S2mwvFvMnj1bHXLIISmfcQICEEhPgOdyei6chUAhBBBAC6EXo2utxWpIhhD485//nLC6pvuvV69e2lhuiS6uXY6N1sihstlnjfZ07TniiCMS1oJMZbNFl4qtWKAuE0v80sUs7CgigXfffTch/d35G3S2luid+Pe//+2ryRoZnBgxYkRKXrnGGj3qy8uBuQSscCVpfWyN9k25L3777bcJS/xOyW+JoIklS5aYCwHLIQCBtAR+/PHHhBUbPeVvXp4D6d4TrGnxCUvwTMlvzQBKWAtkpq2DkxCAgJ8Az2U/D44gUCwCf/nLX3zPp+7duxeraMqJEAFZrZtkCAGdBdDkG468PI8fP75sZFu0aOHeAK1pwGWzQ6eKrSnwLhMRyaywBTqZhy0FEvjuu+8SVuxG18eO+NmoUaOECFuZUiYRdNGiRZku4bwhBKx4ryn9QfpFt27dsragTZs2KdeJCPrNN99kvY4PIQABswhYo2VS/tblHmHFjs7YkG3btiWs6e8p1zVv3jzjNXwAAQj8hwDPZXoCBMIjkKxHIICGx9rkkhFADfKezgLozTffnPIybAX1LgvdZcuW+WzZtGlTWezQrVIZ6WFNZ3PZyEOCFB0CmYTMiRMnZm3k3r17ff3CEU4bNGiQkFGiJHMJpBMyxb/WokdZG2WFMnHvE05/kG2PHj2yXseHEICAOQTkh7F0MwbkPaGyZE2FT3uPmD59emWX8jkEYk2A53Ks3U/jQyaAABoy4IgUjwBqkCN1FkCTRwPISLRypdtvv919MZfpnKQKAt4HwwUXXFDxAXtGE7AW+krICD2vWOXsBxnpK8KWk9+7nTBhgtFc4my8jOD1+tLZl1AYQZII4M413u2GDRuCXE4eCEBAcwKDBw9O+zc+aNCgSi23FtpLe628+8mPrSQIQCCVAM/lVCacgUAxCXi/58q7KyNAi0k3OmUhgBrkS10F0HTxP7t27VoWsjt37vQJQUuXLi2LHbpWKmKYV8yQmJEk8wnIKE+vX539li1bBmrclClT0l7fqlWrQNeTST8C3h+CnP4gW2sl+EDGWovIpe0Tw4cPD3Q9mSAAAb0JpAuZIveIoO9NEvfTe29x9pcvX653w7EOAmUiwHO5TOCpNjYEEEBj4+qCGooAWhC+0l6sqwD6/PPPp7wEl2vkmHdalkztIqUSaNy4sesvprSm8jHxTPv27V2fOl9CZfs///M/gZojX3i913n3ZXQpySwCErog3dRW8esLL7wQqDEilHr7gbPPyPFA+MgEAa0JyI+fzt908vaTTz4JZLv8wJZ8rRz3798/0PVkgkCcCPBcjpO3aWu5CCCAlou8WfUigBrkL10F0JtuuinlJbiyGHNhYb/uuutcW2SflEqgV69eLqNyhipItYwz+RCQ6YaZpr+Lr4Okjz76yO0TyV9oiekWhKBeed5+++2M/pTF0IKk5JdIb79gMaQgBMkDAX0JPPHEExnvEUF/9EoX+13uExI+gwQBCPgJ8Fz28+AIAmEQSH53ZQp8GJTNL7OKNMF6YSEZQGDUqFGqU6dOrqWWuKGsFc7d43Lt1K5dW1mLZrjVW6Kaeu+999zjUu1IV65Vq5bavHmzXeXQoUOVtdpxUar/4IMPlDViwi774IMPVuecc46y4p6mlC02SN4VK1Yoa3EZO0/Dhg3Vfvvtl5K3XCdmzJihLrvsMrd6a5EoVbNmTfeYHbMIWIuNqaOPPjqt0UH/BrZu3apq1KiRtozHHntMWdOh037GST0JjB8/XrVt2zatcW+99ZY6++yz037mPZl8n/B+tmTJEmWJHN5T7EMAAgYRuPXWW9XIkSPTWhz0a4E1g0RZcUTTliHvP1WrVk37GSchEEcCPJfj6HXaXGoC48aNU9asOLdaSwBV1owm95gdCNgErBcdkiEEdBwBaol9KaMIyhX/8/333/fZ8vrrrxfsWYll1axZM1+51h+OfWwJDImvvvrKrWPt2rX2yAfnc2cro/OCxt1zCwtxR2x2bJPtpEmTQqyNosMmMHfuXJ8/vb6V8BRB0q5duzKWIaN8SGYRkCmo3n7g3Zd7dpA0Z86cjGXIL+wkCEDAXAISysJ7X3D2cwkd1K9fv7RlSFkSG54EAQhUEOC5XMGCPQiERYARoGGRjVa5TIE3yJ86CqA6xf8cPXq072V827ZtBXnXKyxJsH9rtIQtFsrCMM6Xhbp16ya2bNliLxrgnGvTpk1CYpFav/a6+eSz5557riB7inmx2O3Ye9dddxWzaMoqMYF0f4OOb//6178GskZiUznXJG/lBwCSWQTShSVx/Bp0FfeFCxdm7BMPPvigWUCwFgIQ8BHIFCO4Tp06vnzZDgYOHJjxHvHaa69lu5TPIBA7AjyXY+dyGlwGAgigZYBuYJUIoAY5TUcBNN0DvVzxPyXOh/MlXwS+QpJ3Vexnn302YU3ncov7/vvvE40aNXLr6tChg7vgiDfm4g033ODmEbsuv/xyt4xy73Tu3Nm1rWnTpuU2h/oLICCrcjv9PnkrQnzQlHytcyziP8ksAt4faRw/Ott//etfgRpjTXPP2K/40SQQQjJBQFsCzv0geZuLAGqFR8l4j5g6daq2bccwCJSDAM/lclCnzrgRQACNm8fzay8CaH7cynKVjgJo8iiCci6q412RVMTHfJN3QZixY8emLWbYsGEpL/7yciMj6STJKqrJXyxENNUleRdCsmKZ6mIWduRBINu0qgkTJgQuMbm/Osf0j8AItcmYaXqr+DToD1RLly5NuYc5fYKwCNq4GkMgkDOBPXv2ZPzbzuUdTkL7OPeE5C1hMnJ2CxdEnADP5Yg7mOZpQQABVAs3aG8EAqj2LqowUDcBNF38z9tvv73C4BLvyYu78xJeSBzS1q1b2+X07t07YwtkarFTl7NdtWqVm1/ijzrnna1Oo6YeffRRn33yhYhkJgHpp04fS96+9NJLgRuVfK1znEtMuMCVkTFUAt4R6o4fne0XX3wRqG5rsaSM/coKMB+oDDJBAAL6EdixY0fGv+1cZs9Yi+xlLEenkD/6eQCL4kiA53IcvU6bS00AAbTUxM2sDwHUIL/pJoDK6EjnS7WznThxYlmI/vjjjz5bsomX2Qz0xv38+uuvM2ZNHgGaHCfx22+/TXgF2ebNm9uxQjMWWOIP5MuJ4zPZBl0YpcRmUl0AAj179vT50uvXyZMnByjhP1m813n3c5kSGbgyMoZKwFqhPWOf+PLLLwPVvWzZsoxldOnSJVAZZIIABPQjIPHRvfd4734uAmjye5C3nBdffFG/hmMRBMpIgOdyGeFTdWwIIIDGxtUFNRQBtCB8pb1YNwG0Y8eOKS/RmzZtyhmKTBufNm1aYs2aNTlf61ywc+dOny0ywjGfJCOb5CXeG8szXTlOPueF/4knnkjJJqMsFi1alPdqqFu3bk3ICL6gU1ZTDMhyQoQxx3bZithBMpNA2AIoI0DN6xdhf9GS2M8kCEDATAKlEEBlcT4SBCBQQYDncgUL9iAQFgEE0LDIRqtcBFCD/KmbAFqM+J8SK/OSSy6xxTjZ5ptkJXavoCcLF+WTnCkqn3/+edbLZVSct77Vq1dnzZ/rh7ICs8RelDoGDRqU6+WV5l+wYIHPfqmPZCaBbFPgJ02aFLhR3v7s3UcADYxQm4zOfczrR2d/8+bNgexkCnwgTGSCgHEEijUFPlsMUKbAG9ctMDhkAjyXQwZM8RCwCCCA0g2CEEAADUJJkzw6CaDr16/3CWjy5bqy+J8ypVxGec6bNy/x9NNPJ1q0aOEro3HjxnmT/uyzz3xl5bL6tbfSDz/8sNKRqDIi0xETZHvAAQe4ix95ywq6L6syr1y5MjF9+vTEww8/nKhfv76v/L59+wYtKnC+t99+21fH7NmzA19LRr0I3H///T5fevvm+PHjAxvrvc67zyJIgRFqk7Fp06YZ+0RlP+44jXjzzTczltG5c2cnG1sIQMAwAt99913Gv+1cFkF65JFHMpYzbtw4w6hgLgTCJcBzOVy+lA4BIYAASj8IQgABNAglTfKMGjUqcdxxx7n/7rjjjrJZlk/8z2eeecb3sizCofxzxJZCBFDvyu1S3tSpU0NjI3FOHZtl27Zt24Lqateuna+85NGlYQig69at89W5ePHigtrAxeUjMGLECJ8vvX1TFusKkpJj6HrLEEGeZBYBZyE3rx+d/Q0bNgRqzBtvvJGxX91zzz2ByiATBCCgJwHnfpC8zSXms8xOSb7eOZawRiQIQKCCAM/lChbsQSAsAiKAerUSYtaHRdrschFADfKfTiNA84n/+c9//jMhU6ZkapTExvz+++8To0ePdl+gCxFAZVST8+It26DCTz7u79atm6+uJ598Mp9i3GtErJXFBOSm/e6779rnO3To4NYRhgCaPAJ0zpw5rj3smEUg+ddO799B0Dhse/bscfub93rZLyQ0hVkko2PtzTffnNGfQRc8k5H6yX3BOQ4jLEd06NMSCOhPwAmx4/xNO9tcQp70798/4z1CfkAhQQACFQR4LlewYA8CYRFI/k7UvXv3sKqiXIMJIIAa5DydBNBixP8U9MUSQGV6vfMCL1uZYh9W8q7uLnXJ9PVip7AF0Ndee83HSwRpkpkEJH6rt+9790eOHBmoUd98803GMvj1NBBCrTINHDgwoz+D3q8kJIe3L3n3WeFZK3djDARyJuDEXvf+Xcu+zMoJmu69996M9wgJS0SCAAQqCPBcrmDBHgTCIoAAGhbZaJWLAGqQP3URQNPF/5RRkfmkYgmgu3fv9r2ISyzNMJLE6/R+YSg0/mcmG8MWQGV6mrcdMjqXZCaBL7/80udLr1+D/h0kj6D2liFT7ElmEZg8eXLGPhH0xw6JH+vtB959GUFOggAEzCUgo2K8f9Pe/aCtuu2229KWIe9FElaFBAEIVBDguVzBgj0IhEUAATQsstEqFwHUIH+GJYAuX748ccMNN9iL77Rv3z7x/vvvZ6XiFS2dl+aXXnop6zWZPvSWVcgUeCnfG0/0vvvuy1RlQedlar3TZtlec801Wcvbu3dvQmLu5fplIGwBVBYo8LZDhF2SuQSSR2Q7vu3Zs2egRq1evdrXH5zrZbtgwYJAZZBJHwLJMX69/pwxY0YgQ5966qmMfWLnzp2ByiATBCCgJwHvu5f3/iD727ZtC2S0xD9PvlaOZbEXEgQg4CfAc9nPgyMIhEEAATQMqtErEwHUIJ+GIYAmx4KUl9fKFj1p2bJlykvvpk2b8iLpfQkvVABt0KCBa5eMTAgjyerH3hf+J554Ims1vXv3tvPLNOVcUtgCqEyN9rZDhFqSuQS6du3q86fjW/lBI0jKFO9RflSQFYNJ5hFIDtXh9AlZTC9IyhTfr1WrVkEuJw8EIKAxgeTZLM79QbZOLPLKzL/gggvSPnckpjkJAhBIJcBzOZUJZyBQTAIIoMWkGd2yEEAN8m0YAmimVQllgaJ0SUYzel+UZb+QL8TFFECvu+4617YWLVqkM7/ScyIEyoryO3bsSMkroziTFw7INhV069at7qjUd955J6W8bCfCFkC94oa8kJHMJjB37ly373v/PuVHgSApU2wqCdpPMpOA92/c2yd69OgRqEGZYgTKyyUJAhAwn0AmAVPi/1aW5B3Je1/x7ss7FAkCEEglwHM5lQlnIFBMAgigxaQZ3bIQQA3ybRgCaLqpsyLyZUoDBgxIeekNGlMuXZnFFEBl2rvzEi4j13JN8tLvnUYvq7N705tvvumW79STSSiW62QUhOSrbESttw5nP2wB9PLLL3fbIiN6SWYTkH6YaWSBxOytLNWrV8/tD07flq30eZKZBGS1d68vnX25v//www9ZG/XFF1+kvVbuj/LDTtSTxJSWZ51M5ZUwJ8nPgnzbb1q5+baT68wgkBzSx7lH3HTTTZU2IFM8w3x/fK60QjJAIAIEeC5HwImaNkFi+d9yyy2JRo0a2dtire1gWrkIoJp2UM3MQgDVzCHZzCm2ACqiifPC690++eSTac3YuHFjIlkwLTTWUzEF0OQX8k8++SRtO9Kd/Pe//53CInlka/I04zp16qQryj63fft2l1U+MRTDFEBlJKtX6JUv+iTzCcycOTOlD8vfdb9+/bI2Ll0YDLlO+iDJbAK9evVK2yfmzJmTtWES2sP7THD25X4dhyRfIpw2O1t5vhSaTCu30PZyvd4E5IcQ+bLs9HHv9uuvv85qvPww4M3v7Oc62yVrJXwIgQgS4LkcQaeWuUkSqqpu3bq+e7J8z/v4448Lssy0cqWxCKAFuTw2FyOAGuTqYgug0nQZnei8uMoosGeffTYtERFLRex08spWbq7ZpoCnLSjpZDEFUIlD6rUvl1E76cQj7yiItWvX+sp26kk3VX7Pnj2J5s2b2/llcal8UpgCaPIv0PPnz8/HRK7RkECmL6WZpjTKSD8R8p3+7Gzlb5uFsTR0cI4myWImyWE7xMfyQ9aHH36YtjQZ0e/0A+9WYjTHIVawiELedjv77dq1S8sr6EnTyg3aLvKZTWDZsmVp+3uzZs0Su3btSts4Z3aL87fhbMNafDKtEZyEgKEEeC4b6jiNzc50H8/0nT5oU0wrV9qFABrUu/HOhwBqkP/DEEBllWh5eZVfjjJN55ZfgGRRIeclV7YikMjq8YWmYgqgYot3GrDE2gmaZESUt32yL3EVJcnoUGeBJZne5c0nwqk3yfRQZ2VUEZQ3b97s/TjwfpgC6Pjx431tSCfiBjaUjFoRkC+smeL6yt/DV199ZdsrQtaUKVNSfjGWvi3imKwKT4oGgU8//dR3X3TuX+Jnuf/KDzaSvv3228SIESN8o8OdvCJ+fvPNN9EAUkkrMs2MyPfHLKc608p17GYbfQKZYkjL6FD5TGaNSPrss88Sd999t+/9wblHdO/evdLQGtEnSQshEIwAz+VgnMgVjEC6EG1ybxbdoJBkWrnSVgTQQjwen2sRQA3ydRgCqASrd6a1ywjP5OHyMp3JEf+cF13Jv3LlyqKQK7YA6p1iKHEugyb58i+irtPGjh072qNbn3/+eXcElXwZEIHp0UcfdfMJiwkTJiTeeOONxNChQ90yRDDYsmVL0OpT8oUpgN57772u/bIIAilaBERo8f4dOH06yFZE+yAxQ6NFLPqtkdHxmRY8qaxfyA86cfuRpE2bNu490uEj4nChybRyC20v15tDQEZ+pxst7vT/bFvC6JjjZyzVhwDPZX18Ybol8t3U+S7vvVcXOlDJtHLFjwigpvfm0tiPAFoazkWpJQwBVAx79913fTdO+aLcvn37lNFhIhA+/PDDCYlvWaxUbAF03rx5vi+uImwGTUuXLk07UkoeJp07d/aJADJ6Lt3DRvLKytm51JvOvjAFUG/Mr2eeeSZd9ZyLAAEJddCtWzff34P3xci7L9MdZTSzM9InAs2nCWkIyA81EtvY6/tM+xICZNWqVWlKif4pGSkt93F55sk/mSmRaYZELjRMKzeXtpHXfALSx//2t7/5QiNluj/I34XElxYRhwQBCORPgOdy/uy4soKAiJ2yqK3csyW0lSxyV4xkWrkIoMXwevTLqCJNtP5YSAYQGDVqlOrUqZNrqRVIW1m/vLvHhexYAe/VmDFj1Lhx45R1s3OLsqbGKytOqGrYsKGyRDl14IEHup8VY0fqvPHGG+2irFGTauHChQUVawk46oQTTlBWfDu7HEtgVdZozsBlyvWvv/66ska+Kis+orKm1Ktf//rXqnbt2illWHF8lDU9TK1bt05ZXxzUcccdp84///y0eVMuruSE2Dx27Fg7V9++fZX1RaOSK4J9vGbNGnXaaae5ma1Rqurggw92j9mJHoGdO3eqDRs2KGtRMGVNu1LWio723/EvfvELJf+OPfZYddhhh0Wv4bQoIwG533v7hBXmQ9WsWdPtD9Ivfv7zn2e8ng8gAIHoEpCvBZawaT8v5Jkhzw5rJJD9biPPC+ffvvvuG10ItAwCJSbAc7nEwKkukgREx7AGcblts8KzqCFDhrjH7EBACCCAGtQPwhRAkzFY8d5U9erVVdgvuMUWQKUdjzzyiLrnnnvsJlnT99WSJUuSm6f9cVgCqLWSvbKmctrtlweENcVfexYYCAEIQAACEIAABCAAAQhAAAIQyEQAATQTGc57CSCAemlovl9KAbRUKMIQQGWE29FHH+02QUa0nnXWWe6xCTthCKAiantHe8ro1d/85jcm4MBGCEAAAhCAAAQgAAEIQAACEIBAWgIIoGmxcDKJAAJoEhCdDxFAg3vHWgRGPfnkk/YFXbp0USNHjgx+sQY5wxBAn3jiCXXbbbfZrbvkkkvUrFmzNGgpJkAAAhCAAAQgAAEIQAACEIAABPIngACaP7s4XYkAapC3oyiASoxOa7EN2wvFiAHquNNabEL96le/UtaCTfaprVu3Fj1+qVNXGNvf/e53ygrkbBddjBigybFRV69erU499dQwTKdMCEAAAhCAAAQgAAEIQAACEIBAyQgggJYMtdEVIYAa5L4oCqB//OMf1cCBA20vHHPMMfaCQvvvv39RvGKtcK5+//vf22XJIkIiJJqQRKwUMfjNN9+0zb3uuuuUtZpfQaZPnDhRXX311XYZEgd0+PDhBZXHxRCAAAQgAAEIQAACEIAABCAAAR0IIIDq4AX9bUAA1d9HroWmC6D/+te/bBFy7969SlZQ/+CDD9TKlSvd9snOAQccoJo0aaIOOugg9dOf/lQ1b95cXXPNNb48QQ+knnPPPddd1V7XUY/z5s1T//u//6v27Nljj1hdtGiR2rx5s6+ZderUUWeccYa9MrMsTHX77berevXq+fJkOpCVJU8++WS7TOH70UcfqUMPPTRTds5DAAIQgAAEIAABCEAAAhCAAASMIYAAaoyrymooAmhZ8edWuekC6IYNG9Sxxx5rN1qEOBE4RcxzVpr/7rvvlPzbtWuXnUemrz/22GPqzjvvzA2UJ7eInqeffrp9RkZVzp8/X1WrVs2To/y7zuhMYSIpGxdnSv/ixYtVw4YNAxnfqVMnJX1H0vTp01WLFi0CXUcmCEAAAhCAAAQgAAEIQAACEICA7gQQQHX3kB72IYDq4YdAVpgugAZqZAiZpk2bplq2bGmXLCMnH3/88RBq0bPI559/XnXo0ME2bvDgweqee+7R01CsggAEIAABCEAAAhCAAAQgAAEI5EEAATQPaDG8BAHUIKcjgObvrIceekj17NnTLmDEiBHq1ltvzb8wQ66U0a6/+c1vbGvbtWun5KFQpUoVQ6zHTAhAAAIQgAAEIAABCEAAAhCAQOUEEEArZ0QOpRBADeoFCKCFOUsWQurfv79dyJQpU9SVV15ZWIEaXy1T/88//3w7pqiIn6NHj3ZDDWhsNqZBAAIQgAAEIAABCEAAAhCAAARyIoAAmhOu2GZGADXI9QighTtr5MiR9uhPiQe6cOHCwgvUtIS2bduq8ePHq+7du6tHHnlEVa1aVVNLMQsCEIAABCAAAQhAAAIQgAAEIJA/AQTQ/NnF6UoEUIO8jQBaHGetW7fOXmgp6Crqxam1tKW88847aseOHeqcc84pbcXUBgEIQAACEIAABCAAAQhAAAIQKCEBBNASwja4KgRQg5yHAGqQszAVAhCAAAQgAAEIQAACEIAABCAAgdAJIICGjjgSFSCAGuRGBFCDnIWpEIAABCAAAQhAAAIQgAAEIAABCIROAAE0dMSRqAAB1CA3IoAa5CxMhQAEIAABCEAAAhCAAAQgAAEIQCB0AgigoSOORAUIoAa5EQHUIGdhKgQgAAEIQAACEIAABCAAAQhAAAKhE0AADR1xJCpAADXIjc8995waOHCga/EVV1yhhg0b5h6zAwEIQAACEIAABCAAAQhAAAIQgAAE4kRABNB+/fq5Tb700kvVyJEj3WN2ICAEEEAN6geMADXIWZgKAQhAAAIQgAAEIAABCEAAAhCAQOgEGAEaOuJIVIAAapAbEUANchamQgACEIAABCAAAQhAAAIQgAAEIBA6AQTQ0BFHogIEUIPciABqkLMwFQIQgAAEIAABCEAAAhCAAAQgAIHQCSCAho44EhUggBrkRgRQg5yFqRCAAAQgAAEIQAACEIAABCAAAQiETgABNHTEkagAAdQgNyKAFu6svXv3qtGjR6sdO3aobt26FV6gpiVMnTpVrV69Wt1xxx3qZz/7maZWYlbYBLZu3WovlNawYUPVokWLsKsrW/n097Khp2IIQAACEIAABCAAAQiUnQACaNldYIQBCKBGuOk/RiKAFuasXbt2qeuvv15NmTJFNWjQQC1ZsqSwAjW+ukuXLuqpp55S9erVUzNnzlS1atXS2FpMC4PAJ598opo1a6Y+/PBD1bNnTzVw4MAwqtGiTPq7Fm7ACAhAAAIQgAAEIAABCJSFAAJoWbAbVykCqEEuQwDN31nbtm1TrVq1UvPnz1cHHHCAWrlypfrlL3+Zf4GaX/ntt9/a4tfSpUtVnTp11Jw5cyLdXs3dUXLz3nnnHdW0aVO1efNm1ahRIzVv3jy1//77l9yOUlVIfy8VaeqBAAQgAAEIQAACEICAfgQQQPXziY4WIYDq6JUMNukigIqosmzZMtvKqlWrqn333df3b5999lGJRELt2bPH/icjL7///ns7f/PmzZV8Xsr0ww8/qNatW6uXX37ZrnbatGnq8ssvL6UJZalrw4YN6tRTT1Xbt29XdevWVYsWLVIHHnhgWWwxudL33ntPrV+/3u63P/nJT5T822+//eyt7MvfgPSx3bt3+/r7oYceaouPpW77l19+qerXr68+++wzW+yXUAjHHntsqc0oeX3095Ijp0IIQAACEIAABCAAAQhoQQABVAs3aG8EAqj2LqowUBcBtFOnTkpsySe9+uqr6qKLLsrn0ryv6d27t3rwwQft6++991710EMP5V2WaRcK70suucQ2u2XLlmrSpEm2YGdaO8ppb+3atW0xMR8bJNZs9erV87k0r2vkh4ZLL73UHuksBcRF7Hdg0d8dEmwhAAEIQAACEIAABCAQHwIIoPHxdSEtRQAthF6Jr9VFAP3Tn/6kJk+ebI/qFMFly5Yt6v33389I45hjjlFHHnmkkq0sQHTQQQdlzFvsDyZMmKCuueYau9jGjRvbU4Fl1F6c0gMPPKD69OljN1m2/fv3j1PzC27rjTfeqD7++GN3lOfGjRuzCqInnniiOvzww9W5556rHnvssYLrz6WArl27qhEjRtiX9OjRQw0aNCiXyyORl/6e3Y2ff/65/UOIjGr+4IMPlIxwlj4tQv9JJ52kjj/+eCV9+Oqrr1Y1atTIXhifQgACkSOwYsUKNWvWLPu5J+928k8W1Dv55JPVCSecoI477jh15plnqiuvvFJVq1Ytcu2nQRAoNQGey6UmTn1RJYAAGlXPFrld1lRlkiEE/vznPycs97v/evXqpY3lVgy+hBVr0rXNsdMacVg2G7/66quEFe/Ttkm21hTZstlSzoqtle8TVugB1zdW/NNymhOJui3xyOXp9HXpY3K+XGnBggWuTZbYn/juu+/KZUpZ66W/p8cvffOWW25x+4jTb7Nt77vvvsSmTZvSF8hZCEAgUgRef/31hBUeKPA9wvpRO/H0008ndu7cGSkONAYCpSLAc7lUpKknLgT+8pe/+J5h3bt3j0vTaWcOBBgBan37MyXpMgI0E6/kqcKy+I6MMCpXuvPOO9XQoUPt6l944QV7Bfhy2VLuemVEh8SFlCSL48ydO1dVqVKl3GYZW7+srC6jYLxJViIfOXKk91TJ9iUGqfhXFveS9NFHH8V60Sv6u7/rzZgxQ1122WX+k9aRLAjXuXNnddRRR9mjvcaOHWvHDPZmlDyWuK7OOuss72n2IQCBCBHo169f2tkhEj/82muvtRfRk9jvf/vb31JaLc+e2bNnq0MOOSTlM05AAALpCfBcTs+FsxAohAAjQAuhF6NrcxBLyVpmAjqPALUEId8vLtafUOK2224rG7G1a9e69hxxxBEJa0GmstmiS8VWLFCXyYsvvqiLWUbakfwLo/T38ePHl60t1o8jrm/btm1bNjt0qpj+/h9vWOFK3L4h/dT5d/fdd6fcF2Ukf8eOHd08Tl4Z3bxkyRKd3IstEIBAEQj8+OOPCSs2esrfvPztp3tPsMLBJCzBMyV/vXr1EtYCmUWwiCIgEH0CPJej72NaWB4Cyd/PGAFaHj/oXqus1k0yhIDOAmjyDUdensspCLVo0cJ9QR8wYIAhHg7XzJkzZ7pMRBS2FugJt8IIl37zzTe7LB2RyIrhVJYWf/PNN26oB7FFpjGSEgn6eyKxbt26lH4qfaRbt25Zu0ibNm1SrhMRVPoaCQIQiA4Ba7RMyt+63CNeeumljI3ctm1bQqa/O88+ZyuhdkgQgEB2AjyXs/PhUwgUQiBZj0AALYRmdK9FADXItzoLoDoJQtY0Ld+LOTHs/tPJZaSHNZ3NZSMPCVJ+BJK//FmLxuRXUBGuGjZsmOtTGYVD+g8B+nsikU7IFLHCWvQoazf57LPP3D7liBuytRbWynodH0IAAuYQkBHf8mOo929c9uU9obJkTYVPuU6unT59emWX8jkEYk2A53Ks3U/jQyaAABoy4IgUjwBqkCN1FkB1EoRuv/1298VcpnOSKgh4HwwXXHBBxQfsBSagW7gHr6g9evTowO2IQ8Y49/dFixa590GvwCGhAYKkBg0apL0+rovJBWFGHgiYRGDw4MFp/8YHDRpUaTO+/vrrtNfKj4Hy4xMJAhBIJcBzOZUJZyBQTALe935592UEaDHpRqcsBFCDfKmrAJpOEOratWtZyMpqpDJV0/nCv3Tp0rLYoWulMu3dYSPbd999V1dTtbUr+eEqHCdMmFAWexcvXuz6U/o9YQ38bohzf/f+EOT9mx8yZIgfUoYjaxE5t295rx8+fHiGKzgNAQiYREDESu/ftrMf9L1JZhw413i3y5cvNwkDtkKgZAR4LpcMNRXFlEDydzQE0Jh2hEqajQBaCSCdPtZVAH3++edTXoLLJQh5p2XJ1C5SKoHGjRu7/mJKayqfys7cdNNNLj/nS19lU4orKzPfz2WhMccGsYuUSiCO/f2HH35IO7VV+soLL7yQCinNGRFKnb7l3TJyPA0sTkHAMALy46f379q7/8knnwRqTcuWLdOW0b9//0DXkwkCcSLAczlO3qat5SKAAFou8mbViwBqkL90FUB1EoSuu+4694Vc9kmpBHr16uUyKmfsylTLzDijS7gHmWboHe389NNPmwGwxFbGsb+//fbb7t+4V9iQfVkcKkhKfon0lsNiSEEIkgcC+hJ44oknMt4jtm/fHsjwdLHf5T4h4TNIEICAnwDPZT8PjiAQBoHkd1dGgIZB2fwyq0gTrBcWkgEERo0apTp16uRaan2xV9YK5+5xuXZq166trEUz3OotUU2999577nGpdqQr16pVS23evNmucujQocpa7bgo1X/wwQfKGjFhl33wwQerc845R1lCWErZYoPkXbFihdq7d6+dp2HDhmq//fZLyVuuEzNmzFCXXXaZW721SJSqWbOme8xOZgJWuAd13HHH+TJY4R6UNS3Yd64UB9IfTznlFLeqt956S5199tnucb471igFtWbNGmWtVKqsL8LqqKOOUtKHa9SokVLk999/r1avXm3/q169uqpTp44688wzVZUqVVLylutEHPv7+PHjVdu2bdMiD9pPkrl5C1uyZImyRA7vKfYhAAGDCNx6661q5MiRaS0O+rXAmkGirDiiacuQ95+qVaum/YyTEIgjAZ7LcfQ6bS41gXHjxqn27du71VoCqLJmNLnH7EDAJmC96JAMIaDjCFBL7EsZRVCu+J/vv/++z5bXX3+9YM9KLKtmzZr5yrX+cOxjS2BIfPXVV24da9eutUc+OJ87WxmlFzTunltYiDtis2ObbCdNmhRibdEqWqdwD88995zPj7t37y4YtvWCnsgUF65v374J60utW8fLL7+cdpq1XB90lKFbWIg7cezvMgXV+zfu3Zd7dpA0Z86cjGXIL+wkCEDAXAISysJ7X3D2cwkd1K9fv7RlSFkSG54EAQhUEOC5XMGCPQiERYARoGGRjVa5TIE3yJ86CqA6CUKyArbzEi/bbdu2FeTduXPnuuVJsH9rtIQtFrZq1co9Lytwb9myJSGLBjh1t2nTJiGxSEVMcs7JVgQrXZJ35fC77rpLF7O0t0OncA8dO3Z0+1ejRo0KZvfwww+75UkfHzt2bML6JTXh7Svt2rWz63nyySfdvNJ/pk6dmnjsscfcc9LfrVGkBdtUrAK8bYhDf0/XT517UdBV3BcuXOjzp3O9bB988MFiuYZyIACBMhAQodP7N+3sW6P4A1szcODAtGVIWa+99lrgcsgIgTgQ4LkcBy/TxnITQAAttwfMqB8B1Aw/2VbqKICme6CXa0EYifPhvMSL4FFImjJlilvWs88+6xv5Zk37TYjg5NTVoUMHdyScxBt00g033ODmkbyXX36581HZt507d3Zta9q0adntMcWA5C+N5Yyh6hX1Co1x07NnT7s/SPuSv7j+61//8sUa9a4OPn36dNt1EhMyeeToo48+qo1b49bfvT/SOPcpZyv+DJKsae7uPcK51tnGQUQOwog8EDCVgPO3nLzNRQBN/tHLW5b8KEaCAAQqCPBcrmDBHgTCIoAAGhbZaJWLAGqQP3UUQHUShLwrkor4mG/66KOP3C/+MgouXRo2bJibx3npl5cbWeVRkqyi6px3tsUYpZfOlnzOeReGkUV9SJUT0CncgyyA5PQr2cq9Id8ko5WlDAnVIEH606V0L+5WjF0361//+lefPVJe79693c/LvRO3/p5peqv4JegPVN5R7XKd958sfkKCAATMJLBnzx7f37P3bzuXH/UktI/3Wu8+YTLM7BtYHR4BnsvhsaVkCDgEEEAdEmyzEUAAzUZHs890E0DTCUK333572ah5R6AVEoe0devW9kt9NgEnneCzatUqt+0Sf9T7ZUD2dRo1JaPzvPbJFyJSdgLpwj1MnDgx+0UhfWotXOXz34QJE/KqSVb7dX7EmD17dsYy/vCHP/jqk2u8fcZajM33ufQtnUYAxa2/e0eoe//OZf+LL77I6GfvB9ZiSSk+dcqyAsx7s7IPAQgYRGDHjh0Z/7ZzmT0jP4I594TkrU4hfwxyDaZGmADP5Qg7l6ZpQwABVBtXaG0IAqjW7vEbp5sAKqMjk1968xGEZNTktGnTCooZmDwiLpt46afqP/LG/fz666/9H3qOkkeAykJJ3vTtt9/6pgQ3b97cjhXqzZNpX6aoihg1efLkhIgQ1qr2mbLmfT55AZ2gC6PkXWEELvTG3HT6fdDRdNL8Yvo1eXReNvEyG3onKH9lYRCSR4CK4OlNMnLUYSJbmZIvf5OVJQknYa02n5AFlWQ6vfyIsHXr1souy/nzuPV3a4V2nz+8vvnyyy8D8Vu2bFnGMrp06RKoDDJBAAL6EZD46N57gnc/FwE0+T3IW86LL76oX8OxCAJlJMBzuYzwqTo2BBBAY+PqghqKAFoQvtJerJsAmk4QkpFpuSSZKn7JJZfYL+OyzTft3LnT90Kfb/xBGdkkL/HeWJ7pbHLyOS/8TzzxREo2GWWxaNGiQKuhimB63333+WItOmXLVhZhEsFZ2lmMJOKqt3wRO0jZCTgjJR1uQaYKhuXXV1991ee/xYsXZzc+w6dOmypbtd3J57Q93VR5EeoXLFgQSOj/9NNPE23btvW1wSlbthLOQkRdJ6REBvMDn45bfw/7i5bEfiZBAAJmEiiFACozJkgQgEAFAZ7LFSzYg0BYBBBAwyIbrXIRQA3yp24CaLIoUpkgJCMqZWXoefPmJZ5++ulEixYtfAJI48aN8/aGrMTuFVBk4aJ8kjNF5fPPP896uSwU4K1v9erVWfNn+/DNN99MSBxOKU/qHzFiROKll15KDB482BaCvPXUr18/kMCUrT75TIQqb7my4jMpM4H169f7eAm7ysI9hOlXGTHp9d8777yT2fgMn8j0dylDxPVsozU/++wzX10SK7QQYdI7GlPCTYwePTohcUhl1Lb0b2+7JNZkIXU5TY9bf3fuY16Wzn7QEeVMgXd6D1sIRItAsabAZ4sByhT4aPUZWlM4AZ7LhTOkBAhURgABtDJCfC4EEEAN6gf33nuvTxxo06ZN2azPRxB65plnfPaLkCL/nC/mhQigySKNCCr5pA8//LDSqfgy7dmxWbaFCEIyHdURkjONmBAx1MtJfkUWwbeQlDxlOd8p1IXYYNK1uYZ7CNuvMr3Q2weDruydzHz58uX21Pzk895jiS/qrUtGbuabRGiXskTwl2n8yUmmxPfr189Xn8QfLVQEjVt/l5AGXp959yv7ccfxiQj43uu8+507d3aysYUABAwj8N1332X8267sh2xvUx955JGM5YwbN86blX0IxJ4Az+XYdwEAlIBA3759fc+lyy+/vAS1UoVpBBBADfKYjJDyfgm98sory2Z9roKQGPrPf/4zISMGZGSATA0XsUNGfzltKkQA9a7cLuWFuQCLxDl1bJZtIYJQu3bt7LKEQ7bkrNTt1HvNNddky17pZxJ30SlLtvlOoa60oohkyDXcQ9h+Tf6F86uvvgqNtIx09faVJ598Mq+6ZNEkR+xfu3Zt1jJuueUWX53pQkxkLSDpw7j1d2chN6/fnP0NGzYk0Ul/+MYbb/h84Fwv23vuuSf9RZyFAASMIOD9e/buy+yWoGnQoEEZ7xES150EAQhUEOC5XMGCPQiERWDgwIG+59Kll14aVlWUazABBFCDnKfTFPhcBaFMmIslgMqoJu9LvKzSHlbq1q2br658BSERgB2bZRGlbNPoZYpycvwgGfWab0oeETdnzpx8i4rFdY5w5/gr2yiZUvh1/Pjxbt8RmySmZlhJFsVw2i1bWagon+SdUn3DDTckvvnmm4zFyErl3jqz8c5YiOeDuPV3CR3g5efdD7rgmYQq8V7n3RfhgwQBCJhLwAm74/27ln151gVNziJ6yWXIsfyAQoIABCoI8FyuYMEeBMIikDxARBZlJUEgmQACaDIRjY91EkBzEYSyIS2WACrxRb0v4RJjNKwkYoy3rpUrV+ZVlVznLUcWVsqW+vTp48s/Y8aMbNmzfvbaa6/5ypIRuaT0BHIN91AKv8roGm/fkdi6YSRZ1MxbTyHhHkaOHOkra9SoUVlNlhHh3rpl4Y58U9z6e/Iv4F6OQe9X06dP9/H3lsEKz/n2RK6DgB4EnMUnvX/Xsi/3+KApOSyTt6xCfqANWj/5IGASAZ7LJnkLW00lgABqqudKazcCaGl5F1SbLgJoOkFIRkXmk4olgO7evdv3Zf3hhx/Ox5xKr5FYi96X/EIEIRnx6S2rsmntIhh581c2bT5bY5IFNAlPQEpPIF24B4nLmimVwq9z58719YWwBOxihl546qmnfDaLIJotyQ8C3v4u09jzTXHr78mr3ns5Bu0ryaOMvWXIiFoSBCBgLgEZFeP9m/buB23VbbfdlrYMeS/KtrBe0PLJB4EoEeC5HCVv0hZdCSCA6uoZvexCANXLH1mtCUsAlYVQZEqqrMAsosP777+f1Q6vaOm8NGcThLIV5i2rkBigUoe8dDv23HfffdmqzfszmVrv1CHbykTLvXv3JiTmXrovA3KuefPmdnlie2VTxh544AFf3TJCK98kCxR425HvIjr51l/O6yZNmpSQoNgSUuCuu+5KyGro2VKu4R5K4ddkkXXmzJnZmpD3Z7IAkbefVBaLU1YXlunr6ZL0MWfapYyillHb2VLyggFbt27Nlj3rZ3Hr78kxT70+DDpyPFmw9paxc+fOrLz5EAIQ0JuA993L+7ct+0FH20v88+Rr5Vju3SQIQMBPgOeynwdHEAiDAAJoGFSjVyYCqEE+DUMATY6NJy+vIoRmSy1btkx56ZWpsvkk70t4oQKoN0amjEwII8nqx94X/soEIWfhKln9OlOSqWKyQExlKZm7rFifb0qejixCbRzSs88+6/Of+DLbgi67du3yCeuSX2JiBklh+lXEQG8/lNF6YSRHsHTqqmzkX6NGjWy7ZER2uiTxUT/55JO0Pwh488vfg/cHDbGjkBTH/p4cqsPxYWWhBxzOmeL7tWrVysnCFgIQMJRA8mwW5/4g23fffTdQqy644ALfc8gpY9iwYYGuJxME4kaA53LcPE57S00AAbTUxM2sDwHUIL+FIYBmWpVQhIp0SUYzOi+5zraQL8TFFECvu+4617YWLVqkM7/ScyIEyoryMpItOcnIvlwEIRGpHBHnnXfeSS4up+PkX45l5GghyStuyAtZHNIPP/zg+sPpu7LNNloleQq45C/ml7tC/Or0LbHpkUceycuFMpJPhPR0f+/JoS6kPmGYKb3++uv235/kKzQ9//zz7t+ytO+hhx4qqMg49ndvm4Wh869Hjx6BWGaKESgvlyQIQMB8ApkEzCCzS+QdybmnJG/lHYoEAQikEuC5nMqEMxAoJgEE0GLSjG5ZCKAG+TYMATR5MSN5kc022mrAgAEpL71BY8qlQ11MAVSmvTsv4vmIMPLS7xWVpk6d6jP5zTffdMt36kknHDkXiVAm+SobUevkz7bt0KGDr+6lS5dmy17pZzIF3GmDjCyNQ0oWG532y8qcmVKzZs1cTpJf+kdlU+YzlZXufCF+dUZbil0yFTHX5P1blvtA8urgIqo6jGRb2Y8K8kOI5JOFMQpJ8sW6Tp06bt1yP6psunxl9cWxv4s/vf5z9oVnNiFbWEoYAye/dyv9v5BQBJX5SZfPZQSz/H3IjyMS5iT5WZCvnaaVm287uc4MAskhfZy/9ZtuuqnSBmSKZ1jZc6LSgskAgQgT4LkcYeeWuWmff/554pZbbknIdwPZFmttB9PKRQAtc0c0pHoEUEMcJWYWWwAV8c554fVun3zyybRUNm7cmEgWTLONnktbSNLJYgqgyS/kMtU2aPr3v/+dwiJ5ZGvXrl19eUSkyZREJHNYLViwIFO2QOclvmoQ/wQqzMokI1m9Qq980Y9DckYoelnKfqZp3ckLDUleicNarFSoX72LWGT70SKdva+++qqvT0nbhg4d6maVPiJT/b2sJB5opiRxhCWv9KuvvvoqU7ZA52VBNW+9hYr9ce3vArtXr14+lg7XOXPmZPWFhPZw8h0v9ZgAADmDSURBVHq3cr+OQ5IvD952y748XwpNppVbaHu5Xm8C8kOI94c0b5+v7Ecn+WHAm9/ZL3S2i97EsA4ChRPguVw4Q0rwE/juu+9S3tnlffzjjz/2Z8zxyLRypXkIoDk6OabZEUANcnyxBVBpuoxOdF5c69Wrl5AYiemSiKUidjp5ZSs310ziUboy0p0rpgAqcUi99uUyakcWkfFeK/veURBr165N+VzypJsqL/ELncWNZHGpQtKqVat89UofKDQl/wI9f/78Qos04votW7a4LEWclul/mWKzSnw0r0gsvpa/j8q+FAYFUQy/JguouQiP6V7AZdq5k7x/l87fRaYfOz799FNX7C+0f3pfXIT/kiVLHJPy3sa1vwswWcxExHHHh85W+n+mGMIyot/J591KjOY4xAoWUcjbbme/Xbt2efdBudC0cgtqLBcbQ2DZsmVp+7vMfpAY2OmSM7vF+dtwtmEtPpnOBs5BwFQCPJdN9Zy+dme6j2f6Th+0JaaVK+3yfo+QZ5MMFiFBIJkAAmgyEY2PwxBAe/bsab/8ymivTNO55RcgWVTIecmVrYgTMuqr0OQVWgpdBEls8QYYl1g7QZOMiPK2T/ZlBKAkGR3qLLAk07u8+ZJX35bpoc7KqCKYbd68OagJKflkIQJnFKnUmYugm1KY54QsmONtQzoR15M9UruOH7t06ZKxXV9++WVC+qKXkVwnAmoxUrH8KtNSvDY6/TWIjf369fNdK3/P0m5J8qOGI/4mxwhOFoBFXHT+5tq3b1+QQDZp0iTXJhHt3n///SBNqTRPnPu7wBGB2vGRt7/IvUXuv84CbN9++21ixIgRru+9eeXv4ZtvvqmUdRQyZJoZUeiPWaaVGwVf0oZgBNLNdpC/fxkdKp/JKHpJsrDf3Xff7d6nvfcI+ZJZWWiNYNaQCwLRJ8BzOfo+LmUL04Vok/tzoYMSTCtXmCOAlrLnmVsXAqhBvgtDAJVg9Y7IJiO8kofLy3QmRzRyXnYl/8qVK4tCrtgCqHeKocT9C5rky78j+kg7O3bsaAtBMirOGUElXwZkRMSjjz7qfgEQFhMmTEi88cYb9hRipwwRDAoRzIS74xfZykOoWEliNDq+lFGQcUoS59Vpu4Q0SI7nOW3aNJe7k098mSz85cus2H71xsp87LHHApuVPMrv6aefTixevDjx8MMPu3zuuusuuzxv/ExhIdPnZdTwnXfe6eaVH0gK+fI7ceJEtyypQ8TdYqU493eHoYyOz7TgidPPM23lB504/UgizNq0aeP2R4eLiMOFJtPKLbS9XG8OAXkmOO86Tp8Puo1LGB1zvImlJhDguWyCl8ywUb6bOt8ZvfftQgcqmVaueAsB1Iw+W24rEUDL7YEc6g9DAJXqk0ekyRdlGc2VHANQxD0RSJJFoxyakJK12ALovHnzfF9cRdgMmiTWYLqRUvIw6dy5s08EmDJlStqHjeSVRXVyqTfZvjVr1rhli+gq07GLmbwxv5555pliFm1EWclTxyXWq4g8yS8P0hdkFfhiTfsNw6/eFUVl1e5c0tixY32iv/elaeTIkW5RMgLcK4x688k9QX4QKCQJY6dMiTMqC8UUM8W9v3tZyg81zmJVDvNMWwkBIqEa4pgknITcx6V/yz+ZKZFphkQufEwrN5e2kdd8AtLH5X7sDY2U6f4gfxcyk0BEHBIEIJA/AZ7L+bPjygoCInbKorZyz5bBEbLIXTGSaeUigBbD69Evo4o00fpjIRlAYNSoUapTp06upVYcP2X98u4eF7JjjXBTY8aMUePGjVPWzc4tyhJBlfUyrBo2bKisFavVgQce6H5WjB2p88Ybb7SLskZ+KSsmY0HFWlO11AknnKCs+HZ2OZbAqqzRnIHLlOutxXKUNVJPWSshK0sEU7/+9a9V7dq1U8qw4vgoa3qYslYXV9YXB3Xcccep888/P23elIsznFi9erVdhiUyK+sLuLIWI1H77befL7c1aldZo9qUJRYpK06X77PKDiwRTp122mluNmuUqjr44IPd47jsrF+/XlmLfSlrxKeyplq7zbbEMnXmmWcqazS0skZrqWrVqrmfFbITll+tEdvqV7/6lWua9MXjjz/ePa5sZ+fOncoa0Wn/vUifk7916cPp+oQ1ZUv94x//UNa0d7X//vvbfxvCyfoiXFk1GT9/8cUX1fXXX29//tRTT6nf//73KXlfeeUVZYm16vHHH1dHHnlkyufZTtDf09OR+/2GDRuUtVCcEr9aYT5UzZo11S9+8Qt17LHH2tuf//zn6S/mLAQgEGkC8rXAEjbte4PcH+Q+YY0Est9t5P7g/Nt3330jzYHGQaCUBHgul5I2dUWVgOgY1iAut3lWeBY1ZMgQ95gdCNgEoq/xRqeFYY0ATUdIpvw6seHSfV6sc8UeASp2eUeryfR9U5I39qK0IVNyRszJVORckzeWq4zyJSXsEZ4SrqCQKdzZOIbtV29c2h49emQzRavPrJcU+5dqGUmUrS87YS3ymYZNf9fK5RgDAQhAAAIQgAAEIACBUAgwAjQUrJErlBGgBgnhYY4ALReGYo8AlXZY8QPV0Ucf7TZJRrSeddZZ7rGOO5ZIpqzQA0pG4VkxRe3Rh5nsvPXWW5U1RVlZCxL42pkpv3PeWsTEN7JPRq/+5je/cT5mGwKBUvjVmtLv9hcZjWktvGWP0AyhOUUr0vmF1oo5p6yFxJSMNM+UTjrpJGWFIbBHnmbKk+48/T0dFc5BAAIQgAAEIAABCEAgegSc7xdOyxgB6pBg6yWAAOqlofl+FAVQmaJuxZqzyRdjCrzjQmvUmD3FWY6tFb9twdD5TLftihUr1IUXXmiLn3Kjlv3kJFPzrRG59rT8bt262R/LuSpVqiRnzXgs0+mtEXH251a8SDVr1qyMefmgcAKl8quEX5Bp+2vXrrWNlmnl1157beENCKkE748e1sIySkTQ5CSCp0y5tBZbU4888oiyVqNXIvTmkujvudAiLwQgAAEIQAACEIAABMwlgABqru9KaTkCaClpF1hXFAXQP/7xj2rgwIE2GRFCJIahxBcsNFmLTdixEWVEpaStW7cWPX5poTbK9cuWLbNHYTp2Bi0zV7E4OTaqxKQ89dRTg1ZHvhwJlMqvjlnWquzuaF6Jy2ktBuZ8pNX2ueees2Pb5mpUnz59lLXgU+DL6O+BUZERAhCAAAQgAAEIQAACxhNAADXehSVpAAJoSTAXpxLTBVBrNXPVt29fezqrLCAki6nICC9vkim8TZo0UQcddJD66U9/qpo3b66uueYab5bA+9YK5+6iKtZqpXbdgS8uQcaNGzcqmd6bq/gppskCSLKIT9A0ceJEdfXVV9vZu3btqoYPHx70UvLlSKCUfvWaJosJyehPSbKw0UUXXeT9uOz7f//735UVrzQvO6zVLNV1110X+Fr6e2BUZIQABCAAAQhAAAIQgIDxBBBAjXdhSRqAAFoSzMWpxHQBVFYdltVDJYnQKQKnrCLqrCT63XffKfknU18liTD42GOPqTvvvNM+zvU/mUZ77rnnuqva6zbqUUYJnnPOObk2y84vAqYImUGSrCx58skn27EhhbusIn/ooYcGuZQ8eRAolV+TTZOYsLVr17ZP16lTR61atUpVr149OVvZjocNG6YkxEM+KZc4vvT3fAhzDQQgAAEIQAACEIAABMwlgABqru9KaTkCaClpF1iX6QJogc3P63IRPU8//XT7Wpk2LlOFq1WrlldZpl7UqVMnJX1H0vTp0/MehWdq++Nkt7X6ofrd735nN7lnz55ueIk4MaC/x8nbtBUCEIAABCAAAQhAAAJKIYDSC4IQQAANQkmTPAig+Tli2rRpqmXLlvbFt99+u3r88cfzK8jAq55//nnVoUMH2/LBgwere+65x8BWYHIuBO6991718MMP25dMmDDBXSE+lzJMzUt/N9Vz2A0BCEAAAhCAAAQgAIH8CSCA5s8uTlcigBrkbQTQ/J310EMPKRkRJ0lWnr711lvzL8yQK70L47Rr187+VSyXVeMNaSZmJhGQ0A+//e1v1SuvvGJ/snjxYtWwYcOkXNE7pL9Hz6e0CAIQgAAEIAABCEAAAkEIIIAGoUQeBFCD+gACaGHOkoWQnJWkp0yZoq688srCCtT4apn6f/7559txVEX8HD16tBtrVWOzMa1IBHbs2GEvHjZjxgw73q7E0Dz++OOLVLp+xdDf9fMJFkEAAhCAAAQgAAEIQKBUBBBAS0Xa7HoQQA3yHwJo4c4aOXKkPfpT4oEuXLiw8AI1LaFt27Zq/Pjx9qIzjzzyiKpataqmlmJWWARkQbHf//73asyYMUrE/759+4ZVVdnLpb+X3QUYAAEIQAACEIAABCAAgbIRQAAtG3qjKkYANchdCKDFcda6devslebr1atXnAI1LOWdd95RMgow31XmNWwSJuVJ4B//+If65S9/qY466qg8S9D/Mvq7/j7CQghAAAIQgAAEIAABCIRFAAE0LLLRKhcB1CB/IoAa5CxMhQAEIAABCEAAAhCAAAQgAAEIQCB0AgigoSOORAUIoAa5EQHUIGdhKgQgAAEIQAACEIAABCAAAQhAAAKhE0AADR1xJCpAADXIjQigBjkLUyEAAQhAAAIQgAAEIAABCEAAAhAInQACaOiII1EBAqhBbpSVy3v16uVafMUVV6jBgwe7x+xAAAIQgAAEIAABCEAAAhCAAAQgAIE4Efj73/+u/t//+38qkUjYzb700kvV0KFD44SAtgYggAAaAJIuWRgBqosnsAMCEIAABCAAAQhAAAIQgAAEIAABHQgwAlQHL+hvAwKo/j5yLUQAdVGwAwEIQAACEIAABCAAAQhAAAIQgAAEFAIonSAIAQTQIJQ0yYMAqokjMAMCEIAABCAAAQhAAAIQgAAEIAABLQgggGrhBu2NQADV3kUVBiKAVrBgDwIQgAAEIAABCEAAAhCAAAQgAAEIIIDSB4IQQAANQkmTPAigmjgCMyAAAQhAAAIQgAAEIAABCEAAAhDQggACqBZu0N4IBFDtXVRhIAJoBQv2IAABCEAAAhCAAAQgAAEIQAACEIAAAih9IAgBBNAglDTJgwCqiSMwAwIQgAAEIAABCEAAAhCAAAQgAAEtCCCAauEG7Y1AANXeRRUGIoBWsGAPAhCAAAQgAAEIQAACEIAABCAAAQgggNIHghBAAA1CSZM8CKCaOAIzIAABCEAAAhCAAAQgAAEIQAACENCCAAKoFm7Q3ggEUO1dVGEgAmgFC/YgAAEIQAACEIAABCAAAQhAAAIQgAACKH0gCAEE0CCUNMmDAKqJIzADAhCAAAQgAAEIQAACEIAABCAAAS0IIIBq4QbtjUAA1d5FFQYigFawYA8CEIAABCAAAQhAAAIQgAAEIAABCCCA0geCEEAADUJJkzwIoJo4AjMgAAEIQAACEIAABCAAAQhAAAIQ0IIAAqgWbtDeCARQ7V1UYSACaAUL9iAAAQhAAAIQgAAEIAABCEAAAhCAAAIofSAIAQTQIJQ0yYMAqokjMAMCEIAABCAAAQhAAAIQgAAEIAABLQgggGrhBu2NQADV3kUVBiKAVrBgDwIQgAAEIAABCEAAAhCAAAQgAAEIIIDSB4IQQAANQkmTPAigmjgCMyAAAQhAAAIQgAAEIAABCEAAAhDQggACqBZu0N4IBFDtXVRhIAJoBQv2IAABCEAAAhCAAAQgAAEIQAACEIAAAih9IAgBBNAglDTJgwCqiSMwAwIQgAAEIAABCEAAAhCAAAQgAAEtCCCAauEG7Y1AANXeRRUGIoBWsGAPAhCAAAQgAAEIQAACEIAABCAAAQgggNIHghBAAA1CSZM8CKCaOAIzIAABCEAAAhCAAAQgAAEIQAACENCCAAKoFm7Q3ggEUO1dVGEgAmgFC/YgAAEIQAACEIAABCAAAQhAAAIQgAACKH0gCAEE0CCUNMmDAKqJIzADAhCAAAQgAAEIQAACEIAABCAAAS0IIIBq4QbtjUAA1d5FFQYigFawYA8CEIAABCAAAQhAAAIQgAAEIAABCCCA0geCEEAADUJJkzwIoJo4AjMgAAEIQAACEIAABCAAAQhAAAIQ0IIAAqgWbtDeCARQ7V1UYSACaAUL9iAAAQhAAAIQgAAEIAABCEAAAhCAAAIofSAIAQTQIJQ0yYMAqokjMAMCEIAABCAAAQhAAAIQgAAEIAABLQgggGrhBu2NQADV3kUVBiKAVrBgDwIQgAAEIAABCEAAAhCAAAQgAAEIIIDSB4IQQAANQkmTPAigmjgCMyAAAQhAAAIQgAAEIAABCEAAAhDQggACqBZu0N4IBFDtXVRhIAJoBYti7a1atUrNnTtXHXTQQaply5bq0EMPLVbRlAMB7Qi8+uqravny5apu3brq4osvVvvvv792NmJQ6Qjs3r1bTZ48WX366aeqSZMmqmHDhmqfffYpnQHUBAEIaE1g48aNatq0aUruFS1atFDHH3+81vZiHARMJ8Bz2XQPYn85CSCAlpO+OXUjgJrjK4UAWlxnjR8/XrVt29ZX6KJFi1SjRo185ziAQBQI3HHHHWr48OFuU+rUqaMWL16sDjvsMPccO/EhIF+yGjdubAviTqtbt26t5L5YtWpV5xRbCEAgpgTee+891aBBA7V9+3aXwNChQ1W3bt3cY3YgAIHiEeC5XDyWlBRPAgig8fR7rq1GAM2VWBnzI4AWF37NmjXV5s2bfYWKILBw4ULfOQ4gYDqB9evXqxNOOCGlGf3791d9+vRJOc+J6BMYM2aMuvHGG1MaOmfOHNWsWbOU85yAAATiRUDuD3KfSE47duxQ1atXTz7NMQQgUCABnssFAuTy2BNAAI19FwgEAAE0ECY9MiGAFs8PW7duVTVq1EhbYCKRSHuekxAwlcCMGTPUZZddlmJ+q1at7CnQKR9wIvIEevTooQYPHpzSzmHDhikZLUyCAATiTeDss8/2jRB3aCxbtkzVr1/fOWQLAQgUiQDP5SKBpJjYEkAAja3rc2o4AmhOuMqbGQG0ePxF5KxVq1bKCFCJjbhmzZriVURJENCAgExlPPnkk1Ms6d69uxoyZEjKeU5En0Dy88RpscQEFWGcBAEIxJtA+/btlXyZTE4yc+bwww9PPs0xBCBQIAGeywUC5PLYE0AAjX0XCAQAATQQJj0yJT8Ye/XqpQYMGKCHcQZaMXr0aHXTTTf5LJ8+fbod6N93kgMIRIBAx44d1dixY92WHHHEEeqtt95StWvXds+xEx8C27ZtU+edd55au3at2+imTZuq2bNnq2rVqrnn2ElPgMVh0nPhbHQIrFy5Up1xxhm+BvXu3Vvdf//9vnMcQAACxSHAc7k4HCnlPwTiuPApAii9PwgBBNAglDTJgwBafEdIbMSpU6faKx/LCqcnnXRS8SuhRAhoQEBGPcuiR/JCJKOfr7rqKnXIIYdoYBkmlIvAnj171KxZs9SKFSvUKaecomQRJMTPyr3B4jCVMyJHNAhs2bJFTZkyRW3atMleNK1JkybRaBitgICmBHgua+oYw8yK68KnCKCGddQymYsAWibw+VSLAJoPNa6BAAQgAAEIFI8Ai8MUjyUlQQACEIAABCBQPAJxXvgUAbR4/SjKJSGAGuRdBFCDnIWpEIAABCAQSQIsDhNJt9IoCEAAAhCAgPEE4rzwKQKo8d23JA1AAC0J5uJUggBaHI6UAgEIQAACEMiXAIvD5EuO6yAAAQhAAAIQCJNAnBc+RQANs2dFp2wEUIN8iQBqkLMwFQIQgAAEIkmAxWEi6VYaBQEIQAACEIgEgbgufIoAGonuG3ojEEBDR1y8ChBAi8eSkiAAAQhAAAL5EmBxmHzJcR0EIAABCEAAAmESiOvCpwigYfaq6JSNAGqQLxFADXIWpkIAAhCAAAQgAAEIQAACEIAABCAQOgEE0NARR6ICBFCD3IgAapCzMBUCEIAABCAAAQhAAAIQgAAEIACB0AkggIaOOBIVIIAa5EYEUIOchakQgAAEIAABCEAAAhCAAAQgAAEIhE4AATR0xJGoAAHUIDcigBrkLEyFAAQgAAEIQAACEIAABCAAAQhAIHQCCKChI45EBQigBrkRAdQgZ2EqBCAAAQhAAAIQgAAEIAABCEAAAqETQAANHXEkKkAANciNCKAGOQtTIQABCEAAAhCAAAQgAAEIQAACEAidAAJo6IgjUQECqEFuRAA1yFmYCgEIQAACEIAABCAAAQhAAAIQgEDoBBBAQ0cciQoQQA1yIwKoQc7CVAhAAAIQgAAEIAABCEAAAhCAAARCJ4AAGjriSFSAAGqQGxFAi++sVatWqblz56qDDjpItWzZUh166KHFr4QSIaAJgVdffVUtX75c1a1bV1188cVq//3318QyzCgHgd27d6vJkyerTz/9VDVp0kQ1bNhQ7bPPPuUwJbZ1bty4UU2bNk2JL1q0aKGOP/742LKg4foRoH/q5xMsijYBnsvR9q+JrTPpuwMCqIk9rPQ2I4CWnnneNSKA5o0u7YXjx49Xbdu29X22aNEi1ahRI985DiAQBQJ33HGHGj58uNuUOnXqqMWLF6vDDjvMPcdOfAjIl6zGjRvbgrjT6tatWyu5L1atWtU5xTZEAu+9955q0KCB2r59u1vL0KFDVbdu3dxjdiBQLgL0z3KRp964EuC5HFfP69tu0747IIDq25d0sgwBVCdvVGILAmglgHL8uGbNmmrz5s2+q0QQWLhwoe8cBxAwncD69evVCSeckNKM/v37qz59+qSc50T0CYwZM0bdeOONKQ2dM2eOatasWcp5ThSfgPAXPySnHTt2qOrVqyef5hgCJSVA/ywpbiqDgP084LlMR9CFgInfHRBAdek9etuBAKq3f3zWIYD6cBR0sHXrVlWjRo20ZSQSibTnOQkBUwnMmDFDXXbZZSnmt2rVyp4CnfIBJyJPoEePHmrw4MEp7Rw2bJiSX/xJ4RM4++yzfSNwnRqXLVum6tev7xyyhUBZCNA/y4KdSmNMgOdyjJ2vYdNN/O6AAKphR9LQJARQDZ2SySQE0Exkcj8vImetWrVSRoBKbMQ1a9bkXiBXQEBjAjKV8eSTT06xsHv37mrIkCEp5zkRfQLJzxOnxRITVIRxUvgE2rdvr+RlPTnJzITDDz88+TTHECgpAfpnSXFTGQQUz2U6gU4ETPzugACqUw/S1xYEUH19k2JZ8oOxV69easCAASn5OBGMwOjRo9VNN93kyzx9+nR7IQrfSQ4gEAECHTt2VGPHjnVbcsQRR6i33npL1a5d2z3HTnwIbNu2TZ133nlq7dq1bqObNm2qZs+erapVq+aeYyc8AitXrlRnnHGGr4LevXur+++/33eOAwiUgwD9sxzUqTPOBHgux9n7erbdtO8OCKB69iPdrEIA1c0jWexBAM0CJ8+PJL7J1KlT7ZWPZQXek046Kc+SuAwCehOQUc+y6JGs5iijn6+66ip1yCGH6G001oVKYM+ePWrWrFlqxYoV6pRTTlGyCBLiZ6jIUwrfsmWLmjJlitq0aZO9KFWTJk1S8nACAuUiQP8sF3nqjSsBnstx9bye7TbtuwMCqJ79SDerEEB180gWexBAs8DhIwhAAAIQgAAEIAABCEAAAhCAAARiRwABNHYuz6vBCKB5YSvPRQig5eFOrRCAAAQgAAEIQAACEIAABCAAAQjoSQABVE+/6GYVAqhuHsliDwJoFjh8BAEIQAACEIAABCAAAQhAAAIQgEDsCCCAxs7leTUYATQvbOW5CAG0PNypFQIQgAAEIAABCEAAAhCAAAQgAAE9CSCA6ukX3axCANXNI1nsQQDNAoePIAABCEAAAhCAAAQgAAEIQAACEIgdAQTQ2Lk8rwYjgOaFrTwXIYCWhzu1QgACEIAABCAAAQhAAAIQgAAEIKAnAQRQPf2im1UIoLp5JIs9CKBZ4PARBCAAAQhAAAIQgAAEIAABCEAAArEjgAAaO5fn1WAE0LywleciBNDycKdWCEAAAhCAAAQgAAEIQAACEIAABPQkgACqp190swoBVDePZLEHATQLHD6CAAQgAAEIxJTAqlWr1Ny5c9VBBx2kWrZsqQ499NCYkqDZEIAABCAAAQjoRGD37t1q8uTJ6tNPP1VNmjRRDRs2VPvss0/RTUQALTrSSBaIAGqQWxFADXIWpkIAAhCAAARKQGD8+PGqbdu2vpoWLVqkGjVq5DvHAQQgAAEIQAACECglARE/GzdurJYvX+5W27p1ayXvLlWrVnXPFWMHAbQYFKNfBgKoQT5GADXIWZgKAQhAAAIQKAGBmjVrqs2bN/tqki8bCxcu9J3jAAIQgAAEIAABCJSSwJgxY9SNN96YUuWcOXNUs2bNUs4XcgIBtBB68bkWAdQgXyOAGuQsTIUABCAAAQiETGDr1q2qRo0aaWtJJBJpz3MSAhCAAAQgAAEIlIJAjx491ODBg1OqGjZsmLrjjjtSzhdyAgG0EHrxuRYB1CBfI4Aa5CxMhQAEIAABCIRMQETOWrVqpYwArVu3rlqzZk3ItVM8BCAAAQhAAAIQyEwgWb9wckpM0FatWjmHRdkigBYFY+QLQQA1yMXJN5BevXqpAQMGGNQC/Uxl4Qj9fIJF4RF49dVX7Rg8Io5cfPHFav/99w+vMkrWnkCpgtJrD8JwA0ePHq1uuukmXyumT5+uWrRo4TvHAQRyJbBx40Y1bdo0JfcK6U/HH398rkWQHwIQyIEAz+UcYJHVCALbtm1T5513nlq7dq1rb9OmTdXs2bNVtWrV3HPF2EEALQbF6JeBAGqQjxFAi+ssFo4oLk9K05uATDMZPny4a2SdOnXU4sWL1WGHHeaeYyc+BEoZlD4+VMvX0vXr16upU6faq6qKUHXSSSeVzxhqjgSB9957TzVo0EBt377dbc/QoUNVt27d3GN2IACB4hHguVw8lpSkF4E9e/aoWbNmqRUrVqhTTjlFySJIxRY/pcUIoHr5XVdrEEB19UwauxBA00Ap4BQLRxQAj0uNIiDiyAknnJBic//+/VWfPn1SznMi+gRKGZQ++jRpIQSiR0AWrZD7RHLasWOHql69evJpjiEAgQIJ8FwuECCXx54AAmjsu0AgAAiggTDpkQkBtHh+YOGI4rGkJP0JzJgxQ1122WUphkrsHYnBQ4ofgVIGpY8fXVoMAfMJnH322XbIlOSWLFu2TNWvXz/5NMcQgECBBHguFwiQy2NPAAE09l0gEAAE0ECY9MiEAFo8P7BwRPFYUpL+BGQq48knn5xiaPfu3dWQIUNSznMi+gSSnydOi8MISu+UzRYCEDCHQPv27e3phMkWb968WR1++OHJpzmGAAQKJMBzuUCAXB57Agigse8CgQAggAbCpEem5AcjiyAV5hcWjiiMH1ebRaBjx45q7NixrtFHHHGEeuutt1Tt2rXdc+zEh0Apg9LHhyothUB0CKxcuVKdccYZvgb17t1b3X///b5zHEAAAsUhwHO5OBwpJb4EEEDj6/tcWo4AmgutMudFAC2+A1g4ovhMKVFPAjLqWRY9kpXga9Wqpa666ip1yCGH6GksVpWEQKmC0pekMVQCAQgUncCWLVvUlClT1KZNm1Tjxo1VkyZNil4HBUIAAhUEeC5XsGAPArkSQADNlVg88yOAGuR3BFCDnIWpEIAABCAAAQhAAAIQgAAEIAABCIROAAE0dMSRqAAB1CA3IoAa5CxMhQAEIAABCEAAAhCAAAQgAAEIQCB0AgigoSOORAUIoAa5EQHUIGdhKgQgAAEIQAACEIAABCAAAQhAAAKhE0AADR1xJCpAADXIjQigBjkLUyEAAQhAAAIQgAAEIAABCEAAAhAInQACaOiII1EBAqhBbkQANchZmAoBCEAAAhCAAAQgAAEIQAACEIBA6AQQQENHHIkKEEANciMCqEHOwlQIQAACEIAABCAAAQhAAAIQgAAEQieAABo64khUgABqkBsRQA1yFqZCAAIQgAAEIAABCEAAAhCAAAQgEDoBBNDQEUeiAgRQg9yIAGqQszAVAhCAAAQgAAEIQAACEIAABCAAgdAJIICGjjgSFSCAGuTGZAH07rvvVv369cupBdWqVVP77rtvTteQGQIQgAAEIAABCEAAAhCAAAQgAAEIlILAzp07c6rm+eefV126dHGv6d69uxoyZIh7zA4EhAACqEH9IFkAzcf0rl27quHDh+dzKddAAAIQgAAEIAABCEAAAhCAAAQgAIHQCMyaNUs1b968oPIRQAvCF9mLEUANci0CqEHOwlQIQAACEIAABCAAAQhAAAIQgAAEciLw9NNPqz/84Q85XZOcGQE0mQjHQgAB1KB+gABqkLMwFQIQgAAEIAABCEAAAhCAAAQgAIGcCCCA5oSLzDkQQADNAVa5s0pg31tuuaUgM2699VY1aNCggsrgYghAAAIQgAAEIAABCEAAAhCAAAQgUGwCY8aMUbfffntBxYqIev311xdUBhdHjwACaPR8SosgAAEIQAACEIAABCAAAQhAAAIQgAAEIACB/yOAAEpXgAAEIAABCEAAAhCAAAQgAAEIQAACEIAABCJLAAE0sq6lYRCAAAQgAAEIQAACEIAABCAAAQhAAAIQgAACKH0AAhCAAAQgAAEIQAACEIAABCAAAQhAAAIQiCwBBNDIupaGQQACEIAABCAAAQhAAAIQgAAEIAABCEAAAgig9AEIQAACEIAABCAAAQhAAAIQgAAEIAABCEAgsgQQQCPrWhoGAQhAAAIQgAAEIAABCEAAAhCAAAQgAAEIIIDSByAAAQhAAAIQgAAEIAABCEAAAhCAAAQgAIHIEkAAjaxraRgEIAABCEAAAhCAAAQgAAEIQAACEIAABCCAAEofgAAEIAABCEAAAhCAAAQgAAEIQAACEIAABCJLAAE0sq6lYRCAAAQgAAEIQAACEIAABCAAAQhAAAIQgAACKH0AAhCAAAQgAAEIQAACEIAABCAAAQhAIFIE5s+fr26++WY1YMAAdd111+XctlmzZqm+ffuqn/zkJ+q1117L+fpcLvjyyy/VaaedpjZv3mxf9vXXX6saNWqkLWLixInqlltuUcOHD1fXXntt2jycTCWAAJrKhDMQgAAEIAABCEAAAhCAAAQgAAEIQAACBhLYvXu36tmzpxo2bJht/UsvvaRat24duCVz5syxhc833njDvqZBgwZqyZIlga/PNWMikbDtmzJlintpNgH0r3/9q2rXrp2dV4TdZ555Rh1wwAHuteykJ4AAmp4LZyEAAQhAAAIQgAAEIAABCEAAAhCAAAQMIvDxxx+rNm3aqOXLl9tWz5w5U1166aWBWiAjRvv06aNef/11X/6wBdA///nPqnPnzr46swmgkvGVV15RV1xxhX3NiSeeqObOnauOPvpoXxkc+AkggPp5cAQBCEAAAhCAAAQgAAEIQAACEIAABCBgGIF169apX//61/Y0chkRuXDhQlWvXr1KWyGCpwifIoCmS2EKoGKzCJjJqTIBVPKvXLnSbu/27dvVMccco/7xj3+o2rVrJxfF8f8RQAClK0AAAhCAAAQgAAEIQAACEIAABCAAAQgYS0BGfp577rmu+LlgwQJ11llnZW3P999/r/7rv/7LHj0pGUUsFVExOYUlgEr9jRs3VkuXLk2uUgURQOWiFStWqPr169vXi5C6aNEidcghh6SUxwmlEEDpBRCAAAQgAAEIQAACEIAABCAAAQhAAAJGEvj888/VBRdcoD788EPb/tmzZ6uLL7640rbs2rVLXXPNNeq///u/7enkMmr0xRdfVNdff73v2rAEUFlg6f777/fV5RwEFUAlv8Qsddp7ySWXqBkzZqiqVas6RbH9PwIIoHQFCEAAAhCAAAQgAAEIQAACEIAABCAAAeMI7N27VzVt2lQ5Cxbdfffd6uGHH867HSKmJsfSDEMAFXtlun6mlIsAKmXIqvBPPvmkXdyDDz6o/vjHP2YqOrbnEUBj63oaDgEIQAACEIAABCAAAQhAAAIQgAAEzCXw6KOPKhE9JR1xxBHqo48+UtWrV8+7QT/++GPK6MliC6Bbt25Vp512mvrss8/s+J8iVnbo0MFnc64C6DfffKOOPfZYJfFAJb322mv2qFhfoTE/QACNeQeg+RCAAAQgAAEIQAACEIAABCAAAQhAwDQCq1at8i1yJCMg//CHPxTUjFIIoB07dlRjx4617XzrrbeUxC+9+uqrfXbnKoDKxb1791Yy+lOSiMFr1qxRhx12mH3Mf8QApQ9AAAIQgAAEIAABCEAAAhCAAAQgAAEIGEagYcOGvgWEduzYUdDoT2l+2ALo+PHjVdu2bW3SAwcOVD179lQTJ04sigC6YcMGexSo48a77rpLyQhZ0n8IMAKUngABCEAAAhCAAAQgAAEIQAACEIAABCBgDAGZ4n3hhRe69rZo0UJNnz7dPc53J0wBVKa8161b156mLqu/z58/X1WrVq1oAqi0WeKKOvFQ5Vhimh555JGyG/uEABr7LgAACEAAAhCAAAQgAAEIQAACEIAABCBgDoErr7xSvfzyy67Bw4cPV127dnWP890JSwD94Ycf1KWXXqrmzp1rm/bBBx+oOnXq2PvFGgEqhfXp00c98MADdrnyH6NAXRQKAbSCBXsQgAAEIAABCEAAAhCAAAQgAAEIQAACGhN499131SmnnOKzcPXq1erUU0/1ncvnICwBdMiQIbYYKTaNHj1aSRxQJxVTAJ01a5Zq3ry5U7S9/eKLL+yYoL6TMTxAAI2h02kyBCAAAQhAAAIQgAAEIAABCEAAAhAwkcCgQYNUr169XNNlwZ9NmzapKlWquOfy3QlDAH377bfVmWeeaZvUunVr9dJLL/nMK6YAKqvBH3zwwb7y//KXv6gbbrjBdy6OBwigcfQ6bYYABCAAAQhAAAIQgAAEIAABCEAAAgYSuOiii9yp5GK+jKaUUZXFSMUWQHfu3KkaNGig1q5da4/ClJGqhx9+uM/UYgqgUvDZZ5+tli9f7tbRoUMHNWbMGPc4rjsIoHH1PO2GAAQgAAEIQAACEIAABCAAAQhAAAIGEdi1a1fKSu/9+/e3Y18WoxnFFkC7d++uhg0bZpsmizTJYk3JqdgCqMRCHTFihFvNAQccoGRk6D777OOei+MOAmgcvU6bIQABCEAAAhCAAAQgAAEIQAACEICAYQQWLlyoLrjgAp/Vzz33nLrxxht95/I9KKYA6o3Hedttt6k//elPac0qtgA6ePBg1aNHD19dK1euVKeffrrvXNwOEEDj5nHaCwEIQAACEIAABCAAAQhAAAIQgAAEDCQwbtw41b59e5/lM2fOtFdY953M86BYAuiXX36pTjvtNLV582Z14oknqhUrVqSMXHVMLLYAKjE/f/e73znF29uXX35ZXXHFFb5zcTtAAI2bx2kvBCAAAQhAAAIQgAAEIAABCEAAAhAwkMDjjz+uunXr5rP8jTfeUOeff77vXL4HxRJAr7rqKjVp0iTbjKVLl6pzzjkno0nFFkD//ve/p0y1T155PqMxEf4AATTCzqVpEIAABCAAAQhAAAIQgAAEIAABCEAgKgT69OmjHnjgAV9zli1bpurXr+87l+9BMQTQUaNGqU6dOtkmDBgwwLdifTq7ii2ALliwQDVt2tRX1aOPPqruuusu37m4HSCAxs3jtBcCEIAABCAAAQhAAAIQgAAEIAABCBhIoEuXLuqpp57yWS4rq5966qm+c/keFCqArlu3zp7yLvU3btxYzZ8/X1WrVi2rOcUWQN9880113nnn+eqUmKCDBg3ynYvbAQJo3DxOeyEAAQhAAAIQgAAEIAABCEAAAhCAgIEEZLGjMWPG+Cxfu3atOuWUU3zn8j0oRAD9/vvvbdFTprxLWr9+vTruuOMqNaXYAuhbb72lGjRo4Kv3lltuUU888YTvXNwOEEDj5nHaCwEIQAACEIAABCAAAQhAAAIQgAAEDCQg07iHDBnis/yf//ynOuOMM3zn8j0oRACVkahhrbR+wAEHqI8//lgdcsghlTZt3rx5qlmzZr589957r3rooYd85+J28P/bu7sQm9o2DuC3GtETjaSRSU40lANFaaaUwoHQhKYkB6QwUWoMyaCIZCSmnGBMUg5GPoZQU9JESiKKg2l8ZHIw5SMpRMnH+679sHqXj+cdM9uTfe/frmnWvfZea9/X77qP/q29lgC02DquXgIECBAgQIAAAQIECBAgQIBAAQokP+PetGlTZubJT74rKysz+/o6+FMD0KSenp6eUF5e/n9La2trCzU1NZnP7dmzJ6xfvz6zr9gGAtBi67h6CRAgQIAAAQIECBAgQIAAAQIFKHD48OGwcuXKzMw7OjrC9OnTM/v6OoghAP3fhzB9dfAU+BAEoF9Xg/8ECBAgQIAAAQIECBAgQIAAAQJ/rMCPrm5sbW0NixYtysuc+xOAdnd3h+QhTb/6ev78ebh9+3bmsKqqqlBaWpruS7aTYHPIkCHpvp9tJFd7btiwIfP2uXPnQnV1dWZfsQ0EoMXWcfUSIECAAAECBAgQIECAAAECBApQoKur67sHHu3duzfU19fnpZr+BKB9ncDFixfDrFmzMoe/fPkyDBs2LLOvt4OGhobv7vd5//79UFFR0dtTRPk5AWiUbVUUAQIECBAgQIAAAQIECBAgQCA+gZEjR4Znz56lha1Zsybs378/HfdnI4YAtLa2NjQ3N6cMZWVl4enTp+m4WDcEoMXaeXUTIECAAAECBAgQIECAAAECBApMILkHaHIv0K+viRMnhjt37nwd9uv/x48fQ0lJSeYcU6ZMCTdu3Mjsy+cg31eAzpkzJ7S3t6dTXLp0aTh69Gg6LtYNAWixdl7dBAgQIECAAAECBAgQIECAAIECEzh58mRYuHBhZtYvXrwIw4cPz+zry+DJkydh1KhRmUMnT54cbt26ldmXz0E+A9DkCtbkp/OvX79Op+gBSH9TCEDTJWGDAAECBAgQIECAAAECBAgQIEDgTxZ49epVGD16dCbku3DhQpg7d26/p33t2rUwderUzHl+90/I8xmAPnjwIIwbNy4z//7cTzRzogIfCEALvIGmT4AAAQIECBAgQIAAAQIECBAoJoHdu3eHjRs3piUn27t27UrHfdn48OFD7mFEHR0d3x1+/fr1UFlZ+d3+fOzIZwDa0tISVqxYkU4reRp8YuUVggDUKiBAgAABAgQIECBAgAABAgQIECgYgW+vAu3rfTpv3rwZHj16FLq7u8OxY8dCZ2fnDw2GDh0aampqQlVVVSgtLQ2TJk0K48eP/+Fnf3VnPgPQadOmhatXr6ZTePz4cRgzZkw6LuYNAWgxd1/tBAgQIECAAAECBAgQIECAAIECFGhsbAwNDQ3pzLu6un45lFy9enU4cOBAeo7ebiQPYVq+fHlvP/6Pn/tRAPru3bswePDgfzzu2zeTIHfs2LHp7uRhUYcOHUrHxb4hAC32FaB+AgQIECBAgAABAgQIECBAgECBCSQhYXJF5t27d3Mzr6urC01NTQVWRf6mu2rVqnDw4MHcCZP7lt67dy/3QKT8fUNhn0kAWtj9M3sCBAgQIECAAAECBAgQIECAQFEKfPvQn56enlBeXl50Fg8fPgwVFRVp3ZcuXQozZ85MxzbcA9QaIECAAAECBAgQIECAAAECBAgQKFCB1tbWsHjx4tzsFyxYENra2gq0kr5NO3l404wZM9J7f65duzbs27evbyeL+ChXgEbcXKURIECAAAECBAgQIECAAAECBGIXqK2tDc3Nzbkyjxw5EpYtWxZ7yWl927dvD1u3bs2NkwD4xIkToaSkJH3fxt8CAlArgQABAgQIECBAgAABAgQIECBAoGAF3r9/H+bPnx/a29tzNZw9ezbMmzevYOvp7cST0DcJf5PX7Nmzw5kzZ8KgQYN6e3hRfU4AWlTtViwBAgQIECBAgAABAgQIECBAID6BN2/ehOrq6nD58uVccadOnQo1NTXxFfqlouRJ9MmT3pNX8hP48+fPh7/++uvLu/59KyAA/VbEmAABAgQIECBAgAABAgQIECBAoOAE3r59G5YsWRJOnz6dm/vOnTtDQ0NDGDBgQMHV8rMJf/r0KWzevDk0NjbmPlJfX5/bHjhw4M8Osf+/AgJQy4AAAQIECBAgQIAAAQIECBAgQCAKgc+fP4empqawbt26XD3Jdl1dXRS1JUUkoe6WLVtCWVlZaGlpyV31Gk1xv7EQAehvxHVqAgQIECBAgAABAgQIECBAgACBf1+gs7MzbNu2Lfc3YcKEf38Cv+kbr1y5Eo4fPx527NgRRowY8Zu+Jb7TCkDj66mKCBAgQIAAAQIECBAgQIAAAQIECBD4IiAAtRQIECBAgAABAgQIECBAgAABAgQIEIhWQAAabWsVRoAAAQIECBAgQIAAAQIECBAgQICAANQaIECAAAECBAgQIECAAAECBAgQIEAgWgEBaLStVRgBAgQIECBAgAABAgQIECBAgAABAgJQa4AAAQIECBAgQIAAAQIECBAgQIAAgWgFBKDRtlZhBAgQIECAAAECBAgQIECAAAECBAgIQK0BAgQIECBAgAABAgQIECBAgAABAgSiFRCARttahREgQIAAAQIECBAgQIAAAQIECBAgIAC1BggQIECAAAECBAgQIECAAAECBAgQiFZAABptaxVGgAABAgQIECBAgAABAgQIECBAgIAA1BogQIAAAQIECBAgQIAAAQIECBAgQCBaAQFotK1VGAECBAgQIECAAAECBAgQIECAAAECAlBrgAABAgQIECBAgAABAgQIECBAgACBaAUEoNG2VmEECBAgQIAAAQIECBAgQIAAAQIECAhArQECBAgQIECAAAECBAgQIECAAAECBKIVEIBG21qFESBAgAABAgQIECBAgAABAgQIECAgALUGCBAgQIAAAQIECBAgQIAAAQIECBCIVkAAGm1rFUaAAAECBAgQIECAAAECBAgQIECAgADUGiBAgAABAgQIECBAgAABAgQIECBAIFoBAWi0rVUYAQIECBAgQIAAAQIECBAgQIAAAQICUGuAAAECBAgQIECAAAECBAgQIECAAIFoBQSg0bZWYQQIECBAgAABAgQIECBAgAABAgQICECtAQIECBAgQIAAAQIECBAgQIAAAQIEohUQgEbbWoURIECAAAECBAgQIECAAAECBAgQICAAtQYIECBAgAABAgQIECBAgAABAgQIEIhWQAAabWsVRoAAAQIECBAgQIAAAQIECBAgQICAANQaIECAAAECBAgQIECAAAECBAgQIEAgWgEBaLStVRgBAgQIECBAgAABAgQIECBAgAABAgJQa4AAAQIECBAgQIAAAQIECBAgQIAAgWgFBKDRtlZhBAgQIECAAAECBAgQIECAAAECBAgIQK0BAgQIECBAgAABAgQIECBAgAABAgSiFRCARttahREgQIAAAQIECBAgQIAAAQIECBAgIAC1BggQIECAAAECBAgQIECAAAECBAgQiFZAABptaxVGgAABAgQIECBAgAABAgQIECBAgIAA1BogQIAAAQIECBAgQIAAAQIECBAgQCBaAQFotK1VGAECBAgQIECAAAECBAgQIECAAAECAlBrgAABAgQIECBAgAABAgQIECBAgACBaAUEoNG2VmEECBAgQIAAAQIECBAgQIAAAQIECAhArQECBAgQIECAAAECBAgQIECAAAECBKIV+A+aFjsNEX0SiwAAAABJRU5ErkJggg==;movable=0;resizable=0;rotatable=0;deletable=0;editable=0;locked=1;connectable=0;" parent="1" vertex="1">
          <mxGeometry x="-259.9985714285713" y="-437.9971428571428" width="1344" height="632" as="geometry" />
        </mxCell>
        <mxCell id="IyuzSUy-2NjSX49_va-I-3" value="" style="edgeStyle=orthogonalEdgeStyle;orthogonalLoop=1;jettySize=auto;html=1;rounded=0;fontSize=120;curved=1;entryX=0.113;entryY=0;entryDx=0;entryDy=0;entryPerimeter=0;fillColor=#dae8fc;strokeColor=#6c8ebf;strokeWidth=6;" edge="1" parent="1">
          <mxGeometry width="140" relative="1" as="geometry">
            <mxPoint x="512" y="-478" as="sourcePoint" />
            <mxPoint x="513.8734285714286" y="-319.99714285714276" as="targetPoint" />
          </mxGeometry>
        </mxCell>
        <mxCell id="10dK1Vd9zMt5HVXEKxZ6-27" value="" style="edgeStyle=orthogonalEdgeStyle;orthogonalLoop=1;jettySize=auto;html=1;rounded=0;fontSize=120;curved=1;entryX=0.113;entryY=0;entryDx=0;entryDy=0;entryPerimeter=0;fillColor=#dae8fc;strokeColor=#6c8ebf;strokeWidth=6;fillOpacity=100;" parent="1" edge="1">
          <mxGeometry width="140" relative="1" as="geometry">
            <mxPoint x="-66" y="-476" as="sourcePoint" />
            <mxPoint x="-64.12657142857142" y="-317.99714285714276" as="targetPoint" />
          </mxGeometry>
        </mxCell>
        <mxCell id="10dK1Vd9zMt5HVXEKxZ6-33" value="" style="edgeStyle=orthogonalEdgeStyle;orthogonalLoop=1;jettySize=auto;html=1;rounded=1;fontSize=120;curved=1;entryX=0.113;entryY=0;entryDx=0;entryDy=0;entryPerimeter=0;fillColor=#d5e8d4;strokeColor=#82b366;strokeWidth=6;movable=1;resizable=1;rotatable=1;deletable=1;editable=1;locked=0;connectable=1;" parent="1" edge="1">
          <mxGeometry width="140" relative="1" as="geometry">
            <mxPoint x="120" y="-476" as="sourcePoint" />
            <mxPoint x="121.87342857142858" y="-317.99714285714276" as="targetPoint" />
          </mxGeometry>
        </mxCell>
        <mxCell id="IyuzSUy-2NjSX49_va-I-1" value="" style="edgeStyle=orthogonalEdgeStyle;orthogonalLoop=1;jettySize=auto;html=1;rounded=0;fontSize=120;curved=1;entryX=0.113;entryY=0;entryDx=0;entryDy=0;entryPerimeter=0;fillColor=#f8cecc;strokeColor=#b85450;strokeWidth=6;" edge="1" parent="1">
          <mxGeometry width="140" relative="1" as="geometry">
            <mxPoint x="256" y="-476" as="sourcePoint" />
            <mxPoint x="257.8734285714286" y="-317.99714285714276" as="targetPoint" />
          </mxGeometry>
        </mxCell>
        <mxCell id="IyuzSUy-2NjSX49_va-I-10" value="" style="edgeStyle=orthogonalEdgeStyle;orthogonalLoop=1;jettySize=auto;html=1;rounded=0;fontSize=120;curved=1;entryX=0.113;entryY=0;entryDx=0;entryDy=0;entryPerimeter=0;fillColor=#d5e8d4;strokeColor=#82b366;strokeWidth=6;movable=1;resizable=1;rotatable=1;deletable=1;editable=1;locked=0;connectable=1;" edge="1" parent="1">
          <mxGeometry width="140" relative="1" as="geometry">
            <mxPoint x="744" y="-476" as="sourcePoint" />
            <mxPoint x="745.8734285714286" y="-317.99714285714276" as="targetPoint" />
          </mxGeometry>
        </mxCell>
        <mxCell id="IyuzSUy-2NjSX49_va-I-18" value="" style="edgeStyle=orthogonalEdgeStyle;orthogonalLoop=1;jettySize=auto;html=1;rounded=0;fontSize=120;curved=1;fillColor=#dae8fc;strokeColor=#6c8ebf;strokeWidth=6;" edge="1" parent="1">
          <mxGeometry width="140" relative="1" as="geometry">
            <mxPoint x="-324" y="-120" as="sourcePoint" />
            <mxPoint x="-124" y="-78" as="targetPoint" />
            <Array as="points">
              <mxPoint x="-324" y="-124" />
              <mxPoint x="-272" y="-124" />
              <mxPoint x="-272" y="-82" />
              <mxPoint x="-180" y="-82" />
              <mxPoint x="-180" y="-78" />
            </Array>
          </mxGeometry>
        </mxCell>
        <mxCell id="IyuzSUy-2NjSX49_va-I-20" value="" style="edgeStyle=orthogonalEdgeStyle;orthogonalLoop=1;jettySize=auto;html=1;rounded=0;fontSize=120;curved=1;fillColor=#d5e8d4;strokeColor=#82b366;strokeWidth=6;" edge="1" parent="1">
          <mxGeometry width="140" relative="1" as="geometry">
            <mxPoint x="-332" y="-60" as="sourcePoint" />
            <mxPoint x="-132" y="-18" as="targetPoint" />
            <Array as="points">
              <mxPoint x="-332" y="-64" />
              <mxPoint x="-280" y="-64" />
              <mxPoint x="-280" y="-22" />
              <mxPoint x="-188" y="-22" />
              <mxPoint x="-188" y="-18" />
            </Array>
          </mxGeometry>
        </mxCell>
        <mxCell id="IyuzSUy-2NjSX49_va-I-23" value="" style="rounded=0;whiteSpace=wrap;html=1;fillColor=none;strokeColor=#6c8ebf;strokeWidth=3;" vertex="1" parent="1">
          <mxGeometry x="-123" y="-318" width="118" height="422" as="geometry" />
        </mxCell>
        <mxCell id="IyuzSUy-2NjSX49_va-I-24" style="edgeStyle=none;curved=1;rounded=0;orthogonalLoop=1;jettySize=auto;html=1;exitX=0;exitY=0.25;exitDx=0;exitDy=0;fontSize=12;startSize=8;endSize=8;" edge="1" parent="1" source="IyuzSUy-2NjSX49_va-I-23" target="IyuzSUy-2NjSX49_va-I-23">
          <mxGeometry relative="1" as="geometry" />
        </mxCell>
        <mxCell id="IyuzSUy-2NjSX49_va-I-25" value="" style="rounded=0;whiteSpace=wrap;html=1;fillColor=none;strokeColor=#6c8ebf;strokeWidth=3;" vertex="1" parent="1">
          <mxGeometry x="459" y="-324" width="118" height="422" as="geometry" />
        </mxCell>
        <mxCell id="IyuzSUy-2NjSX49_va-I-26" value="" style="rounded=0;whiteSpace=wrap;html=1;fillColor=none;strokeColor=#82b366;strokeWidth=3;" vertex="1" parent="1">
          <mxGeometry x="61" y="-320" width="118" height="422" as="geometry" />
        </mxCell>
        <mxCell id="IyuzSUy-2NjSX49_va-I-27" value="" style="rounded=0;whiteSpace=wrap;html=1;fillColor=none;strokeColor=#6c8ebf;strokeWidth=3;" vertex="1" parent="1">
          <mxGeometry x="199" y="-320" width="112" height="422" as="geometry" />
        </mxCell>
        <mxCell id="IyuzSUy-2NjSX49_va-I-28" value="" style="rounded=0;whiteSpace=wrap;html=1;fillColor=none;strokeColor=#82b366;strokeWidth=3;" vertex="1" parent="1">
          <mxGeometry x="681" y="-320" width="118" height="422" as="geometry" />
        </mxCell>
        <mxCell id="IyuzSUy-2NjSX49_va-I-29" value="" style="rounded=0;whiteSpace=wrap;html=1;fillColor=none;strokeColor=#82b366;strokeWidth=3;" vertex="1" parent="1">
          <mxGeometry x="-121" y="-42" width="930" height="48" as="geometry" />
        </mxCell>
        <mxCell id="IyuzSUy-2NjSX49_va-I-31" value="" style="rounded=0;whiteSpace=wrap;html=1;fillColor=none;strokeColor=#6c8ebf;strokeWidth=3;" vertex="1" parent="1">
          <mxGeometry x="-117" y="-94" width="926" height="48" as="geometry" />
        </mxCell>
        <mxCell id="IyuzSUy-2NjSX49_va-I-32" value="" style="rounded=0;whiteSpace=wrap;html=1;strokeColor=#FFFFFF;" vertex="1" parent="1">
          <mxGeometry x="929" y="108" width="112" height="64" as="geometry" />
        </mxCell>
      </root>
    </mxGraphModel>
  </diagram>
</mxfile>
